STARTFONT 2.1
COMMENT
COMMENT Converted from OpenType font "c:\Users\Martin\Dropbox\Code\EEZ\psu-firmware\tools\font_tools\fonts\ttf\webhostinghub-glyphs.ttf" by "otf2bdf.exe 3.0".
COMMENT
FONT -FreeType-WebHostingHub Glyphs-Medium-R-Normal--19-140-100-100-P-186-ISO10646-1
SIZE 14 100 100
FONTBOUNDINGBOX 19 21 0 -1
STARTPROPERTIES 19
FOUNDRY "FreeType"
FAMILY_NAME "WebHostingHub Glyphs"
WEIGHT_NAME "Medium"
SLANT "R"
SETWIDTH_NAME "Normal"
ADD_STYLE_NAME ""
PIXEL_SIZE 19
POINT_SIZE 140
RESOLUTION_X 100
RESOLUTION_Y 100
SPACING "P"
AVERAGE_WIDTH 186
CHARSET_REGISTRY "ISO10646"
CHARSET_ENCODING "1"
FONT_ASCENT 20
FONT_DESCENT 0
COPYRIGHT "WebHostingHub Glyphs - author WebHostingHub.com - http://webhostinghub.com/glyphs/"
_OTF_FONTFILE "c:\Users\Martin\Dropbox\Code\EEZ\psu-firmware\tools\font_tools\fonts\ttf\webhostinghub-glyphs.ttf"
_OTF_PSNAME "WebHostingHub-Glyphs"
ENDPROPERTIES
CHARS 1508
STARTCHAR 0024
ENCODING 36
SWIDTH 977 0
DWIDTH 19 0
BBX 15 19 2 0
BITMAP
0100
07C0
1FF0
7FFC
701C
E00E
E00C
7000
7FC0
1FF0
07FC
001C
600E
E00E
701C
7FFC
1FF0
07C0
0100
ENDCHAR
STARTCHAR 0025
ENCODING 37
SWIDTH 977 0
DWIDTH 19 0
BBX 19 19 0 0
BITMAP
380F80
7C1F00
EE1F00
C63E00
EE3E00
7E7C00
3C7C00
00F800
00F000
01F000
01E000
03E000
07C780
07CFC0
0F8EE0
0F8C60
1F0EE0
1F07C0
3E0380
ENDCHAR
STARTCHAR 002A
ENCODING 42
SWIDTH 977 0
DWIDTH 19 0
BBX 19 19 0 -1
BITMAP
03F800
03F800
03F800
03F800
39FBC0
7FFFC0
7FFFC0
7FFFE0
FFFFE0
FFFFE0
1FFF00
07FC00
0FFE00
1FFF00
3FFF80
3FBF80
1F9F00
0F1E00
030C00
ENDCHAR
STARTCHAR 002B
ENCODING 43
SWIDTH 977 0
DWIDTH 19 0
BBX 19 19 0 0
BITMAP
01F000
01F000
01F000
01F000
01F000
01F000
01F000
FFFFE0
FFFFE0
FFFFE0
FFFFE0
FFFFE0
01F000
01F000
01F000
01F000
01F000
01F000
01F000
ENDCHAR
STARTCHAR 0030
ENCODING 48
SWIDTH 977 0
DWIDTH 19 0
BBX 15 19 2 0
BITMAP
1FF0
3FF8
701C
780C
F80E
FC0E
EE0E
E70E
E70E
E38E
E1CE
E1CE
E0EE
E07E
E03E
603C
701C
3FF8
1FF0
ENDCHAR
STARTCHAR 0031
ENCODING 49
SWIDTH 720 0
DWIDTH 14 0
BBX 10 19 2 0
BITMAP
7000
F800
3C00
0C00
0C00
0C00
0C00
0C00
0C00
0C00
0C00
0C00
0C00
0C00
0C00
0C00
0C00
FFC0
7FC0
ENDCHAR
STARTCHAR 0032
ENCODING 50
SWIDTH 977 0
DWIDTH 19 0
BBX 15 19 2 0
BITMAP
1FF0
3FF8
701C
600C
E00E
400E
000E
000E
000C
003C
3FF8
7FF0
7000
E000
E000
E000
E000
FFFE
7FFC
ENDCHAR
STARTCHAR 0033
ENCODING 51
SWIDTH 977 0
DWIDTH 19 0
BBX 15 19 2 0
BITMAP
1FF0
3FF8
701C
600C
E00E
400E
000E
000C
00FC
01F8
00FC
000C
000E
400E
E00E
600C
701C
3FF8
1FF0
ENDCHAR
STARTCHAR 0034
ENCODING 52
SWIDTH 977 0
DWIDTH 19 0
BBX 15 19 2 0
BITMAP
600C
E00E
E00E
E00E
E00E
E00E
E00E
E00E
600E
783E
3FFE
1FFE
000E
000E
000E
000E
000E
000E
000C
ENDCHAR
STARTCHAR 0035
ENCODING 53
SWIDTH 977 0
DWIDTH 19 0
BBX 15 19 2 0
BITMAP
7FFC
FFFE
E000
E000
E000
E000
E000
FFF0
7FF8
1FFC
000C
000E
000E
400E
E00E
600C
701C
3FF8
1FF0
ENDCHAR
STARTCHAR 0036
ENCODING 54
SWIDTH 977 0
DWIDTH 19 0
BBX 15 19 2 0
BITMAP
1FF0
3FF8
701C
600C
E00E
E004
E000
FFF0
FFF8
F83C
E00C
E00E
E00E
E00E
E00E
600C
701C
3FF8
1FF0
ENDCHAR
STARTCHAR 0037
ENCODING 55
SWIDTH 977 0
DWIDTH 19 0
BBX 15 19 2 0
BITMAP
7FF0
FFF8
001C
000C
000E
000E
000C
000C
001C
0018
0038
0030
0070
0060
00C0
00C0
0180
0380
0300
ENDCHAR
STARTCHAR 0038
ENCODING 56
SWIDTH 977 0
DWIDTH 19 0
BBX 15 19 2 0
BITMAP
1FF0
3FF8
701C
600C
E00E
E00E
E00E
600C
7FFC
3FF8
7FFC
600C
E00E
E00E
E00E
600C
701C
3FF8
1FF0
ENDCHAR
STARTCHAR 0039
ENCODING 57
SWIDTH 977 0
DWIDTH 19 0
BBX 15 19 2 0
BITMAP
1FF0
3FF8
701C
600C
E00E
E00E
E00E
E00E
600E
783E
3FFE
1FFE
000E
400E
E00E
600C
701C
3FF8
1FF0
ENDCHAR
STARTCHAR 0040
ENCODING 64
SWIDTH 977 0
DWIDTH 19 0
BBX 19 19 0 0
BITMAP
03F800
0FFE00
1F1F00
3C0780
7001C0
71F1C0
E3FCE0
E71CE0
C60C60
C60C60
C60C60
E71CE0
E3FFE0
71F7C0
700000
3C0000
1F0000
0FFC00
03FC00
ENDCHAR
STARTCHAR 0041
ENCODING 65
SWIDTH 977 0
DWIDTH 19 0
BBX 15 19 2 0
BITMAP
1FF0
3FF8
701C
600C
E00E
E00E
E00E
E00E
E00E
E00E
FFFE
FFFE
E00E
E00E
E00E
E00E
E00E
E00E
600C
ENDCHAR
STARTCHAR 0042
ENCODING 66
SWIDTH 977 0
DWIDTH 19 0
BBX 15 19 2 0
BITMAP
7FF0
FFF8
E01C
E00C
E00E
E00E
E00E
E00C
FFFC
FFF8
FFFC
E00C
E00E
E00E
E00E
E00C
E01C
FFF8
7FF0
ENDCHAR
STARTCHAR 0043
ENCODING 67
SWIDTH 977 0
DWIDTH 19 0
BBX 15 19 2 0
BITMAP
1FF0
3FF8
701C
600C
E00E
E004
E000
E000
E000
E000
E000
E000
E000
E004
E00E
600C
701C
3FF8
1FF0
ENDCHAR
STARTCHAR 0044
ENCODING 68
SWIDTH 977 0
DWIDTH 19 0
BBX 15 19 2 0
BITMAP
7FF0
FFF8
E01C
E00C
E00E
E00E
E00E
E00E
E00E
E00E
E00E
E00E
E00E
E00E
E00E
E00C
E01C
FFF8
7FF0
ENDCHAR
STARTCHAR 0045
ENCODING 69
SWIDTH 977 0
DWIDTH 19 0
BBX 15 19 2 0
BITMAP
7FFC
FFFE
E000
E000
E000
E000
E000
E000
FFF0
FFF0
FFF0
E000
E000
E000
E000
E000
E000
FFFE
7FFC
ENDCHAR
STARTCHAR 0046
ENCODING 70
SWIDTH 977 0
DWIDTH 19 0
BBX 15 19 2 0
BITMAP
7FFC
FFFE
E000
E000
E000
E000
E000
E000
FFF0
FFF0
FFF0
E000
E000
E000
E000
E000
E000
E000
6000
ENDCHAR
STARTCHAR 0047
ENCODING 71
SWIDTH 977 0
DWIDTH 19 0
BBX 15 19 2 0
BITMAP
1FF0
3FF8
701C
600C
E00E
E004
E000
E000
E000
E078
E0FE
E0FE
E00E
E00E
E00E
600C
701C
3FF8
1FF0
ENDCHAR
STARTCHAR 0048
ENCODING 72
SWIDTH 977 0
DWIDTH 19 0
BBX 15 19 2 0
BITMAP
600C
E00E
E00E
E00E
E00E
E00E
E00E
E00E
FFFE
FFFE
FFFE
E00E
E00E
E00E
E00E
E00E
E00E
E00E
600C
ENDCHAR
STARTCHAR 0049
ENCODING 73
SWIDTH 617 0
DWIDTH 12 0
BBX 7 19 2 0
BITMAP
7E
FE
18
18
18
18
18
18
18
18
18
18
18
18
18
18
18
FE
7E
ENDCHAR
STARTCHAR 004A
ENCODING 74
SWIDTH 977 0
DWIDTH 19 0
BBX 15 19 2 0
BITMAP
000C
000E
000E
000E
000E
000E
000E
000E
000E
000E
000E
000E
000E
400E
E00E
600C
701C
3FF8
1FF0
ENDCHAR
STARTCHAR 004B
ENCODING 75
SWIDTH 977 0
DWIDTH 19 0
BBX 15 19 2 0
BITMAP
600C
E00E
E00E
E00E
E00E
E00E
E00E
E00C
FFFC
FFF8
FFFC
E00C
E00E
E00E
E00E
E00E
E00E
E00E
600C
ENDCHAR
STARTCHAR 004C
ENCODING 76
SWIDTH 977 0
DWIDTH 19 0
BBX 15 19 2 0
BITMAP
6000
E000
E000
E000
E000
E000
E000
E000
E000
E000
E000
E000
E000
E000
E000
E000
E000
FFFE
7FFC
ENDCHAR
STARTCHAR 004D
ENCODING 77
SWIDTH 977 0
DWIDTH 19 0
BBX 15 19 2 0
BITMAP
600C
E00E
F01E
F83E
F83E
FC7E
EEEE
E7CE
E7CE
E38E
E10E
E00E
E00E
E00E
E00E
E00E
E00E
E00E
600C
ENDCHAR
STARTCHAR 004E
ENCODING 78
SWIDTH 977 0
DWIDTH 19 0
BBX 15 19 2 0
BITMAP
600C
E00E
F00E
F80E
F80E
FC0E
EE0E
E70E
E70E
E38E
E1CE
E1CE
E0EE
E07E
E03E
E03E
E01E
E00E
600C
ENDCHAR
STARTCHAR 004F
ENCODING 79
SWIDTH 977 0
DWIDTH 19 0
BBX 15 19 2 0
BITMAP
1FF0
3FF8
701C
600C
E00E
E00E
E00E
E00E
E00E
E00E
E00E
E00E
E00E
E00E
E00E
600C
701C
3FF8
1FF0
ENDCHAR
STARTCHAR 0050
ENCODING 80
SWIDTH 977 0
DWIDTH 19 0
BBX 15 19 2 0
BITMAP
7FF0
FFF8
E01C
E00C
E00E
E00E
E00E
E00E
E00C
E03C
FFF8
FFF0
E000
E000
E000
E000
E000
E000
6000
ENDCHAR
STARTCHAR 0051
ENCODING 81
SWIDTH 977 0
DWIDTH 19 0
BBX 15 19 2 0
BITMAP
1FF0
3FF8
701C
600C
E00E
E00E
E00E
E00E
E00E
E00E
E00E
E00E
E0CE
E0EE
E07E
603C
701C
3FFE
1FF4
ENDCHAR
STARTCHAR 0052
ENCODING 82
SWIDTH 977 0
DWIDTH 19 0
BBX 15 19 2 0
BITMAP
7FF0
FFF8
E01C
E00C
E00E
E00E
E00E
E00E
E00C
E03C
FFF8
FFFC
E01C
E00E
E00E
E00E
E00E
E00E
600C
ENDCHAR
STARTCHAR 0053
ENCODING 83
SWIDTH 977 0
DWIDTH 19 0
BBX 15 19 2 0
BITMAP
1FF0
3FF8
701C
600C
E00E
E004
E000
6000
7FE0
3FF8
0FFC
000C
000E
400E
E00E
600C
701C
3FF8
1FF0
ENDCHAR
STARTCHAR 0054
ENCODING 84
SWIDTH 977 0
DWIDTH 19 0
BBX 15 19 2 0
BITMAP
7FFC
FFFE
0380
0380
0380
0380
0380
0380
0380
0380
0380
0380
0380
0380
0380
0380
0380
0380
0100
ENDCHAR
STARTCHAR 0055
ENCODING 85
SWIDTH 977 0
DWIDTH 19 0
BBX 15 19 2 0
BITMAP
600C
E00E
E00E
E00E
E00E
E00E
E00E
E00E
E00E
E00E
E00E
E00E
E00E
E00E
E00E
600C
701C
3FF8
1FF0
ENDCHAR
STARTCHAR 0056
ENCODING 86
SWIDTH 977 0
DWIDTH 19 0
BBX 15 19 2 0
BITMAP
600C
E00E
E00E
E00E
E00E
E00E
E00E
E00E
E00E
E00E
E00E
E00E
701C
3838
1C70
0EE0
07C0
0380
0100
ENDCHAR
STARTCHAR 0057
ENCODING 87
SWIDTH 977 0
DWIDTH 19 0
BBX 15 19 2 0
BITMAP
610C
E38E
E38E
E38E
E38E
E38E
E38E
E38E
E38E
E38E
E38E
E38E
E38E
E38E
E38E
638C
739C
3FF8
1FF0
ENDCHAR
STARTCHAR 0058
ENCODING 88
SWIDTH 977 0
DWIDTH 19 0
BBX 15 19 2 0
BITMAP
600C
E00E
701C
3838
3838
1C70
0EE0
07C0
07C0
0380
07C0
07C0
0EE0
1C70
1838
3838
701C
E00E
600C
ENDCHAR
STARTCHAR 0059
ENCODING 89
SWIDTH 977 0
DWIDTH 19 0
BBX 15 19 2 0
BITMAP
600C
E00E
E00E
E00E
E00E
E00E
E00E
E00E
600E
783E
3FFE
1FFE
000E
000E
000E
000C
001C
1FF8
1FF0
ENDCHAR
STARTCHAR 005A
ENCODING 90
SWIDTH 977 0
DWIDTH 19 0
BBX 15 19 2 0
BITMAP
7FFC
FFFE
001C
0038
0038
0070
00E0
01C0
01C0
0380
0700
0700
0E00
1C00
3800
3800
7000
FFFE
7FFC
ENDCHAR
STARTCHAR 0061
ENCODING 97
SWIDTH 977 0
DWIDTH 19 0
BBX 15 19 2 0
BITMAP
1FF0
3FF8
701C
600C
E00E
E00E
E00E
E00E
E00E
E00E
FFFE
FFFE
E00E
E00E
E00E
E00E
E00E
E00E
600C
ENDCHAR
STARTCHAR 0062
ENCODING 98
SWIDTH 977 0
DWIDTH 19 0
BBX 15 19 2 0
BITMAP
7FF0
FFF8
E01C
E00C
E00E
E00E
E00E
E00C
FFFC
FFF8
FFFC
E00C
E00E
E00E
E00E
E00C
E01C
FFF8
7FF0
ENDCHAR
STARTCHAR 0063
ENCODING 99
SWIDTH 977 0
DWIDTH 19 0
BBX 15 19 2 0
BITMAP
1FF0
3FF8
701C
600C
E00E
E004
E000
E000
E000
E000
E000
E000
E000
E004
E00E
600C
701C
3FF8
1FF0
ENDCHAR
STARTCHAR 0064
ENCODING 100
SWIDTH 977 0
DWIDTH 19 0
BBX 15 19 2 0
BITMAP
7FF0
FFF8
E01C
E00C
E00E
E00E
E00E
E00E
E00E
E00E
E00E
E00E
E00E
E00E
E00E
E00C
E01C
FFF8
7FF0
ENDCHAR
STARTCHAR 0065
ENCODING 101
SWIDTH 977 0
DWIDTH 19 0
BBX 15 19 2 0
BITMAP
7FFC
FFFE
E000
E000
E000
E000
E000
E000
FFF0
FFF0
FFF0
E000
E000
E000
E000
E000
E000
FFFE
7FFC
ENDCHAR
STARTCHAR 0066
ENCODING 102
SWIDTH 977 0
DWIDTH 19 0
BBX 15 19 2 0
BITMAP
7FFC
FFFE
E000
E000
E000
E000
E000
E000
FFF0
FFF0
FFF0
E000
E000
E000
E000
E000
E000
E000
6000
ENDCHAR
STARTCHAR 0067
ENCODING 103
SWIDTH 977 0
DWIDTH 19 0
BBX 15 19 2 0
BITMAP
1FF0
3FF8
701C
600C
E00E
E004
E000
E000
E000
E078
E0FE
E0FE
E00E
E00E
E00E
600C
701C
3FF8
1FF0
ENDCHAR
STARTCHAR 0068
ENCODING 104
SWIDTH 977 0
DWIDTH 19 0
BBX 15 19 2 0
BITMAP
600C
E00E
E00E
E00E
E00E
E00E
E00E
E00E
FFFE
FFFE
FFFE
E00E
E00E
E00E
E00E
E00E
E00E
E00E
600C
ENDCHAR
STARTCHAR 0069
ENCODING 105
SWIDTH 617 0
DWIDTH 12 0
BBX 7 19 2 0
BITMAP
7E
FE
18
18
18
18
18
18
18
18
18
18
18
18
18
18
18
FE
7E
ENDCHAR
STARTCHAR 006A
ENCODING 106
SWIDTH 977 0
DWIDTH 19 0
BBX 15 19 2 0
BITMAP
000C
000E
000E
000E
000E
000E
000E
000E
000E
000E
000E
000E
000E
400E
E00E
600C
701C
3FF8
1FF0
ENDCHAR
STARTCHAR 006B
ENCODING 107
SWIDTH 977 0
DWIDTH 19 0
BBX 15 19 2 0
BITMAP
600C
E00E
E00E
E00E
E00E
E00E
E00E
E00C
FFFC
FFF8
FFFC
E00C
E00E
E00E
E00E
E00E
E00E
E00E
600C
ENDCHAR
STARTCHAR 006C
ENCODING 108
SWIDTH 977 0
DWIDTH 19 0
BBX 15 19 2 0
BITMAP
6000
E000
E000
E000
E000
E000
E000
E000
E000
E000
E000
E000
E000
E000
E000
E000
E000
FFFE
7FFC
ENDCHAR
STARTCHAR 006D
ENCODING 109
SWIDTH 977 0
DWIDTH 19 0
BBX 15 19 2 0
BITMAP
600C
E00E
F01E
F83E
F83E
FC7E
EEEE
E7CE
E7CE
E38E
E10E
E00E
E00E
E00E
E00E
E00E
E00E
E00E
600C
ENDCHAR
STARTCHAR 006E
ENCODING 110
SWIDTH 977 0
DWIDTH 19 0
BBX 15 19 2 0
BITMAP
600C
E00E
F00E
F80E
F80E
FC0E
EE0E
E70E
E70E
E38E
E1CE
E1CE
E0EE
E07E
E03E
E03E
E01E
E00E
600C
ENDCHAR
STARTCHAR 006F
ENCODING 111
SWIDTH 977 0
DWIDTH 19 0
BBX 15 19 2 0
BITMAP
1FF0
3FF8
701C
600C
E00E
E00E
E00E
E00E
E00E
E00E
E00E
E00E
E00E
E00E
E00E
600C
701C
3FF8
1FF0
ENDCHAR
STARTCHAR 0070
ENCODING 112
SWIDTH 977 0
DWIDTH 19 0
BBX 15 19 2 0
BITMAP
7FF0
FFF8
E01C
E00C
E00E
E00E
E00E
E00E
E00C
E03C
FFF8
FFF0
E000
E000
E000
E000
E000
E000
6000
ENDCHAR
STARTCHAR 0071
ENCODING 113
SWIDTH 977 0
DWIDTH 19 0
BBX 15 19 2 0
BITMAP
1FF0
3FF8
701C
600C
E00E
E00E
E00E
E00E
E00E
E00E
E00E
E00E
E0CE
E0EE
E07E
603C
701C
3FFE
1FF4
ENDCHAR
STARTCHAR 0072
ENCODING 114
SWIDTH 977 0
DWIDTH 19 0
BBX 15 19 2 0
BITMAP
7FF0
FFF8
E01C
E00C
E00E
E00E
E00E
E00E
E00C
E03C
FFF8
FFFC
E01C
E00E
E00E
E00E
E00E
E00E
600C
ENDCHAR
STARTCHAR 0073
ENCODING 115
SWIDTH 977 0
DWIDTH 19 0
BBX 15 19 2 0
BITMAP
1FF0
3FF8
701C
600C
E00E
E004
E000
6000
7FE0
3FF8
0FFC
000C
000E
400E
E00E
600C
701C
3FF8
1FF0
ENDCHAR
STARTCHAR 0074
ENCODING 116
SWIDTH 977 0
DWIDTH 19 0
BBX 15 19 2 0
BITMAP
7FFC
FFFE
0380
0380
0380
0380
0380
0380
0380
0380
0380
0380
0380
0380
0380
0380
0380
0380
0100
ENDCHAR
STARTCHAR 0075
ENCODING 117
SWIDTH 977 0
DWIDTH 19 0
BBX 15 19 2 0
BITMAP
600C
E00E
E00E
E00E
E00E
E00E
E00E
E00E
E00E
E00E
E00E
E00E
E00E
E00E
E00E
600C
701C
3FF8
1FF0
ENDCHAR
STARTCHAR 0076
ENCODING 118
SWIDTH 977 0
DWIDTH 19 0
BBX 15 19 2 0
BITMAP
600C
E00E
E00E
E00E
E00E
E00E
E00E
E00E
E00E
E00E
E00E
E00E
701C
3838
1C70
0EE0
07C0
0380
0100
ENDCHAR
STARTCHAR 0077
ENCODING 119
SWIDTH 977 0
DWIDTH 19 0
BBX 15 19 2 0
BITMAP
610C
E38E
E38E
E38E
E38E
E38E
E38E
E38E
E38E
E38E
E38E
E38E
E38E
E38E
E38E
638C
739C
3FF8
1FF0
ENDCHAR
STARTCHAR 0078
ENCODING 120
SWIDTH 977 0
DWIDTH 19 0
BBX 15 19 2 0
BITMAP
600C
E00E
701C
3838
3838
1C70
0EE0
07C0
07C0
0380
07C0
07C0
0EE0
1C70
1838
3838
701C
E00E
600C
ENDCHAR
STARTCHAR 0079
ENCODING 121
SWIDTH 977 0
DWIDTH 19 0
BBX 15 19 2 0
BITMAP
600C
E00E
E00E
E00E
E00E
E00E
E00E
E00E
600E
783E
3FFE
1FFE
000E
000E
000E
000C
001C
1FF8
1FF0
ENDCHAR
STARTCHAR 007A
ENCODING 122
SWIDTH 977 0
DWIDTH 19 0
BBX 15 19 2 0
BITMAP
7FFC
FFFE
001C
0038
0038
0070
00E0
01C0
01C0
0380
0700
0700
0E00
1C00
3800
3800
7000
FFFE
7FFC
ENDCHAR
STARTCHAR 00A5
ENCODING 165
SWIDTH 977 0
DWIDTH 19 0
BBX 15 19 2 0
BITMAP
4004
E00E
701C
3838
1C70
0EE0
07C0
0380
0380
03E0
1FF0
1FF0
0380
1FF0
1FF0
0380
0380
0380
0100
ENDCHAR
STARTCHAR 00A9
ENCODING 169
SWIDTH 977 0
DWIDTH 19 0
BBX 19 19 0 0
BITMAP
03F800
0FFE00
1F1F00
3C0780
7001C0
71F1C0
E3F8E0
E71CE0
C60860
C60060
C60860
E71CE0
E3F8E0
71F1C0
7001C0
3C0780
1F1F00
0FFE00
03F800
ENDCHAR
STARTCHAR 00B6
ENCODING 182
SWIDTH 977 0
DWIDTH 19 0
BBX 19 19 0 0
BITMAP
0FFFE0
3FFFE0
7FC380
7FC380
FFC380
FFC380
FFC380
FFC380
7FC380
7FC380
3FC380
0FC380
01C380
01C380
01C380
01C380
01C380
01C380
018300
ENDCHAR
STARTCHAR 00D7
ENCODING 215
SWIDTH 977 0
DWIDTH 19 0
BBX 19 19 0 0
BITMAP
300180
7803C0
FC07E0
FE0FE0
7F1FC0
3FBF80
1FFF00
0FFE00
07FC00
03F800
07FC00
0FFE00
1FFF00
3FBF80
7F1FC0
FE0FE0
FC07E0
7803C0
300180
ENDCHAR
STARTCHAR 00F7
ENCODING 247
SWIDTH 977 0
DWIDTH 19 0
BBX 19 19 0 0
BITMAP
01F000
01F000
01F000
01F000
00E000
000000
000000
FFFFE0
FFFFE0
FFFFE0
FFFFE0
FFFFE0
000000
000000
00E000
01F000
01F000
01F000
01F000
ENDCHAR
STARTCHAR 01C0
ENCODING 448
SWIDTH 977 0
DWIDTH 19 0
BBX 19 19 0 0
BITMAP
000400
000C00
000880
000880
000980
000980
000480
000480
000000
4003C0
FE07E0
0787E0
0387E0
01E7E0
00FFE0
007FE0
003FC0
001FC0
000F00
ENDCHAR
STARTCHAR 02DA
ENCODING 730
SWIDTH 977 0
DWIDTH 19 0
BBX 17 19 1 0
BITMAP
03E000
07F000
01C000
0FF800
1FFC00
3C1E00
700700
600300
E00380
E00380
E00380
E00380
E00380
600300
700700
380E00
1E3C00
0FF800
03E000
ENDCHAR
STARTCHAR 2020
ENCODING 8224
SWIDTH 977 0
DWIDTH 19 0
BBX 19 18 0 1
BITMAP
800000
600000
700000
380000
3E0000
1F0000
0F8000
0FC000
07E000
01F800
00F800
007C00
00CE00
000700
000380
0001C0
0000E0
000040
ENDCHAR
STARTCHAR 2040
ENCODING 8256
SWIDTH 977 0
DWIDTH 19 0
BBX 7 19 6 0
BITMAP
FE
7E
7C
38
38
38
38
3C
7C
7C
7C
7C
7E
FE
FE
FE
7C
38
10
ENDCHAR
STARTCHAR 20AC
ENCODING 8364
SWIDTH 977 0
DWIDTH 19 0
BBX 17 19 1 0
BITMAP
01F000
07FC00
0F9E00
0E0700
1C0300
180380
FFC180
FFC000
180000
180000
180000
FFC000
FFC180
180380
1C0300
0E0700
0F9E00
07FC00
01F000
ENDCHAR
STARTCHAR 21B8
ENCODING 8632
SWIDTH 977 0
DWIDTH 19 0
BBX 19 19 0 1
BITMAP
00E000
01F000
03F800
07FC00
0FFE00
1FFF00
3FFF80
7FFFC0
FFFFE0
FFFFE0
7FFFC0
3FFF80
3FFF80
3E0F80
3E0F80
3E0F80
3E0F80
3E0F80
1E0F00
ENDCHAR
STARTCHAR 21EA
ENCODING 8682
SWIDTH 977 0
DWIDTH 19 0
BBX 17 19 1 0
BITMAP
008000
01C000
03E000
07F000
0FF800
1FFC00
3FFE00
7FFF00
FFFF80
7FFF00
0FF800
0FF800
0FF800
0FF800
000000
07F000
0FF800
0FF800
0FF800
ENDCHAR
STARTCHAR 2207
ENCODING 8711
SWIDTH 977 0
DWIDTH 19 0
BBX 19 19 0 0
BITMAP
7FFFC0
FFFFE0
E0D7E0
C0D7E0
C16FE0
C0D7E0
C16FE0
C0D7E0
C16FE0
C1FFE0
C0D7E0
C16FE0
C0D7E0
C16FE0
C0D7E0
C16FE0
E16FE0
FFFFE0
7FFFC0
ENDCHAR
STARTCHAR 2212
ENCODING 8722
SWIDTH 977 0
DWIDTH 19 0
BBX 19 5 0 7
BITMAP
FFFFE0
FFFFE0
FFFFE0
FFFFE0
FFFFE0
ENDCHAR
STARTCHAR 221E
ENCODING 8734
SWIDTH 977 0
DWIDTH 19 0
BBX 19 9 0 5
BITMAP
3E0F80
7F1FC0
E3B8E0
E1F0E0
C0E060
E1F0E0
E3B8E0
7F1FC0
3E0F80
ENDCHAR
STARTCHAR 2229
ENCODING 8745
SWIDTH 977 0
DWIDTH 19 0
BBX 19 19 0 0
BITMAP
004000
00E000
1FFFC0
7FFFE0
FFFFE0
7FFFE0
3FFFE0
00E000
7FFF00
FFFFC0
FFFFE0
FFFFC0
FFFF80
00E000
00E000
00E000
00E000
00E000
004000
ENDCHAR
STARTCHAR 22B7
ENCODING 8887
SWIDTH 977 0
DWIDTH 19 0
BBX 19 19 0 1
BITMAP
FFFFE0
800020
8C0020
9E0020
BE0020
BE0020
9C0620
800F20
801FA0
803FA0
8E7FA0
9F3FA0
BF9FA0
BFCFA0
800020
FFFFE0
FFFFE0
FFFFE0
FFFFE0
ENDCHAR
STARTCHAR 22D4
ENCODING 8916
SWIDTH 977 0
DWIDTH 19 0
BBX 19 19 0 -1
BITMAP
060000
070000
138000
39C000
1CE000
CE6000
E77000
73F000
39F000
1FF000
0FF800
03FC00
003E00
001F00
000FC0
0007E0
0003E0
0003E0
0001C0
ENDCHAR
STARTCHAR 2407
ENCODING 9223
SWIDTH 977 0
DWIDTH 19 0
BBX 19 19 0 0
BITMAP
004000
01F000
07FC00
0FFE00
1FFF00
1FFF00
1FFF00
3FFF80
3FFF80
3FFF80
3FFF80
3FFF80
3FFF80
3FFF80
7FFFC0
FFFFE0
FFFFE0
FFFFE0
00E000
ENDCHAR
STARTCHAR 2441
ENCODING 9281
SWIDTH 977 0
DWIDTH 19 0
BBX 19 16 0 1
BITMAP
0FFE00
0FFE00
0FFE00
0FFE00
0FFE00
47FC40
E7FCE0
E3F8E0
F001E0
F7FDE0
F7FDE0
F001E0
F7FDE0
F7FDE0
F7FDE0
67FCC0
ENDCHAR
STARTCHAR 25AD
ENCODING 9645
SWIDTH 977 0
DWIDTH 19 0
BBX 19 19 0 0
BITMAP
FFFFE0
800020
800020
800020
800020
800020
800020
800020
800020
800020
800020
800020
800020
800020
800020
800020
800020
800020
FFFFE0
ENDCHAR
STARTCHAR 25B3
ENCODING 9651
SWIDTH 977 0
DWIDTH 19 0
BBX 19 19 0 0
BITMAP
000020
000060
0000E0
0001E0
0003E0
0007E0
000FE0
001FE0
003FE0
007DE0
00F9E0
01F1E0
03E1E0
07C1E0
0F81E0
1FFFE0
3FFFE0
7BDDE0
CAD5A0
ENDCHAR
STARTCHAR 262F
ENCODING 9775
SWIDTH 977 0
DWIDTH 19 0
BBX 19 19 0 1
BITMAP
03F800
0FFE00
1F7F00
3DFF80
73FFC0
731FC0
E31FE0
E3FFE0
C1FFE0
C07FE0
C00FE0
E007E0
E0E7E0
70E7C0
7007C0
3C0F80
1F3F00
0FFE00
03F800
ENDCHAR
STARTCHAR 263A
ENCODING 9786
SWIDTH 977 0
DWIDTH 19 0
BBX 19 19 0 0
BITMAP
03F800
0FFE00
1FFF00
3FFF80
7FFFC0
71F1C0
F1F1E0
F1F1E0
F1F1E0
FFFFE0
FFFFE0
FFFFE0
F001E0
77FDC0
7BFBC0
3C0780
1F1F00
0FFE00
03F800
ENDCHAR
STARTCHAR 263C
ENCODING 9788
SWIDTH 977 0
DWIDTH 19 0
BBX 19 19 0 0
BITMAP
03F800
0FFE00
1F1F00
3C0780
7001C0
7001C0
E000E0
E000E0
C3C060
C1F060
C07860
E000E0
E000E0
7001C0
7001C0
3C0780
1F1F00
0FFE00
03F800
ENDCHAR
STARTCHAR 2666
ENCODING 9830
SWIDTH 977 0
DWIDTH 19 0
BBX 19 17 0 1
BITMAP
2F5E80
2F5E80
76EDC0
76EDC0
F9F3E0
000000
FBFBE0
7BFBC0
3DF780
1DF700
1DF700
0EEE00
06EC00
02E800
015000
015000
004000
ENDCHAR
STARTCHAR 2713
ENCODING 10003
SWIDTH 977 0
DWIDTH 19 0
BBX 19 16 0 1
BITMAP
000080
0001C0
0003E0
0007E0
000FC0
001F80
003F00
307E00
78FC00
FDF800
FFF000
7FE000
3FC000
1F8000
0F0000
060000
ENDCHAR
STARTCHAR E000
ENCODING 57344
SWIDTH 977 0
DWIDTH 19 0
BBX 19 17 0 1
BITMAP
7FFFC0
FFFFE0
FFFFE0
E00060
CFFFE0
CFFFE0
CFFFE0
CFFFE0
CFFFE0
CC7FE0
CC7FE0
EC7FE0
FFFFE0
FFFFE0
0FFFE0
0FFFE0
07FFC0
ENDCHAR
STARTCHAR F000
ENCODING 61440
SWIDTH 977 0
DWIDTH 19 0
BBX 19 19 0 0
BITMAP
001C00
001E00
011F80
0F1F80
1F1FC0
3F1FE0
7F1FE0
7F1FE0
FF0000
FF0000
FF0000
FFFF80
FFFF00
FFFF00
7FFF00
3FFE00
3FFC00
0FF800
07E000
ENDCHAR
STARTCHAR F001
ENCODING 61441
SWIDTH 977 0
DWIDTH 19 0
BBX 19 19 0 0
BITMAP
03F800
0FFE00
1F7F00
3C7F80
707FC0
707FC0
E07FE0
E07FE0
C07FE0
C07FE0
FFFFE0
E01FE0
E00FE0
7007C0
7003C0
3C0780
1F1F00
0FFE00
03F800
ENDCHAR
STARTCHAR F002
ENCODING 61442
SWIDTH 977 0
DWIDTH 19 0
BBX 18 18 1 0
BITMAP
0A5400
0AD400
0AD400
000000
EFFCC0
0FFC00
EFFCC0
0FFC00
6FFC80
EFFCC0
0FFC00
EFFCC0
0FFC00
EFFCC0
000000
000000
0AD400
0A5400
ENDCHAR
STARTCHAR F003
ENCODING 61443
SWIDTH 977 0
DWIDTH 19 0
BBX 19 19 0 0
BITMAP
06EC00
06EC00
000000
000000
0FFE00
CFFE60
CFFE60
0FFE00
CFFE60
CFFE60
CFFE60
0FFE00
CFFE60
CFFE60
0FFE00
000000
000000
06EC00
06EC00
ENDCHAR
STARTCHAR F004
ENCODING 61444
SWIDTH 977 0
DWIDTH 19 0
BBX 19 19 0 0
BITMAP
7FFFE0
7FFFE0
F000E0
F00060
F7FE60
F7FE60
F7FE60
778E60
77A660
777660
77A660
778E60
F7FE60
F7FE60
F7FE60
F00060
F000E0
7FFFE0
7FFFE0
ENDCHAR
STARTCHAR F005
ENCODING 61445
SWIDTH 977 0
DWIDTH 19 0
BBX 19 19 0 0
BITMAP
FFFFE0
FFFFE0
E000E0
C00060
CFFE60
83FE60
BBFE60
838E60
CFA660
CF7660
CFA660
838E60
BBFE60
83FE60
CFFE60
C00060
E000E0
FFFFE0
FFFFE0
ENDCHAR
STARTCHAR F006
ENCODING 61446
SWIDTH 977 0
DWIDTH 19 0
BBX 19 19 0 0
BITMAP
03F800
0FFE00
1F1F00
3F1F80
7111C0
7001C0
F001E0
F80BE0
C01860
C01060
C03060
F833E0
F061E0
73F9C0
7FBFC0
3F1F80
1FBF00
0FFE00
03F800
ENDCHAR
STARTCHAR F007
ENCODING 61447
SWIDTH 977 0
DWIDTH 19 0
BBX 19 19 0 0
BITMAP
01F000
03F800
07FC00
07F800
07E000
07DF00
07FF80
33FFC0
7DFFC0
7FFFC0
7FFFC0
3FFF80
1FFF00
000000
7FFFC0
EF00E0
C60060
EF00E0
7FFFC0
ENDCHAR
STARTCHAR F008
ENCODING 61448
SWIDTH 977 0
DWIDTH 19 0
BBX 19 19 0 0
BITMAP
7FFFC0
FFFFE0
EFBEE0
C71C60
C71C60
831C60
BB1C60
BB1860
831B20
C71BA0
C71B20
C71860
C60C60
C6EC60
C6EC60
C60C60
EF1EE0
FFFFE0
7FFFC0
ENDCHAR
STARTCHAR F009
ENCODING 61449
SWIDTH 977 0
DWIDTH 19 0
BBX 19 19 0 0
BITMAP
7FFFC0
FFFFE0
F87FE0
F87FE0
C30060
F87FE0
FFFFE0
FFFFE0
FFC3E0
E013E0
E018E0
FFC3E0
FFFFE0
FFFFE0
C1CC60
C1CC60
E1CCE0
FFFFE0
7FFFC0
ENDCHAR
STARTCHAR F00A
ENCODING 61450
SWIDTH 977 0
DWIDTH 19 0
BBX 19 19 0 0
BITMAP
7FFFC0
DFFF60
8F1E20
DC0760
F209E0
F61DE0
EE1EE0
E7F0E0
C1F060
C1F060
C1F060
E1FCE0
EF0EE0
F70DE0
F209E0
DC0760
8F1E20
DFFF60
7FFFC0
ENDCHAR
STARTCHAR F00B
ENCODING 61451
SWIDTH 977 0
DWIDTH 19 0
BBX 19 19 0 0
BITMAP
0FFE00
7FFFC0
FFFFE0
7FFFC0
07FC00
F001E0
FFFFE0
FFFFE0
3FFF80
804020
FC07E0
FFFFE0
FFFFE0
1FFF00
C00060
FFFFE0
FFFFE0
7FFFC0
0FFE00
ENDCHAR
STARTCHAR F00C
ENCODING 61452
SWIDTH 977 0
DWIDTH 19 0
BBX 19 19 0 0
BITMAP
0FFE00
7FFFC0
FFFFE0
7FFFC0
07FC00
F001E0
FFFFE0
FFFFE0
3FBF80
811020
FD17E0
FF1FE0
F803E0
180300
CF1E60
FF1FE0
FF1FE0
7FBFC0
0FFE00
ENDCHAR
STARTCHAR F00D
ENCODING 61453
SWIDTH 977 0
DWIDTH 19 0
BBX 19 19 0 0
BITMAP
0FFE00
7FFFC0
FFFFE0
7FFFC0
07FC00
F001E0
FFFFE0
FFFFE0
3FFF80
87FC20
FC47E0
FC07E0
FE0FE0
1E0F00
C40460
FC47E0
FEEFE0
7FFFC0
0FFE00
ENDCHAR
STARTCHAR F00E
ENCODING 61454
SWIDTH 977 0
DWIDTH 19 0
BBX 19 19 0 0
BITMAP
7001C0
FFFFE0
FFFFE0
FFFFE0
7FFFC0
4AEA40
4AEA40
4AEA40
4AEA40
7FFFC0
7FFFC0
7FFFC0
620040
43FFC0
620040
FFFFE0
FFFFE0
FFFFE0
7001C0
ENDCHAR
STARTCHAR F00F
ENCODING 61455
SWIDTH 977 0
DWIDTH 19 0
BBX 19 19 0 0
BITMAP
00F000
01F000
01F000
73F9C0
7FFFC0
FFFFE0
7F1FC0
3E0F80
3C0780
3C0780
3C0780
3E0F80
7F1FC0
FFFFE0
7FFFC0
73F9C0
01F000
01F000
01E000
ENDCHAR
STARTCHAR F010
ENCODING 61456
SWIDTH 977 0
DWIDTH 19 0
BBX 19 19 0 1
BITMAP
031800
031800
071C00
060C00
0E0E00
0C0600
080200
E3F8E0
FFFFE0
7FFFC0
000000
7FFFC0
7FFFC0
3FFF80
3FFF80
3FFF80
3FFF80
3FFF80
1FFF00
ENDCHAR
STARTCHAR F011
ENCODING 61457
SWIDTH 977 0
DWIDTH 19 0
BBX 19 19 0 0
BITMAP
FFFFE0
FE0FE0
FE0FE0
FE0FE0
FE0FE0
FE0FE0
FE0FE0
FFFFE0
FFFFE0
FFFFE0
FFFFE0
FFFFE0
FFB860
FE08E0
FF1DE0
FF18E0
FFB8E0
FFFFE0
FFFFE0
ENDCHAR
STARTCHAR F012
ENCODING 61458
SWIDTH 977 0
DWIDTH 19 0
BBX 17 19 1 0
BITMAP
FFFF80
FFFF80
E00380
E00380
E00380
E1C380
E1C380
E00380
FFFF80
FFFF80
FFFF80
E00380
E00380
E08380
E1C380
E00380
E00380
FFFF80
FFFF80
ENDCHAR
STARTCHAR F013
ENCODING 61459
SWIDTH 977 0
DWIDTH 19 0
BBX 19 19 0 0
BITMAP
03F800
0FFE00
1F1F00
3C0780
7803C0
7DF3C0
FFF3E0
FF83E0
FF07E0
FF1FE0
FF1FE0
7FFFC0
7F1FC0
3F1F80
1FFF00
1FFC00
0EE000
1C0000
100000
ENDCHAR
STARTCHAR F014
ENCODING 61460
SWIDTH 977 0
DWIDTH 19 0
BBX 19 19 0 0
BITMAP
03F800
0E0E00
1E0F00
3E0F80
7E0FC0
7FFFC0
FF1FE0
860C20
840420
840420
840420
860C20
FF1FE0
7FFFC0
7E0FC0
3E0F80
1E0F00
0E0E00
03F800
ENDCHAR
STARTCHAR F015
ENCODING 61461
SWIDTH 977 0
DWIDTH 19 0
BBX 19 19 0 0
BITMAP
3BFB80
4E0E40
9E0F20
BE0FA0
FE0FE0
7FFFC0
FF1FE0
860C20
840420
840420
840420
860C20
FF1FE0
7FFFC0
FE0FE0
BE0FA0
9E0F20
4E0E40
3BFB80
ENDCHAR
STARTCHAR F016
ENCODING 61462
SWIDTH 977 0
DWIDTH 19 0
BBX 19 19 0 0
BITMAP
FF0000
FE0000
FC0000
F80000
810000
C33FE0
E73FE0
FF0000
000000
000000
000000
FF0000
FE0000
FC0000
D83FE0
813FE0
C33FC0
E70000
FF0000
ENDCHAR
STARTCHAR F017
ENCODING 61463
SWIDTH 977 0
DWIDTH 19 0
BBX 19 19 0 0
BITMAP
03F800
0FFE00
1F1F00
3F1F80
7111C0
7005C0
F019E0
F83BE0
C07060
C0E060
C04060
F803E0
F001E0
7001C0
7111C0
3F1F80
1F1F00
0FFE00
03F800
ENDCHAR
STARTCHAR F018
ENCODING 61464
SWIDTH 977 0
DWIDTH 19 0
BBX 19 19 0 0
BITMAP
0FFE00
3FFF80
7FFFC0
3FFF80
03F800
B80380
8FFE00
E000E0
3FFE60
0000E0
580FC0
43FE00
F800C0
9FFF00
C00080
7FFE40
03E0C0
300780
0FFE00
ENDCHAR
STARTCHAR F019
ENCODING 61465
SWIDTH 977 0
DWIDTH 19 0
BBX 19 19 0 0
BITMAP
FF1FE0
FF1FE0
FF1FE0
FF1FE0
FF1FE0
FF1FE0
FF1FE0
FF1FE0
000000
000000
000000
FF1FE0
FF1FE0
FF1FE0
FF1FE0
FF1FE0
FF1FE0
FF1FE0
FF1FE0
ENDCHAR
STARTCHAR F01A
ENCODING 61466
SWIDTH 977 0
DWIDTH 19 0
BBX 19 19 0 0
BITMAP
7FFFC0
FFFFE0
FFFFE0
FFFFE0
F001E0
F001E0
0001E0
F001E0
F001E0
F001E0
F001E0
F001E0
F001E0
F001E0
F001E0
FF3FE0
FF7FE0
FF7FE0
7F3FC0
ENDCHAR
STARTCHAR F01B
ENCODING 61467
SWIDTH 977 0
DWIDTH 19 0
BBX 19 19 0 0
BITMAP
03F800
0FFE00
1F9F00
3C2780
7007C0
783FC0
F01FE0
E034E0
E01260
E00460
F03C60
E07FE0
E0FFE0
70FFC0
70FFC0
3C7F80
1F1F00
0FFE00
03F800
ENDCHAR
STARTCHAR F01C
ENCODING 61468
SWIDTH 977 0
DWIDTH 19 0
BBX 19 19 0 0
BITMAP
03B800
0F3E00
077F00
337F80
407FC0
1C0780
FC3020
FE9C20
4ECC00
06ECC0
86F5E0
C271E0
F871E0
7C0000
7E71C0
3F7580
1F7500
0F3400
03B000
ENDCHAR
STARTCHAR F01D
ENCODING 61469
SWIDTH 977 0
DWIDTH 19 0
BBX 19 17 0 1
BITMAP
091200
000000
000000
000000
671CC0
E71CE0
C71C60
000000
000000
000000
C71C60
E71CE0
671CC0
000000
000000
000000
091200
ENDCHAR
STARTCHAR F01E
ENCODING 61470
SWIDTH 977 0
DWIDTH 19 0
BBX 19 19 0 0
BITMAP
3C0780
7E0FC0
7E0FC0
7E0FC0
7E0FC0
3C0780
180300
7E0FC0
FF1FE0
000000
000000
380380
380380
380380
380380
380380
380380
1FFF00
1FFF00
ENDCHAR
STARTCHAR F01F
ENCODING 61471
SWIDTH 977 0
DWIDTH 19 0
BBX 19 19 0 0
BITMAP
019800
0DCE00
1C0300
300180
6000C0
41C0C0
C1C060
81C060
81C060
81C0E0
81C0E0
C1C1C0
C1C3C0
61C380
700300
380000
1E3800
0FF800
03F800
ENDCHAR
STARTCHAR F020
ENCODING 61472
SWIDTH 977 0
DWIDTH 19 0
BBX 19 19 0 0
BITMAP
FFFFE0
7FFFE0
3FFFE0
1FFFE0
0FFFE0
0003E0
0803E0
1803E0
3803E0
7803E0
F803E0
F803E0
F803E0
F803E0
FFFBE0
FFF1E0
FFE0E0
FFC060
FF8020
ENDCHAR
STARTCHAR F021
ENCODING 61473
SWIDTH 977 0
DWIDTH 19 0
BBX 19 19 0 0
BITMAP
FF3F00
FF7C00
FF7800
FF7200
FF0E00
001E00
FB3E00
FB7E00
FA7F00
FAFF00
F8F780
F1E7C0
01E7E0
FDC3E0
FDC1E0
FDC0E0
FCC0C0
FEE180
FF2100
ENDCHAR
STARTCHAR F022
ENCODING 61474
SWIDTH 977 0
DWIDTH 19 0
BBX 19 19 0 0
BITMAP
0E0000
1F0000
3B8000
71C000
E0E000
C06000
E30000
738000
39C600
1CE700
0C7380
0039C0
0018E0
00C060
00E0E0
0071C0
003B80
001F00
000E00
ENDCHAR
STARTCHAR F023
ENCODING 61475
SWIDTH 977 0
DWIDTH 19 0
BBX 19 19 0 0
BITMAP
7FFFC0
FFFFE0
E000E0
C00060
CFFE60
C9FE60
C90260
CFFE60
C00060
C00060
C00060
CFFE60
C9FE60
C90260
CFFE60
C00060
E000E0
FFFFE0
7FFFC0
ENDCHAR
STARTCHAR F024
ENCODING 61476
SWIDTH 977 0
DWIDTH 19 0
BBX 19 18 0 0
BITMAP
7FFFC0
FFFFE0
FFFFE0
C00060
CDFE60
EC00E0
FFFFE0
E000E0
C0FE60
CDFE60
EC00E0
FFFFE0
E000E0
C9FE60
CC0060
EC00E0
FFFFE0
7FFFC0
ENDCHAR
STARTCHAR F025
ENCODING 61477
SWIDTH 977 0
DWIDTH 19 0
BBX 19 19 0 0
BITMAP
7FFFC0
FFFFE0
EF00E0
C60060
EF00E0
FFFFE0
7FFFC0
00E000
00E000
00FFC0
FFFFE0
FFFFE0
000000
000000
03F800
1FFF00
3FFF80
1FFF00
07FC00
ENDCHAR
STARTCHAR F026
ENCODING 61478
SWIDTH 977 0
DWIDTH 19 0
BBX 11 19 4 0
BITMAP
FFE0
8020
8020
8020
FFE0
8020
8020
FFE0
8020
8020
8020
FFE0
FFE0
FFE0
FBE0
F1E0
FBE0
FFE0
FFE0
ENDCHAR
STARTCHAR F027
ENCODING 61479
SWIDTH 977 0
DWIDTH 19 0
BBX 19 19 0 0
BITMAP
FF1FE0
811020
811020
C11060
FF1FE0
811020
811020
FF1FE0
811020
811020
811020
FF1FE0
FF1FE0
FF1FE0
DF13E0
8F13E0
DF1BE0
FF1FE0
FF1FE0
ENDCHAR
STARTCHAR F028
ENCODING 61480
SWIDTH 977 0
DWIDTH 19 0
BBX 19 15 0 2
BITMAP
7FFFC0
BFFFA0
DFFF60
EFFEE0
F7FDE0
FBFBE0
FDF7E0
FEEFE0
FD57E0
FBBBE0
F7FDE0
EFFEE0
DFFF60
BFFFA0
7FFFC0
ENDCHAR
STARTCHAR F029
ENCODING 61481
SWIDTH 977 0
DWIDTH 19 0
BBX 19 19 0 0
BITMAP
7F0000
FF1FC0
001FC0
003FE0
FFFFE0
FFFFE0
FBF1E0
F1F1E0
E0E060
F0E0E0
F1F1E0
F1FBE0
FFFFE0
7FFFC0
00E000
00E000
00E000
07FC00
07FC00
ENDCHAR
STARTCHAR F02A
ENCODING 61482
SWIDTH 977 0
DWIDTH 19 0
BBX 17 19 1 0
BITMAP
7FFF00
FFFF80
FE3F80
F80F80
F00780
E00380
E1C380
E3E380
E3E380
E3E380
E08380
E00380
E00380
E00380
E00380
E00380
F00780
FFFF80
7FFF00
ENDCHAR
STARTCHAR F02B
ENCODING 61483
SWIDTH 977 0
DWIDTH 19 0
BBX 19 19 0 1
BITMAP
00E000
01F000
03F800
07BC00
0F1E00
1E0F00
3C0780
7803C0
F803E0
F803E0
7803C0
380380
380380
380380
380380
380380
380380
3FFF80
1FFF00
ENDCHAR
STARTCHAR F02C
ENCODING 61484
SWIDTH 977 0
DWIDTH 19 0
BBX 18 19 1 0
BITMAP
152B00
15AB00
15AB00
15AB00
000000
7FFF80
FFFFC0
842040
95AB40
95AB40
8C2B40
95AB40
FFFFC0
7FFF80
000000
15AB00
15AB00
15AB00
152B00
ENDCHAR
STARTCHAR F02D
ENCODING 61485
SWIDTH 977 0
DWIDTH 19 0
BBX 19 19 0 0
BITMAP
1FFF00
FFFFE0
FE0FE0
C00060
C00060
C00060
C00060
E000E0
E000E0
6000C0
6000C0
7001C0
300180
380380
1E0F00
0F1E00
07FC00
01F000
004000
ENDCHAR
STARTCHAR F02E
ENCODING 61486
SWIDTH 977 0
DWIDTH 19 0
BBX 19 19 0 0
BITMAP
004000
FFFFE0
FFFFE0
C67FE0
C07FE0
C07FE0
C07FE0
E07FE0
607FC0
607FC0
607FC0
707FC0
387F80
1C7F00
1E7F00
0F7E00
03F800
01F000
004000
ENDCHAR
STARTCHAR F02F
ENCODING 61487
SWIDTH 977 0
DWIDTH 19 0
BBX 19 19 0 0
BITMAP
01F000
01F000
01F000
01F000
01F000
01F7C0
01F7C0
01F7C0
01F7C0
39F7C0
7DF7C0
7DF7C0
7DF7C0
7DF7C0
7DF7C0
7DF7C0
7DF7C0
FFFFE0
FFFFE0
ENDCHAR
STARTCHAR F030
ENCODING 61488
SWIDTH 977 0
DWIDTH 19 0
BBX 19 19 0 1
BITMAP
7C0000
7C0000
7CE000
7DF000
7DF000
7DF7C0
7D83C0
7D3CC0
7C6640
7C8140
7D8100
7D0180
7D0180
7D8100
7C8300
7C7F80
7D19C0
FFC0E0
FFF840
ENDCHAR
STARTCHAR F031
ENCODING 61489
SWIDTH 977 0
DWIDTH 19 0
BBX 19 16 0 1
BITMAP
00E000
03F800
0C0600
087200
10F100
107100
3C0380
3F07C0
7F8FE0
FF8FE0
FF8FE0
FF8FE0
FF87C0
7FF800
7FE000
1C0000
ENDCHAR
STARTCHAR F032
ENCODING 61490
SWIDTH 977 0
DWIDTH 19 0
BBX 19 19 0 0
BITMAP
FF0000
FF8000
F3C000
E1E000
C1F000
C1F800
E3FC00
FFFE00
7FFF00
3FFF80
1FFFC0
0FFFE0
07FFE0
03FFC0
01FF80
00FF00
007E00
003C00
001800
ENDCHAR
STARTCHAR F033
ENCODING 61491
SWIDTH 977 0
DWIDTH 19 0
BBX 19 19 0 0
BITMAP
FDFFE0
FDFFE0
FDFFE0
FDFFE0
FDFFE0
FDFFE0
FC0000
FDFFE0
FDFFE0
FDC0E0
FDC060
FDC060
FDC060
FDC060
FDC060
FDC060
FDC0E0
FDFFE0
FDFFE0
ENDCHAR
STARTCHAR F034
ENCODING 61492
SWIDTH 977 0
DWIDTH 19 0
BBX 19 19 0 0
BITMAP
400C00
F01800
783000
783000
383000
043020
023860
013FC0
00FF80
01F800
03FC00
0FFF00
1FFF80
3F3FC0
7F1FE0
DE1FE0
8C0FE0
D807E0
7003C0
ENDCHAR
STARTCHAR F035
ENCODING 61493
SWIDTH 977 0
DWIDTH 19 0
BBX 19 19 0 0
BITMAP
0001E0
0003E0
000380
00FF00
3FFF00
FFFF00
FFFF00
7FFF00
7FFE00
7FFE00
7FFE00
3FFE00
3FFE00
3FFC00
000000
041000
0E3800
0E3800
0E3800
ENDCHAR
STARTCHAR F036
ENCODING 61494
SWIDTH 977 0
DWIDTH 19 0
BBX 19 19 0 -1
BITMAP
7F0000
FF1FC0
001FC0
003FE0
FFFFE0
FFFFE0
FFFFE0
FC47E0
F111E0
F319E0
FBFBE0
E1F0E0
CFBE60
4F1E40
0FBE00
03F800
01F000
03B800
031800
ENDCHAR
STARTCHAR F037
ENCODING 61495
SWIDTH 977 0
DWIDTH 19 0
BBX 19 19 0 0
BITMAP
004000
00E000
3FFF80
FFFFE0
FFFFE0
C60060
E600E0
FFFFE0
FFFFE0
3FE000
00E000
00E000
7FFFC0
FFFFE0
EF00E0
C60060
EF00E0
FFFFE0
7FFFC0
ENDCHAR
STARTCHAR F038
ENCODING 61496
SWIDTH 977 0
DWIDTH 19 0
BBX 19 18 0 1
BITMAP
00E000
04E400
07FC00
07FC00
071C00
1E0F00
1E0F00
071C00
07FC00
07FC00
06EC00
00E000
004000
7FFFC0
EF00E0
C60060
EF00E0
7FFFC0
ENDCHAR
STARTCHAR F039
ENCODING 61497
SWIDTH 977 0
DWIDTH 19 0
BBX 19 19 0 0
BITMAP
800000
C00000
FC0000
FFF000
DFFC00
EFFE00
F3FF00
F9FF00
7C7F00
7F1F80
7FE780
3FF900
1FFC00
0FFF00
07FF80
03FBC0
0061E0
0000C0
000080
ENDCHAR
STARTCHAR F03A
ENCODING 61498
SWIDTH 977 0
DWIDTH 19 0
BBX 19 19 0 0
BITMAP
004000
00E000
03F800
07FC00
06EC00
06EC00
07E000
03F800
00FC00
06EC00
06EC00
07FC00
03F800
00E000
7FFFC0
EF00E0
C60060
EF00E0
7FFFC0
ENDCHAR
STARTCHAR F03B
ENCODING 61499
SWIDTH 977 0
DWIDTH 19 0
BBX 19 19 0 0
BITMAP
0FC000
3FF000
7FF800
7FFC00
FFFC00
FFFC00
FFFC00
FFFC80
7FC180
7F0180
3E7F80
3EFFC0
30FFE0
21FFE0
01FFE0
01FFE0
00FFC0
007F80
003F00
ENDCHAR
STARTCHAR F03C
ENCODING 61500
SWIDTH 977 0
DWIDTH 19 0
BBX 19 19 0 0
BITMAP
C00000
E00180
7003C0
380180
100000
060000
070000
038000
31C000
78E000
307000
003800
001C00
000E00
000700
010380
03C1C0
0180E0
028060
ENDCHAR
STARTCHAR F03D
ENCODING 61501
SWIDTH 977 0
DWIDTH 19 0
BBX 19 18 0 0
BITMAP
F001E0
BFFFA0
BFFFA0
F001E0
B001A0
F001E0
B101A0
F181E0
B1E1A0
B1E1A0
F1C1E0
B101A0
F001E0
B001A0
F001E0
F001E0
BFFFA0
F001E0
ENDCHAR
STARTCHAR F03E
ENCODING 61502
SWIDTH 977 0
DWIDTH 19 0
BBX 19 19 0 0
BITMAP
FFFFE0
800020
800020
B00020
B00020
B00020
800020
FFFFE0
000000
000000
000000
FFFFE0
800020
800020
932220
BB3620
912220
800020
FFFFE0
ENDCHAR
STARTCHAR F03F
ENCODING 61503
SWIDTH 977 0
DWIDTH 19 0
BBX 18 17 1 -1
BITMAP
3FFF00
7FFFC0
FFFFC0
800040
9B3740
9BB740
800040
800040
9BB740
9BB740
9BB740
800040
9BB740
800040
C000C0
FFFFC0
7FFF80
ENDCHAR
STARTCHAR F040
ENCODING 61504
SWIDTH 977 0
DWIDTH 19 0
BBX 19 15 0 2
BITMAP
7FFFC0
FFFFE0
FFFFE0
E0F020
C0FFE0
C0FFE0
C0F1E0
E0F1E0
E1FFE0
F1FFE0
C07020
807FE0
FFFFE0
FFFFE0
7FFFC0
ENDCHAR
STARTCHAR F041
ENCODING 61505
SWIDTH 977 0
DWIDTH 19 0
BBX 19 19 0 0
BITMAP
7FFFC0
C00060
800020
800020
8F0020
8E0020
860020
8620E0
FFF1E0
FFF9E0
FFF1E0
FFF1E0
FFF1E0
FFFFE0
FFFFE0
FFFFE0
FFFFE0
FFFFE0
7FFFC0
ENDCHAR
STARTCHAR F042
ENCODING 61506
SWIDTH 977 0
DWIDTH 19 0
BBX 19 19 0 0
BITMAP
03F800
0FFE00
9F1F00
FC0780
F001C0
F1F1C0
FA08E0
0208E0
020860
C20860
C3F800
E20800
620BE0
7209E0
7001E0
3C07E0
1F1F20
0FFE00
03F800
ENDCHAR
STARTCHAR F043
ENCODING 61507
SWIDTH 977 0
DWIDTH 19 0
BBX 19 19 0 0
BITMAP
7FFFC0
FFFFE0
FE00E0
FC0060
FE0060
FF0060
FE0060
FC0060
F80060
F00060
E01860
E0FC60
E1FEE0
C3FFE0
C7FFE0
C7FFE0
EFFFE0
FFFFE0
7FFFC0
ENDCHAR
STARTCHAR F044
ENCODING 61508
SWIDTH 977 0
DWIDTH 19 0
BBX 19 19 0 0
BITMAP
0FC0E0
1FF1E0
3CF9E0
7039E0
E01DE0
E00DC0
C00DC0
C00DC0
C00DC0
C00DC0
C00DC0
C00DC0
CFEDC0
CFEDC0
C00FC0
C00FC0
E00FC0
FFFDC0
FFFCC0
ENDCHAR
STARTCHAR F045
ENCODING 61509
SWIDTH 977 0
DWIDTH 19 0
BBX 19 19 0 0
BITMAP
03F800
0FFE00
1FFF00
3FFF80
5FFF40
6FFEC0
F7FDE0
FBFBE0
FDF7E0
FEEFE0
FD57E0
FBBBE0
F7FDE0
6FFEC0
5FFF40
3FFF80
1FFF00
0FFE00
03F800
ENDCHAR
STARTCHAR F046
ENCODING 61510
SWIDTH 977 0
DWIDTH 19 0
BBX 16 19 2 0
BITMAP
7FFE
7FFF
FE3F
FC3F
FC3F
FC3F
FC3F
E007
E007
EF77
EF77
EF77
EF77
EF77
EF77
E007
E007
7F7F
7FFE
ENDCHAR
STARTCHAR F047
ENCODING 61511
SWIDTH 977 0
DWIDTH 19 0
BBX 19 19 0 0
BITMAP
0FFE00
7FFFC0
FFFFE0
7FFFC0
07FC00
F001E0
FFFFE0
DFFF60
C00060
C0E060
C1F060
C10060
C1F060
C01060
C1F060
E000E0
FE0FE0
7FFFC0
0FFE00
ENDCHAR
STARTCHAR F048
ENCODING 61512
SWIDTH 977 0
DWIDTH 19 0
BBX 19 19 0 0
BITMAP
07FC00
0FFE00
1FBF00
3F1F80
7F1FC0
FF1FE0
FF1FE0
FF1FE0
FF1FE0
FF1FE0
FF1FE0
FF1FE0
FFFFE0
FFFFE0
7F1FC0
3F1F80
1FBF00
0FFE00
07FC00
ENDCHAR
STARTCHAR F049
ENCODING 61513
SWIDTH 977 0
DWIDTH 19 0
BBX 19 19 0 -1
BITMAP
3FFF80
9FFF20
CFFE60
E7FCE0
F3F9E0
F9F3E0
FCE7E0
FC47E0
F913E0
F3B9E0
E7FCE0
CFF660
9FF320
3E0180
0200C0
03F180
01F700
001E00
001800
ENDCHAR
STARTCHAR F04A
ENCODING 61514
SWIDTH 977 0
DWIDTH 19 0
BBX 19 19 0 0
BITMAP
03F800
0FFE00
1FFF00
3FFF80
7F1FC0
7E0FC0
FE0FE0
FF1FE0
FF1FE0
FF1FE0
FF1FE0
FFBFE0
FFFFE0
7FBFC0
7F1FC0
3FFF80
1FFF00
0FFE00
03F800
ENDCHAR
STARTCHAR F04B
ENCODING 61515
SWIDTH 977 0
DWIDTH 19 0
BBX 19 19 0 0
BITMAP
7FFFC0
FFFFE0
E000E0
C00060
C00060
C00060
C00060
C02060
C27060
C77860
CD6C60
F8E7E0
C06060
C06060
C00060
C00060
E000E0
FFFFE0
7FFFC0
ENDCHAR
STARTCHAR F04C
ENCODING 61516
SWIDTH 977 0
DWIDTH 19 0
BBX 19 19 0 0
BITMAP
000040
0000C0
0001C0
0003C0
0003C0
0067C0
007FC0
00FFC0
01FFC0
0DFFC0
0FFFC0
1FFFC0
1FFFC0
3FFFC0
3FFFC0
000000
000000
FFFFE0
FFFFE0
ENDCHAR
STARTCHAR F04D
ENCODING 61517
SWIDTH 977 0
DWIDTH 19 0
BBX 19 17 0 1
BITMAP
7F0000
7F0F80
FF9FC0
003FE0
FFFFE0
FFFFE0
FF1FE0
FE0FE0
FE0FE0
FE0FE0
FF1FE0
FF1FE0
FF1FE0
FF1FE0
FFFFE0
FFFFE0
7FFFC0
ENDCHAR
STARTCHAR F04E
ENCODING 61518
SWIDTH 977 0
DWIDTH 19 0
BBX 19 15 0 2
BITMAP
007000
007000
00F800
01CC00
01CC00
C1CC00
71C000
38F800
0C0C00
198C00
31CC00
61CC00
C0F800
0073E0
007000
ENDCHAR
STARTCHAR F04F
ENCODING 61519
SWIDTH 977 0
DWIDTH 19 0
BBX 15 19 2 0
BITMAP
07C0
0FE0
1EF0
3838
3018
3FF8
3FF8
3D78
711C
638C
638C
E7CE
E7CE
638C
701C
701C
3C78
1FF0
07C0
ENDCHAR
STARTCHAR F050
ENCODING 61520
SWIDTH 977 0
DWIDTH 19 0
BBX 19 19 0 1
BITMAP
060000
073000
03FC00
01FE00
01E700
03C380
030180
03B1C0
01F3C0
00E780
01F780
1FBFC0
3F1CE0
730060
E30000
C70000
6E0000
3C0000
180000
ENDCHAR
STARTCHAR F051
ENCODING 61521
SWIDTH 977 0
DWIDTH 19 0
BBX 19 19 0 1
BITMAP
E00000
900000
C80000
640000
320000
197E00
0CFF80
0FFFC0
0FFFC0
07FFE0
07FFE0
07E1E0
07E1E0
07E1E0
07E1E0
03FFC0
03FF80
01FF00
007E00
ENDCHAR
STARTCHAR F052
ENCODING 61522
SWIDTH 977 0
DWIDTH 19 0
BBX 19 19 0 0
BITMAP
07E000
0FF800
3EFC00
388E00
787F00
F87F00
E0C300
E07F80
E07F80
E0FFC0
E0E0C0
61C0E0
71C060
39C060
1FC0E0
0FC0C0
01F3C0
007F80
001E00
ENDCHAR
STARTCHAR F053
ENCODING 61523
SWIDTH 977 0
DWIDTH 19 0
BBX 19 19 0 0
BITMAP
03F800
0FFE00
1F9F00
3C2780
7007C0
783FC0
F01FE0
E034E0
E01260
E00660
F03FE0
E079E0
E0F9E0
70E020
70E020
3C79E0
1F39C0
0FF980
03FF00
ENDCHAR
STARTCHAR F054
ENCODING 61524
SWIDTH 977 0
DWIDTH 19 0
BBX 19 19 0 0
BITMAP
03F800
0FFE00
1F9F00
3C2780
7007C0
783FC0
F01FE0
E034E0
E01260
E00460
F03FE0
E07060
E0E760
70C7A0
70C7A0
3C6F20
1F3E40
0FF8C0
03FF00
ENDCHAR
STARTCHAR F055
ENCODING 61525
SWIDTH 977 0
DWIDTH 19 0
BBX 17 19 1 0
BITMAP
7FFF00
FFFF80
FC1F80
F80F80
F80780
F9E780
F9E780
F80780
F80F80
F83F80
F9FF80
F9FF80
FFFF80
C8C180
9AD480
98D480
CCD780
FFFF80
7FFF00
ENDCHAR
STARTCHAR F056
ENCODING 61526
SWIDTH 977 0
DWIDTH 19 0
BBX 19 19 0 0
BITMAP
800000
800000
800000
800000
C00000
400000
480000
6C0000
660000
370000
338000
39C000
1CE000
1E7000
0F1800
07CE00
01E300
007FC0
0007E0
ENDCHAR
STARTCHAR F057
ENCODING 61527
SWIDTH 977 0
DWIDTH 19 0
BBX 18 19 0 -1
BITMAP
7FE800
7FEC00
7FEE00
7FEF00
7FEF80
7FEFC0
7FE000
467FC0
101FC0
399FC0
1FBFC0
1F87C0
FFF7C0
F9F7C0
F9F7C0
1F87C0
1FBFC0
399FC0
119FC0
ENDCHAR
STARTCHAR F058
ENCODING 61528
SWIDTH 977 0
DWIDTH 19 0
BBX 13 19 3 0
BITMAP
0880
0D80
7FF0
3FE0
3060
E038
6030
6030
E038
7070
38E0
7FF0
1FC0
1FC0
1DC0
3DE0
3DE0
38E0
28A0
ENDCHAR
STARTCHAR F059
ENCODING 61529
SWIDTH 977 0
DWIDTH 19 0
BBX 11 19 4 0
BITMAP
1F00
3F80
7FC0
FFE0
FFE0
FFE0
FFE0
FFE0
FFE0
7FC0
3F80
3F80
3B80
3180
3180
71C0
71C0
60C0
2080
ENDCHAR
STARTCHAR F05A
ENCODING 61530
SWIDTH 977 0
DWIDTH 19 0
BBX 19 19 0 0
BITMAP
03F800
0FFE00
1F1F00
3C0780
70E1C0
71F1C0
E1F0E0
E0E0E0
C0E060
C0E060
C0E060
E040E0
E000E0
7041C0
70E1C0
3C0780
1F1F00
0FFE00
03F800
ENDCHAR
STARTCHAR F05B
ENCODING 61531
SWIDTH 977 0
DWIDTH 19 0
BBX 19 19 0 0
BITMAP
060000
030000
038000
018000
018000
818000
C38000
7F8000
3FE000
00F000
00F800
007E00
003F00
001F80
001FC0
000F60
000620
000360
0001C0
ENDCHAR
STARTCHAR F05C
ENCODING 61532
SWIDTH 977 0
DWIDTH 19 0
BBX 19 19 0 0
BITMAP
FFFFE0
FFFFE0
7FFFC0
3FFF80
3FFF80
1FFF00
0FFE00
07FC00
03F800
03F800
01F000
01F000
01F000
00E000
00E000
00E000
00E000
00E000
004000
ENDCHAR
STARTCHAR F05D
ENCODING 61533
SWIDTH 977 0
DWIDTH 19 0
BBX 19 19 0 0
BITMAP
00E000
01F000
7DF7C0
FDF7E0
FCE7E0
7CE7C0
39F380
1BFB00
080200
0FFE00
07FC00
03F800
01F000
00E000
00E000
00E000
00E000
00E000
004000
ENDCHAR
STARTCHAR F05E
ENCODING 61534
SWIDTH 977 0
DWIDTH 19 0
BBX 19 19 0 0
BITMAP
00E000
024800
7B1BC0
FB3BE0
FB3BE0
7B1BC0
3A4B80
18E300
080200
0E0E00
07FC00
03F800
01F000
00E000
00E000
00E000
00E000
00E000
004000
ENDCHAR
STARTCHAR F05F
ENCODING 61535
SWIDTH 977 0
DWIDTH 19 0
BBX 19 19 0 0
BITMAP
FFFC00
FFFC00
E01C00
C00C00
CBEC00
C1EC00
C0EC00
CC6C00
CE2C00
CF0C00
CF8C00
E00400
FFE000
FFF600
000700
000380
0001C0
0000E0
000060
ENDCHAR
STARTCHAR F060
ENCODING 61536
SWIDTH 977 0
DWIDTH 19 0
BBX 19 18 0 1
BITMAP
800000
000000
600000
3F8000
0FFFC0
01FFE0
0000E0
0000E0
0000C0
0000C0
000080
000100
000000
000000
040800
0E1C00
0E1C00
0E1C00
ENDCHAR
STARTCHAR F061
ENCODING 61537
SWIDTH 977 0
DWIDTH 19 0
BBX 17 19 1 0
BITMAP
0BE800
1BEC00
180C00
180C00
180C00
FFFF80
FFFF80
FFFF80
FFFF80
FFFF80
FE1F80
FEDF80
FEC780
FEF380
FDFB80
FDFB80
FDFB80
7DFB00
00F000
ENDCHAR
STARTCHAR F062
ENCODING 61538
SWIDTH 977 0
DWIDTH 19 0
BBX 19 19 0 0
BITMAP
7904E0
C58C80
81CC80
C17480
7D34E0
050480
050480
850480
FD0480
300000
000000
0183E0
01FFE0
067F00
7E2000
FFF000
4FF800
1FFC00
3FFC00
ENDCHAR
STARTCHAR F063
ENCODING 61539
SWIDTH 977 0
DWIDTH 19 0
BBX 19 19 0 0
BITMAP
7FFFC0
FFFFE0
FCFFE0
F83FE0
F030E0
F01060
F01060
F030E0
F839E0
FFF060
F02060
E00020
E00020
E00060
C00FE0
C00FE0
F87FE0
FFFFE0
7FFFC0
ENDCHAR
STARTCHAR F064
ENCODING 61540
SWIDTH 977 0
DWIDTH 19 0
BBX 19 19 0 0
BITMAP
03F9C0
0FFFC0
3FFF80
3FFF80
7FFFC0
7CFFC0
7CFFE0
01FFE0
3F87E0
7F01E0
FE01E0
7800E0
0000E0
7000C0
3800C0
3C06E0
1F1E00
07FE00
01F800
ENDCHAR
STARTCHAR F065
ENCODING 61541
SWIDTH 977 0
DWIDTH 19 0
BBX 19 19 0 0
BITMAP
003F00
007F80
00FFC0
01FFE0
3FFFE0
7FFFE0
FFFFE0
FFFFC0
FFFFC0
FFF1C0
7FFF60
7FFF80
7FFFC0
73FFC0
03FFC0
01FF80
01FF00
01FC00
018000
ENDCHAR
STARTCHAR F066
ENCODING 61542
SWIDTH 977 0
DWIDTH 19 0
BBX 18 19 0 0
BITMAP
004000
0C6600
0EEC00
07FC00
4FFEC0
7E0FC0
3C0780
180000
780000
F80000
380000
180000
3C0780
7E0FC0
6FFE40
07FC00
06EE00
0CC600
004000
ENDCHAR
STARTCHAR F067
ENCODING 61543
SWIDTH 977 0
DWIDTH 19 0
BBX 19 19 0 0
BITMAP
01FF80
063040
081C20
101F20
203FE0
403C20
406060
806060
80F0E0
83F0E0
CFF1E0
FCFBE0
BC1FE0
BC0FE0
981BE0
9821E0
88C0E0
4B8060
3FFFE0
ENDCHAR
STARTCHAR F068
ENCODING 61544
SWIDTH 977 0
DWIDTH 19 0
BBX 19 19 0 1
BITMAP
003000
007000
007000
007000
0C6600
1C6700
386380
7061C0
E0E0E0
E0E0E0
E0E0E0
70C1C0
38C380
1CC700
0CC600
01C000
01C000
01C000
018000
ENDCHAR
STARTCHAR F069
ENCODING 61545
SWIDTH 977 0
DWIDTH 19 0
BBX 17 19 1 0
BITMAP
FFFF80
FFFF80
E00380
E00380
600300
63FF00
63FF00
600300
600300
7FE300
7FE300
63E300
63E300
708700
700700
700700
7F7F00
0FF800
01C000
ENDCHAR
STARTCHAR F06A
ENCODING 61546
SWIDTH 977 0
DWIDTH 19 0
BBX 17 19 1 0
BITMAP
FFFF80
FFFF80
E00380
E00380
600300
7FE300
7FE300
600300
600300
7FE300
7FE300
63E300
63E300
708700
700700
700700
7F7F00
0FF800
01C000
ENDCHAR
STARTCHAR F06B
ENCODING 61547
SWIDTH 977 0
DWIDTH 19 0
BBX 18 18 0 1
BITMAP
011000
022000
222000
622000
463000
C61000
C60C40
C30780
C38000
E1C000
E0E040
F07F80
701C00
780000
3E0000
1F8300
0FFE00
03F800
ENDCHAR
STARTCHAR F06C
ENCODING 61548
SWIDTH 977 0
DWIDTH 19 0
BBX 19 17 0 1
BITMAP
7FFFC0
FFFFE0
FFFFE0
FFFC60
C3FC20
C3F860
C3FC60
C3FFE0
C3F860
E1F8E0
E0E0E0
6000C0
7001C0
380380
1FFF00
0FFE00
03F800
ENDCHAR
STARTCHAR F06D
ENCODING 61549
SWIDTH 977 0
DWIDTH 19 0
BBX 19 19 0 0
BITMAP
03F800
0FFE00
1F1F00
3C0780
7001C0
7001C0
E000E0
E000E0
C00060
C00060
C00060
E000E0
E000E0
7001C0
7001C0
3C0780
1F1F00
0FFE00
03F800
ENDCHAR
STARTCHAR F06E
ENCODING 61550
SWIDTH 977 0
DWIDTH 19 0
BBX 17 19 1 0
BITMAP
008000
03E000
0FF800
3E3E00
780F00
E00380
E00380
E63380
E63380
E63380
E63380
E63380
E63380
E63380
663300
263200
077000
03E000
008000
ENDCHAR
STARTCHAR F06F
ENCODING 61551
SWIDTH 977 0
DWIDTH 19 0
BBX 13 19 3 0
BITMAP
1FC0
3FE0
38E0
3060
3000
3060
30F0
31F8
31F8
3060
FC60
FC60
7860
3060
0060
3060
38E0
3FE0
1FC0
ENDCHAR
STARTCHAR F070
ENCODING 61552
SWIDTH 977 0
DWIDTH 19 0
BBX 17 19 1 0
BITMAP
000780
001F80
003F80
007F00
007800
00F000
00F000
01E000
01FC00
01FC00
03FC00
03FC00
078000
078000
0F0000
7F0000
FE0000
FC0000
F80000
ENDCHAR
STARTCHAR F071
ENCODING 61553
SWIDTH 977 0
DWIDTH 19 0
BBX 19 19 0 0
BITMAP
03F800
06FC00
07FC00
07FC00
007C00
7FFDC0
7FFDE0
FFFDE0
FFFDE0
FE01E0
F807E0
FBFFE0
FBFFC0
7BFFC0
03C000
03FC00
03FC00
03EC00
01F800
ENDCHAR
STARTCHAR F072
ENCODING 61554
SWIDTH 977 0
DWIDTH 19 0
BBX 19 19 0 0
BITMAP
03F800
0FFE00
1FFF00
3CE780
70E1C0
70E1C0
E0E0E0
E0E0E0
C0FFE0
C0FFE0
C0FFC0
E0E000
E0E000
70E000
70E000
3CE000
1FE000
0FE000
03C000
ENDCHAR
STARTCHAR F073
ENCODING 61555
SWIDTH 977 0
DWIDTH 19 0
BBX 19 19 0 0
BITMAP
6000C0
F001E0
E60CE0
5F3F40
1C7700
38E380
31C180
198900
1C1C00
0E0E00
070700
122300
307180
30E180
19C300
5F9F40
E60CE0
F001E0
6000C0
ENDCHAR
STARTCHAR F074
ENCODING 61556
SWIDTH 977 0
DWIDTH 19 0
BBX 19 19 0 0
BITMAP
03F800
0FFE00
1FFE00
3FFC00
070C00
470E00
C78F20
C38F60
E38760
E146E0
F146E0
F142E0
F0E1E0
78E1C0
78F3C0
3DF380
1DF300
0FFE00
03F800
ENDCHAR
STARTCHAR F075
ENCODING 61557
SWIDTH 977 0
DWIDTH 19 0
BBX 17 18 1 0
BITMAP
018000
03C000
07F000
1FFC00
3FFE00
3FFE00
7FFF00
7FFF00
FFFF80
E06080
E00080
E07180
618900
7FAF00
3FFE00
1E4E00
0F1800
03E000
ENDCHAR
STARTCHAR F076
ENCODING 61558
SWIDTH 977 0
DWIDTH 19 0
BBX 19 19 0 0
BITMAP
C00000
DC0000
7E0000
7F0000
3F8000
1FF000
1FF800
1FFC00
1FF000
3FF000
3BF800
1BF800
19FC00
007E00
001F00
000F80
0007C0
000220
000200
ENDCHAR
STARTCHAR F077
ENCODING 61559
SWIDTH 977 0
DWIDTH 19 0
BBX 17 19 1 0
BITMAP
00C000
00C000
00E000
01E000
03E000
07C000
0FC000
1FC400
3FFE00
7CFF00
7C7F00
FE3F80
FF1F80
F70F80
F70780
F00700
700700
300600
100400
ENDCHAR
STARTCHAR F078
ENCODING 61560
SWIDTH 977 0
DWIDTH 19 0
BBX 19 19 0 0
BITMAP
83F800
CFFE00
FF1F00
FC0780
F801C0
FC01C0
FE0080
000000
000000
000000
000000
000000
200FE0
7007E0
7003E0
3C07E0
1F1FE0
0FFE60
03F820
ENDCHAR
STARTCHAR F079
ENCODING 61561
SWIDTH 977 0
DWIDTH 19 0
BBX 19 19 0 0
BITMAP
3FFFC0
7FFFE0
600020
400020
4F9BA0
4F9920
400020
400020
7FFC20
C00C20
800420
BB3420
9B3420
800420
FFFC20
400020
600020
7FFFE0
3FFFC0
ENDCHAR
STARTCHAR F07A
ENCODING 61562
SWIDTH 977 0
DWIDTH 19 0
BBX 19 19 0 0
BITMAP
FFFFE0
FFFFE0
EF00E0
C60060
EF00E0
FFFFE0
FFFFE0
000000
0FBE00
0F7E00
0EFE00
0E7E00
0F3E00
0F1E00
0E4E00
0CE600
09F200
03F800
07FC00
ENDCHAR
STARTCHAR F07B
ENCODING 61563
SWIDTH 977 0
DWIDTH 19 0
BBX 19 19 0 0
BITMAP
7F0000
FF1FC0
001FC0
003FE0
FFFFE0
FF1FE0
FE0FE0
FE0FE0
FE0FE0
FF1FE0
FF1FE0
FE0FE0
FC07E0
7FFFC0
00E000
00E000
00E000
07FC00
07FC00
ENDCHAR
STARTCHAR F07C
ENCODING 61564
SWIDTH 977 0
DWIDTH 19 0
BBX 19 19 0 0
BITMAP
7F0000
FF1FC0
001FC0
003FE0
FFFFE0
FE0FE0
F9F3E0
F1F9E0
F6EDE0
F60DE0
F71DE0
F7BDE0
FFFFE0
7FFFC0
00E000
00E000
00E000
07FC00
07FC00
ENDCHAR
STARTCHAR F07D
ENCODING 61565
SWIDTH 977 0
DWIDTH 19 0
BBX 19 19 0 0
BITMAP
F800E0
F801E0
C001E0
C001E0
C001E0
F81DE0
F81DE0
C01DE0
C01DE0
F11DE0
FB9DE0
F3DDE0
C3DDE0
C3DDE0
F3DDE0
FBDDE0
F3DDE0
C3DDE0
C39CE0
ENDCHAR
STARTCHAR F07E
ENCODING 61566
SWIDTH 977 0
DWIDTH 19 0
BBX 19 17 0 1
BITMAP
3FFFC0
7FFFE0
7FFFE0
400020
4DDBA0
FFFFE0
800020
889920
8DDBA0
889920
800020
FFFFE0
4DDBA0
400020
7FFFE0
7FFFE0
3FFFC0
ENDCHAR
STARTCHAR F07F
ENCODING 61567
SWIDTH 977 0
DWIDTH 19 0
BBX 19 19 0 0
BITMAP
03F800
0FFE00
1F1F00
3C0780
7001C0
7601C0
E6C0E0
E6F0E0
C6F860
C6FC60
C6F860
E6F0E0
E6C0E0
7601C0
7601C0
3E0780
1F1F00
0FFE00
03F800
ENDCHAR
STARTCHAR F080
ENCODING 61568
SWIDTH 977 0
DWIDTH 19 0
BBX 19 19 0 0
BITMAP
3FFF80
7FFFC0
F9BFE0
F11FE0
F31FE0
E31FE0
E71FE0
C71FE0
E3FFE0
F3B0E0
F11060
F91060
FFFFE0
7FFFC0
01F000
01E000
01C000
018000
010000
ENDCHAR
STARTCHAR F081
ENCODING 61569
SWIDTH 977 0
DWIDTH 19 0
BBX 19 15 0 2
BITMAP
700180
7FFF80
7FFF80
7FFFC0
7EEFC0
F001E0
E000E0
E60CE0
C60C60
C60C60
E000E0
6000C0
70E1C0
3C0780
0FFE00
ENDCHAR
STARTCHAR F082
ENCODING 61570
SWIDTH 977 0
DWIDTH 19 0
BBX 19 19 0 0
BITMAP
FBFBE0
FBFBE0
F1F1E0
F1F1E0
F1F1E0
FFFFE0
FFFFE0
FFFFE0
FFFFE0
FFFFE0
FFFFE0
FFFFE0
380380
380380
380380
380380
380380
FE0FE0
FE0FE0
ENDCHAR
STARTCHAR F083
ENCODING 61571
SWIDTH 977 0
DWIDTH 19 0
BBX 19 19 0 0
BITMAP
004000
006000
006000
005000
01A000
032000
022000
022000
011000
100000
1E07E0
07FC20
000020
0FFEE0
000000
47FC40
E1F0E0
7C07C0
0FFE00
ENDCHAR
STARTCHAR F084
ENCODING 61572
SWIDTH 977 0
DWIDTH 19 0
BBX 17 19 1 0
BITMAP
01C000
03F000
0FF800
1FFE00
7FFF00
FF7F80
FE1F80
F88F80
FBEF00
FBEE00
FBE800
F88000
FE0000
FF0000
7FC000
1FF000
0FF800
03F000
01C000
ENDCHAR
STARTCHAR F085
ENCODING 61573
SWIDTH 977 0
DWIDTH 19 0
BBX 19 19 0 0
BITMAP
03F800
0FFE00
1FFF00
3FFF80
7FFFC0
7FFFC0
F803E0
880220
8C0620
C31860
E71CE0
F71DE0
F71DE0
431840
7F1FC0
3E0F80
1F1F00
0FFE00
03F800
ENDCHAR
STARTCHAR F086
ENCODING 61574
SWIDTH 977 0
DWIDTH 19 0
BBX 19 15 0 2
BITMAP
00E000
00FFE0
03BC00
071FE0
1F1F20
7E0DC0
F60460
EC0600
080300
180300
300180
200080
6000C0
C00060
FFFFE0
ENDCHAR
STARTCHAR F087
ENCODING 61575
SWIDTH 977 0
DWIDTH 19 0
BBX 19 15 0 2
BITMAP
703FC0
F83FE0
F87FE0
387060
387060
387060
387060
387060
387060
387060
3B7060
3B7060
FF7FE0
FF3FE0
7F3FC0
ENDCHAR
STARTCHAR F088
ENCODING 61576
SWIDTH 977 0
DWIDTH 19 0
BBX 16 19 2 0
BITMAP
7FA0
FFB0
FFB8
FFBC
FFBE
FFBF
FF80
FFFF
FE7F
FC3F
F81F
F00F
F00F
FC3F
FC3F
FC3F
FE3F
FFFF
7FFF
ENDCHAR
STARTCHAR F089
ENCODING 61577
SWIDTH 977 0
DWIDTH 19 0
BBX 16 19 2 0
BITMAP
7FA0
FFB0
FFB8
FFBC
FFBE
FFBF
FF80
FFFF
FC3F
FC3F
FC3F
FC3F
F00F
F00F
F81F
FC3F
FFFF
FFFF
7FFF
ENDCHAR
STARTCHAR F08A
ENCODING 61578
SWIDTH 977 0
DWIDTH 19 0
BBX 19 19 0 1
BITMAP
0FF400
0FF600
0FF700
0FF780
0FF7C0
0FF7E0
00F000
3E7FE0
7FBFE0
F79FE0
C19FE0
039FE0
0FBFE0
0F3FE0
0C7FE0
01FFE0
01FFE0
0DFFE0
0DFFE0
ENDCHAR
STARTCHAR F08B
ENCODING 61579
SWIDTH 977 0
DWIDTH 19 0
BBX 19 19 0 0
BITMAP
7803C0
F803E0
E000E0
C00060
C00060
0CFC00
0CFE00
0CE600
0CE600
0CEE00
0CFE00
0CF800
0CE000
0CE000
C00060
C00060
E000E0
F803E0
7803C0
ENDCHAR
STARTCHAR F08C
ENCODING 61580
SWIDTH 977 0
DWIDTH 19 0
BBX 19 19 0 0
BITMAP
7FFFC0
FFFFE0
E000E0
C00060
C00060
C00060
E000E0
FFFFE0
FFFFE0
F001E0
C00060
E000E0
FFFFE0
7FFFC0
000000
000000
000000
0F9FC0
0F9FC0
ENDCHAR
STARTCHAR F08D
ENCODING 61581
SWIDTH 977 0
DWIDTH 19 0
BBX 19 19 0 0
BITMAP
3FF9C0
7FF3C0
FFF7E0
FFF7E0
FFF7E0
FFF7E0
000FC0
0FFFC0
1FFF80
3FFF80
3FFF00
7FFE00
7FFE00
FFFCE0
FFFDE0
FFFDE0
FFFDE0
7FFEC0
3FFE80
ENDCHAR
STARTCHAR F08E
ENCODING 61582
SWIDTH 977 0
DWIDTH 19 0
BBX 19 19 0 0
BITMAP
3FFF80
7FFFC0
FF1FE0
F807E0
F9F7E0
F8FBE0
FFFBE0
FFFBE0
FFFBE0
F9F3E0
FCE7E0
FF1FE0
FFFFE0
7FFFC0
007C00
007800
007000
006000
004000
ENDCHAR
STARTCHAR F08F
ENCODING 61583
SWIDTH 977 0
DWIDTH 19 0
BBX 19 15 0 2
BITMAP
7FFFC0
FFFFE0
FFFFE0
FFF060
FFF060
FFF060
E07060
E070E0
FFFFE0
C07FE0
FFFFE0
C0FFE0
FFFFE0
FFFFE0
7FFFC0
ENDCHAR
STARTCHAR F090
ENCODING 61584
SWIDTH 977 0
DWIDTH 19 0
BBX 17 19 1 0
BITMAP
FFD000
FFD800
FFDC00
FFDE00
FFDF00
E01F80
E00000
FFFF80
FFFF80
E00380
E00180
E00180
FFFF80
FFFF80
E00180
E00180
E00180
FFFF80
FFFF80
ENDCHAR
STARTCHAR F091
ENCODING 61585
SWIDTH 977 0
DWIDTH 19 0
BBX 19 19 0 0
BITMAP
3FFF80
9FFF20
CFFE60
E7FCE0
F3F9E0
F9F3E0
FC83E0
FC3CE0
F87E60
F0FF60
E5C320
CDC3A0
9DC3A0
3DC300
00FF00
007F80
0019C0
0000E0
000040
ENDCHAR
STARTCHAR F092
ENCODING 61586
SWIDTH 977 0
DWIDTH 19 0
BBX 19 19 0 0
BITMAP
01F000
011000
011000
011000
071C00
FC07E0
FE0FE0
F31FE0
E1F020
C0F060
C0FFE0
E0FFE0
E0F1E0
F1FFE0
C07FE0
807060
C0F020
FFFFE0
FFFFE0
ENDCHAR
STARTCHAR F093
ENCODING 61587
SWIDTH 977 0
DWIDTH 19 0
BBX 19 19 0 1
BITMAP
600000
700000
380000
7C0000
EE0000
C70000
078000
0FC000
0CE700
007FC0
003FC0
0038E0
007060
00E060
00E0E0
00E1C0
007380
007F00
001E00
ENDCHAR
STARTCHAR F094
ENCODING 61588
SWIDTH 977 0
DWIDTH 19 0
BBX 19 17 0 1
BITMAP
7F0000
7F0F80
FF9FC0
003FE0
FFFFE0
FFFFE0
FFFFE0
FFFFE0
FFFFE0
FFFFE0
FFFFE0
FFFFE0
FFFFE0
FFFFE0
FFFFE0
FFFFE0
7FFFC0
ENDCHAR
STARTCHAR F095
ENCODING 61589
SWIDTH 977 0
DWIDTH 19 0
BBX 19 17 0 1
BITMAP
7F0000
7F0F80
FF9FC0
003FE0
FFF060
FFF060
C00060
C00060
C00060
C00060
C00060
C00060
C00060
C00060
FFFFE0
FFFFE0
7FFFC0
ENDCHAR
STARTCHAR F096
ENCODING 61590
SWIDTH 977 0
DWIDTH 19 0
BBX 17 19 1 0
BITMAP
7FFF00
FFFF80
FE3F80
F80F80
F0E780
E0F380
E0FB80
E0FB80
E1FB80
E03B80
E01B80
E00380
E00380
E00380
E00380
E00380
F00780
FFFF80
7FFF00
ENDCHAR
STARTCHAR F097
ENCODING 61591
SWIDTH 977 0
DWIDTH 19 0
BBX 19 19 0 0
BITMAP
01F000
01F000
00E000
00E000
00E000
FEEFE0
FEEFE0
FF1FE0
F1FFE0
E0FFE0
C0FFE0
C0E060
E0FFE0
E0E3E0
F1FFE0
C0E0E0
8060E0
807FE0
FFFFE0
ENDCHAR
STARTCHAR F098
ENCODING 61592
SWIDTH 977 0
DWIDTH 19 0
BBX 19 19 0 1
BITMAP
0FF400
0FF600
0FF700
0FF780
0FF7C0
0FF7E0
0FF000
0FFFE0
001FE0
7E0FE0
FF0FE0
F70FE0
810FE0
810FE0
F70FE0
FF0FE0
7F0FE0
001FE0
0FFFE0
ENDCHAR
STARTCHAR F099
ENCODING 61593
SWIDTH 977 0
DWIDTH 19 0
BBX 17 19 1 0
BITMAP
7FFF80
FFFF80
E00000
E00000
FFFF80
FFFF80
FC1F80
F00F80
F1C780
F3E780
FFC780
FE0F80
FE1F80
FE3F80
FFFF80
FF7F80
FE3F80
FE3F00
7FFE00
ENDCHAR
STARTCHAR F09A
ENCODING 61594
SWIDTH 977 0
DWIDTH 19 0
BBX 19 19 0 1
BITMAP
0FFE00
CFFF60
EFFFE0
6FFFE0
7001C0
3FFF80
3FFF80
3FFF80
3E0780
3E0F80
3C0780
38E380
386380
3E0780
3E0780
3E4F80
3FFF80
3FFF80
1FFF80
ENDCHAR
STARTCHAR F09B
ENCODING 61595
SWIDTH 977 0
DWIDTH 19 0
BBX 19 19 0 1
BITMAP
0FFE00
CFFF60
EFFFE0
6FFFE0
7001C0
3FFF80
3FFF80
3FFB80
3FC780
3F0780
3C0780
380780
380F80
380F80
380F80
3C1F80
3E7F80
3FFF80
1FFF80
ENDCHAR
STARTCHAR F09C
ENCODING 61596
SWIDTH 977 0
DWIDTH 19 0
BBX 19 15 0 2
BITMAP
00E000
0FFE00
1FFF00
3FFF80
7FBFC0
F398E0
ED4A60
E94260
E350E0
CFF7E0
7FFFC0
3FFF80
1FFF00
0FFE00
00E000
ENDCHAR
STARTCHAR F09D
ENCODING 61597
SWIDTH 977 0
DWIDTH 19 0
BBX 19 19 0 0
BITMAP
03F800
0FFE00
1FFF00
3FFF80
7FFFC0
7FFFC0
FFFFE0
CA0A60
CAEA60
CAEA60
E2E860
FAEE60
FA0E60
7FFFC0
7FFFC0
3FFF80
1FFF00
0FFE00
03F800
ENDCHAR
STARTCHAR F09E
ENCODING 61598
SWIDTH 977 0
DWIDTH 19 0
BBX 19 19 0 0
BITMAP
FFFFE0
C00060
9CE020
9DF020
81FFA0
BC0020
FFFFA0
800020
9FE7A0
9FEFA0
800FE0
BDF020
81FFA0
BC0020
BFFFE0
FFFFE0
FFFFE0
FFFFE0
FFFFE0
ENDCHAR
STARTCHAR F09F
ENCODING 61599
SWIDTH 977 0
DWIDTH 19 0
BBX 19 19 0 0
BITMAP
FFFF80
800000
BFFFE0
BFFFE0
B00020
B78020
B78020
B78020
B78420
B00E20
B01F20
B33FA0
B79FA0
B7CFA0
B00020
BFFFE0
BFFFE0
3FFFE0
3FFFE0
ENDCHAR
STARTCHAR F0A0
ENCODING 61600
SWIDTH 977 0
DWIDTH 19 0
BBX 19 19 0 0
BITMAP
038000
078000
078000
078000
030000
FFFC00
FFFC00
FFFC00
FFFC00
FFFC00
0FFDE0
07FFE0
07FFE0
8FFDC0
FCFC00
F87C00
F87C00
F87C00
FC7C00
ENDCHAR
STARTCHAR F0A1
ENCODING 61601
SWIDTH 977 0
DWIDTH 19 0
BBX 19 19 0 0
BITMAP
664CC0
76EDC0
76EDC0
204080
000000
FFFFE0
FFFFE0
8F1220
8F1220
DFB360
FFFFE0
8913E0
8913E0
FFFFE0
F9F320
F9F220
F9F320
FFFFE0
FFFFE0
ENDCHAR
STARTCHAR F0A2
ENCODING 61602
SWIDTH 977 0
DWIDTH 19 0
BBX 19 19 0 0
BITMAP
03F800
07FC00
071C00
060C00
FFFFE0
FFFFE0
E1F0E0
000000
F3F9E0
C3F1E0
E1F0E0
FFFFE0
FFFFE0
FFFFE0
FFFFE0
FFFFE0
FFFFE0
FFFFE0
FFFFE0
ENDCHAR
STARTCHAR F0A3
ENCODING 61603
SWIDTH 977 0
DWIDTH 19 0
BBX 19 19 0 0
BITMAP
03F800
0FFE00
1F1F00
3C0780
7C07C0
78E3C0
F9F3E0
F9F3E0
FFE3E0
FFC3E0
FF87E0
FF1FE0
FF1FE0
7FFFC0
7FBFC0
3F1F80
1FBF00
0FFE00
03F800
ENDCHAR
STARTCHAR F0A4
ENCODING 61604
SWIDTH 977 0
DWIDTH 19 0
BBX 19 15 0 2
BITMAP
0FFE00
3FFF80
7FFFC0
FFFFE0
F21060
EEC7E0
CEEFE0
CECCE0
EE2860
E6E660
F0F060
FFFFE0
7FFFC0
3FFF80
0FFE00
ENDCHAR
STARTCHAR F0A5
ENCODING 61605
SWIDTH 977 0
DWIDTH 19 0
BBX 19 19 0 0
BITMAP
7FFFC0
FFFFE0
FFE060
FFF0E0
FFF1E0
FFFBE0
7FFFE0
380060
380060
380060
3FFFE0
380060
380060
3FFFE0
380060
380060
3800E0
1FFFE0
1FFFC0
ENDCHAR
STARTCHAR F0A6
ENCODING 61606
SWIDTH 977 0
DWIDTH 19 0
BBX 19 19 0 0
BITMAP
01F800
01F800
01F800
01F800
00F800
006000
006000
006000
FFFFE0
7C0200
040200
040200
040200
040200
1F0F80
3F0FC0
3F0FC0
3F0FC0
1F0FC0
ENDCHAR
STARTCHAR F0A7
ENCODING 61607
SWIDTH 977 0
DWIDTH 19 0
BBX 19 19 0 0
BITMAP
01F000
43F840
47BC40
CE0E60
FC07E0
F803E0
180300
180380
7FFFC0
FFFFE0
79F3E0
19F380
1FFF00
FFFFE0
FCE7E0
CCE660
46EC40
43F840
01F000
ENDCHAR
STARTCHAR F0A8
ENCODING 61608
SWIDTH 977 0
DWIDTH 19 0
BBX 19 19 0 0
BITMAP
004000
00E000
10E100
3BFB80
1FFF00
0FFE00
1FFF00
1FFF00
79F3C0
F8E3E0
79F7C0
1FFF00
1FFF00
0E0E00
1FFF00
3BFB80
10E100
00E000
004000
ENDCHAR
STARTCHAR F0A9
ENCODING 61609
SWIDTH 977 0
DWIDTH 19 0
BBX 19 19 0 0
BITMAP
100000
380000
700000
F00000
480000
058000
03C000
07E000
07F000
03F800
01FC00
00FE00
007F00
003F80
001F00
000F00
000480
000040
000020
ENDCHAR
STARTCHAR F0AA
ENCODING 61610
SWIDTH 977 0
DWIDTH 19 0
BBX 19 19 0 0
BITMAP
1F0000
3FC000
7FE000
FFF000
FFF800
FFFC00
FFFE00
FFE700
7FC380
7F81C0
3F00C0
1E00E0
0E0060
070060
0380E0
01C0E0
00F3C0
007F80
001F00
ENDCHAR
STARTCHAR F0AB
ENCODING 61611
SWIDTH 977 0
DWIDTH 19 0
BBX 19 19 0 0
BITMAP
07FC00
0FFE00
1C0700
380380
7001C0
E000E0
C00060
C00060
C00060
C00060
C00060
C00060
C00060
E000E0
7001C0
380380
1C0700
0FFE00
07FC00
ENDCHAR
STARTCHAR F0AC
ENCODING 61612
SWIDTH 977 0
DWIDTH 19 0
BBX 19 19 0 0
BITMAP
000600
1F8700
1FF300
1FFF00
0E9F00
0C8380
1CC780
381B80
3E0380
7E0380
781BE0
7C8FE0
ED8F80
CFFF00
07F800
038000
01E000
00F000
003000
ENDCHAR
STARTCHAR F0AD
ENCODING 61613
SWIDTH 977 0
DWIDTH 19 0
BBX 19 13 0 3
BITMAP
007F00
FFC1E0
FFFFE0
FFFFE0
E0FFE0
EF7FE0
CF7FE0
CF7FE0
EF7FE0
E07FE0
F9FFE0
FFFFE0
FFFFE0
ENDCHAR
STARTCHAR F0AE
ENCODING 61614
SWIDTH 977 0
DWIDTH 19 0
BBX 19 19 0 0
BITMAP
03F800
0FFE00
1FFF00
3FFF80
7FFFC0
7FE7C0
FBE7E0
F9E7E0
F9FFE0
FFFFE0
FFFFE0
FFFFE0
FFFCE0
7FF1C0
7007C0
3FFF80
1FFF00
0FFE00
03F800
ENDCHAR
STARTCHAR F0AF
ENCODING 61615
SWIDTH 977 0
DWIDTH 19 0
BBX 17 19 1 0
BITMAP
00C000
0CC400
0CCE00
0CCC00
ECCC00
ECCC00
64CC00
644C00
240800
000000
0FF000
1FF800
3C3380
380380
780780
3C1F00
3E7E00
1FF800
07E000
ENDCHAR
STARTCHAR F0B0
ENCODING 61616
SWIDTH 977 0
DWIDTH 19 0
BBX 19 19 0 0
BITMAP
03F800
0FFE00
1FCF00
3F8380
701FC0
7007C0
F003E0
F933E0
F91BE0
FF1FE0
FF1FE0
FF10E0
F1F060
7040C0
7001C0
3FFF80
1FFF00
0FFE00
03F800
ENDCHAR
STARTCHAR F0B1
ENCODING 61617
SWIDTH 977 0
DWIDTH 19 0
BBX 19 19 0 0
BITMAP
1F0000
7F8000
718000
E1C000
C08000
C00000
C00000
C08180
C0C180
C0E1C0
C3F7E0
C0C180
C08180
C00000
C08000
E1C000
718000
7F8000
1F0000
ENDCHAR
STARTCHAR F0B2
ENCODING 61618
SWIDTH 977 0
DWIDTH 19 0
BBX 19 19 0 0
BITMAP
1E0000
7F8000
718000
E18000
C08000
C00000
C00440
C00FE0
C00440
C00440
C00440
C00FE0
C00440
C00000
C08000
E1C000
718000
7F8000
1F0000
ENDCHAR
STARTCHAR F0B3
ENCODING 61619
SWIDTH 977 0
DWIDTH 19 0
BBX 19 19 0 0
BITMAP
7C07C0
FC07E0
E000E0
C00060
C00060
C00060
C00060
C00060
C00060
C00060
C00060
C00060
C00060
C00060
C00060
C00060
E000E0
FC07E0
7C07C0
ENDCHAR
STARTCHAR F0B4
ENCODING 61620
SWIDTH 977 0
DWIDTH 19 0
BBX 19 19 0 0
BITMAP
1E0F00
1E0F00
380380
380380
380380
380380
380380
380380
7001C0
C00060
7001C0
380380
380380
380380
380380
380380
380380
1E0F00
1E0F00
ENDCHAR
STARTCHAR F0B5
ENCODING 61621
SWIDTH 977 0
DWIDTH 19 0
BBX 19 19 0 0
BITMAP
071C00
0E0E00
0E0E00
1C0700
1C0700
380380
380380
7001C0
7001C0
E000E0
7001C0
7001C0
380380
380380
1C0700
1C0700
0E0E00
0E0E00
071C00
ENDCHAR
STARTCHAR F0B6
ENCODING 61622
SWIDTH 977 0
DWIDTH 19 0
BBX 19 18 0 1
BITMAP
000E00
183F00
3C7F00
FCFF00
7DFF80
7BFFC0
7BFFC0
7FFFE0
3FFFA0
1FFFA0
037DA0
036C80
026C80
024880
022080
021080
026880
0C0180
ENDCHAR
STARTCHAR F0B7
ENCODING 61623
SWIDTH 977 0
DWIDTH 19 0
BBX 19 19 0 0
BITMAP
03F800
0FFE00
1F3F00
3F1F80
7F1FC0
7E0FC0
F803E0
F289E0
E584E0
E504E0
C50460
C50460
E504E0
6484C0
7289C0
380380
1F1F00
0FBE00
03F800
ENDCHAR
STARTCHAR F0B8
ENCODING 61624
SWIDTH 977 0
DWIDTH 19 0
BBX 19 19 0 0
BITMAP
1F0000
7F8000
7F8000
3F8000
0E0000
040000
040000
FFC180
FFE3C0
FFE7E0
FFFFE0
FFC3C0
040180
040180
0E0180
3F8180
7F8180
7FFF80
1F0000
ENDCHAR
STARTCHAR F0B9
ENCODING 61625
SWIDTH 977 0
DWIDTH 19 0
BBX 19 15 0 2
BITMAP
00C000
03F000
07F800
0FFC00
0FF000
0FEF00
0FFFC0
4FFFC0
EFFFE0
F7FFE0
FFFFE0
FFFFE0
7FFFC0
7FFF80
1FFE00
ENDCHAR
STARTCHAR F0BA
ENCODING 61626
SWIDTH 977 0
DWIDTH 19 0
BBX 19 18 0 0
BITMAP
01E000
07F000
07F800
0FFC00
0FF000
0FEF80
0FDFC0
4FFFC0
EFFFE0
F79FE0
FF0FE0
FE07E0
7C03C0
3F0F80
010800
010800
019800
00F000
ENDCHAR
STARTCHAR F0BB
ENCODING 61627
SWIDTH 977 0
DWIDTH 19 0
BBX 19 19 0 0
BITMAP
01E000
07F800
0FF800
0FF800
0FF000
0FEF80
0FDFC0
4FFFE0
E7FFE0
FBDFE0
FF0FE0
FF0FE0
7F0FC0
3C0380
060600
030C00
018800
00D000
006000
ENDCHAR
STARTCHAR F0BC
ENCODING 61628
SWIDTH 977 0
DWIDTH 19 0
BBX 19 19 0 0
BITMAP
01E000
07F800
0FF800
0FF800
0FF000
0FEF80
0FDFC0
4FFFE0
E7FFE0
FBFFE0
FFFFE0
FF1FE0
7F7FC0
3C7980
047100
02FB80
03E700
01CC00
007800
ENDCHAR
STARTCHAR F0BD
ENCODING 61629
SWIDTH 977 0
DWIDTH 19 0
BBX 19 19 0 0
BITMAP
FF8000
FFC000
E1D100
C1DB80
C1D900
C1C000
FFC300
FF8380
380000
000000
000380
383FE0
187FE0
007060
137060
3B7060
1170E0
007FE0
003FE0
ENDCHAR
STARTCHAR F0BE
ENCODING 61630
SWIDTH 977 0
DWIDTH 19 0
BBX 17 19 1 0
BITMAP
03E000
07F000
0F7800
1C1C00
180C00
180C00
180C00
180C00
7FFF00
FFFF80
FE3F80
FC1F80
FC1F80
FE3F80
FE3F80
FE3F80
FE3F80
FC1F80
FFFF80
ENDCHAR
STARTCHAR F0BF
ENCODING 61631
SWIDTH 977 0
DWIDTH 19 0
BBX 17 19 1 0
BITMAP
03E000
07F000
0F7800
1C1C00
180C00
180C00
000C00
000C00
7FFF00
FFFF80
FE3F80
FC1F80
FC1F80
FE3F80
FE3F80
FE3F80
FE3F80
FC1F80
FFFF80
ENDCHAR
STARTCHAR F0C0
ENCODING 61632
SWIDTH 977 0
DWIDTH 19 0
BBX 19 19 0 0
BITMAP
080060
1FFFE0
1E01C0
1F03C0
3F8740
3FCE40
3FFC40
3FF840
1FF840
1FFC40
1FFE40
0FFF40
07FFC0
03FFC0
1FFFE0
3FFFC0
7F9E00
FF8000
FF8000
ENDCHAR
STARTCHAR F0C1
ENCODING 61633
SWIDTH 977 0
DWIDTH 19 0
BBX 17 19 1 0
BITMAP
FFFF80
FFFF80
C00180
C00180
FFFF80
800080
FFFF80
800080
FFFF80
C00180
C00180
FFFF80
800000
FFDF80
801F00
FFDE00
FFDC00
FFD800
FFD000
ENDCHAR
STARTCHAR F0C2
ENCODING 61634
SWIDTH 977 0
DWIDTH 19 0
BBX 17 19 1 0
BITMAP
FFFF80
FFFF80
FFFF80
FFFF80
E0C380
FFFF80
FFFF80
E20380
FFFF80
FFFF80
FFFF80
E02380
FFFF80
FFFF80
E22380
FFFF80
FFFF80
FFFF80
FFFF80
ENDCHAR
STARTCHAR F0C3
ENCODING 61635
SWIDTH 977 0
DWIDTH 19 0
BBX 19 19 0 0
BITMAP
7FFFC0
FFFFE0
F91220
F91220
FFFFE0
F91220
FFFFE0
F91220
FFFFE0
F91220
F91220
FFFFE0
F91220
FFFFE0
F91220
FFFFE0
FFFFE0
F91220
7FFFC0
ENDCHAR
STARTCHAR F0C4
ENCODING 61636
SWIDTH 977 0
DWIDTH 19 0
BBX 19 19 0 -1
BITMAP
FFFFE0
000000
7FFFC0
FFFFE0
FFFFE0
FFFFE0
FFFFE0
FFFFE0
FFFFE0
FFFFE0
FFFFE0
FFFFE0
000000
FFFFE0
03B800
031800
071C00
060C00
060C00
ENDCHAR
STARTCHAR F0C5
ENCODING 61637
SWIDTH 977 0
DWIDTH 19 0
BBX 19 19 0 0
BITMAP
03E000
0FF800
3E7C00
380E00
700700
E00300
E00300
C00380
C00380
C00380
E00300
600700
700600
381E00
1FFF00
0FF380
01C1C0
0000E0
000060
ENDCHAR
STARTCHAR F0C6
ENCODING 61638
SWIDTH 977 0
DWIDTH 19 0
BBX 17 19 1 0
BITMAP
FFD000
FFD800
FFDC00
FFDE00
FFDF00
FFDF80
FFC000
FFFF80
FEFF80
FCFF80
FCFF80
FCFF80
E00F80
E00F80
FCFF80
FCFF80
FCFF80
FEFF80
FFFF80
ENDCHAR
STARTCHAR F0C7
ENCODING 61639
SWIDTH 977 0
DWIDTH 19 0
BBX 17 19 1 0
BITMAP
FFD000
FFD800
FFDC00
FFDE00
FFDF00
FFDF80
FFC000
FFFF80
FFFF80
E79F80
E31F80
F03F80
F87F80
F87F80
F03F80
E31F80
E79F80
FFFF80
FFFF80
ENDCHAR
STARTCHAR F0C8
ENCODING 61640
SWIDTH 977 0
DWIDTH 19 0
BBX 19 19 0 0
BITMAP
FFFF80
C003C0
C073E0
C073E0
C073E0
C073E0
E003E0
FFFFE0
FFFFE0
F001E0
C00060
CFFE60
C00060
C00060
CFFE60
C00060
C00060
C00060
CFFE60
ENDCHAR
STARTCHAR F0C9
ENCODING 61641
SWIDTH 977 0
DWIDTH 19 0
BBX 19 19 0 0
BITMAP
FFF000
FFF000
E07000
E07000
FFF000
FFF000
C077E0
FFF7E0
FFF0E0
E070E0
E077E0
FFF7E0
FFF060
0007E0
01FFE0
01C0E0
01C0E0
01FFE0
01FFE0
ENDCHAR
STARTCHAR F0CA
ENCODING 61642
SWIDTH 977 0
DWIDTH 19 0
BBX 18 19 1 1
BITMAP
080000
040000
060000
030000
030000
818000
E1C000
38C000
1EE000
07E000
01F000
00FBC0
003E40
001E40
001FC0
003600
002200
003600
001C00
ENDCHAR
STARTCHAR F0CB
ENCODING 61643
SWIDTH 977 0
DWIDTH 19 0
BBX 17 19 1 0
BITMAP
03E000
77F700
F7F780
F3E780
F00780
FFFF80
FFFF80
FFFF80
FFFF80
FFFF80
FFFF80
FFFF80
FFFF80
FFFF80
FFFF80
FFFF80
FFFF80
FFFF80
FFFF80
ENDCHAR
STARTCHAR F0CC
ENCODING 61644
SWIDTH 977 0
DWIDTH 19 0
BBX 19 19 0 0
BITMAP
03F800
0FFE00
1FFF00
3FFF80
7FFFC0
7FFFC0
FF1FE0
FEEFE0
FDB7E0
FD17E0
FDB7E0
FEEFE0
FF1FE0
7FFFC0
7FFFC0
3FFF80
1FFF00
0FFE00
03F800
ENDCHAR
STARTCHAR F0CD
ENCODING 61645
SWIDTH 977 0
DWIDTH 19 0
BBX 19 19 0 0
BITMAP
03F800
0FFE00
1F1F00
3E0780
7E03C0
7F05C0
FF08E0
E7F0E0
C1B060
C11060
C1B060
E1FCE0
E21FE0
741FC0
780FC0
3C0F80
1F1F00
0FFE00
03F800
ENDCHAR
STARTCHAR F0CE
ENCODING 61646
SWIDTH 977 0
DWIDTH 19 0
BBX 19 19 0 0
BITMAP
01F000
FFFFE0
FFFFE0
7FFFC0
000000
7FFFC0
7FFFC0
73B9C0
7319C0
7319C0
7319C0
7319C0
7319C0
7319C0
7319C0
7319C0
77BDC0
7FFFC0
3FFF80
ENDCHAR
STARTCHAR F0CF
ENCODING 61647
SWIDTH 977 0
DWIDTH 19 0
BBX 19 19 0 0
BITMAP
01F000
FFFFE0
FFFFE0
7FFFC0
000000
6000C0
7001C0
7001C0
7001C0
7001C0
7001C0
7001C0
7001C0
7001C0
7001C0
7001C0
7001C0
7FFFC0
3FFF80
ENDCHAR
STARTCHAR F0D0
ENCODING 61648
SWIDTH 977 0
DWIDTH 19 0
BBX 19 19 0 0
BITMAP
01F000
FFFFE0
FFFFE0
7FFFC0
000000
7FFFC0
7FFFC0
7FFFC0
7FFFC0
7FFFC0
7FFFC0
7FFFC0
7FFFC0
7FFFC0
7FFFC0
7FFFC0
7FFFC0
7FFFC0
3FFF80
ENDCHAR
STARTCHAR F0D1
ENCODING 61649
SWIDTH 977 0
DWIDTH 19 0
BBX 19 19 0 0
BITMAP
03F800
0FFE00
1FFF00
3FFF80
7F1FC0
7F1FC0
FF1FE0
FF1FE0
F001E0
F001E0
F001E0
FF1FE0
FF1FE0
7F1FC0
7F1FC0
3FFF80
1FFF00
0FFE00
03F800
ENDCHAR
STARTCHAR F0D2
ENCODING 61650
SWIDTH 977 0
DWIDTH 19 0
BBX 19 19 0 0
BITMAP
03F800
0FFE00
1FFF00
3FFF80
7FFFC0
79F3C0
F8E3E0
FC47E0
FE0FE0
FF1FE0
FE0FE0
FC47E0
F8E3E0
79F3C0
7FFFC0
3FFF80
1FFF00
0FFE00
03F800
ENDCHAR
STARTCHAR F0D3
ENCODING 61651
SWIDTH 977 0
DWIDTH 19 0
BBX 19 19 0 0
BITMAP
03F800
0FFE00
1FFF00
3FFF80
7FFFC0
7FFFC0
FFF9E0
FFF1E0
F7E1E0
F3C3E0
F187E0
F80FE0
FC1FE0
7E3FC0
7FFFC0
3FFF80
1FFF00
0FFE00
03F800
ENDCHAR
STARTCHAR F0D4
ENCODING 61652
SWIDTH 977 0
DWIDTH 19 0
BBX 13 19 4 0
BITMAP
0D80
39C0
72E0
F2F0
F2F0
F2F0
F9F0
3DC0
8018
FFF8
FFF8
FFF8
FFF8
FFF0
FFF0
FFF0
7FE0
3FC0
0F80
ENDCHAR
STARTCHAR F0D5
ENCODING 61653
SWIDTH 977 0
DWIDTH 19 0
BBX 19 19 0 0
BITMAP
FFFFE0
FFFFE0
C00060
C00060
CFF060
CFC060
CF8060
CF0060
CC0060
C80060
C00060
C00060
FFFFE0
FFFFE0
00E000
00E000
00E000
07FC00
07FC00
ENDCHAR
STARTCHAR F0D6
ENCODING 61654
SWIDTH 977 0
DWIDTH 19 0
BBX 17 19 1 0
BITMAP
FFD000
FFD800
FFDC00
FFDE00
FFDF00
FFDF80
FFC000
FFFF80
FFFF80
FFFF80
FFFF80
FFFF80
FFFF80
FFFF80
FFFF80
FFFF80
FFFF80
FFFF80
FFFF80
ENDCHAR
STARTCHAR F0D7
ENCODING 61655
SWIDTH 977 0
DWIDTH 19 0
BBX 18 19 1 0
BITMAP
080400
6BF480
EBF4C0
EBF0C0
E3F9C0
FFFFC0
FFFFC0
E000C0
FFFFC0
FFFFC0
FFFFC0
E000C0
FFFFC0
FFFFC0
E000C0
FFFFC0
FFFFC0
FFFFC0
7FFF80
ENDCHAR
STARTCHAR F0D8
ENCODING 61656
SWIDTH 977 0
DWIDTH 19 0
BBX 19 16 0 1
BITMAP
3FFF80
7FFFC0
400040
4FC040
4F8040
4E0040
4C0040
480040
400040
400040
7FFFC0
7FFFC0
000000
7FFFC0
FFFFE0
FFFFE0
ENDCHAR
STARTCHAR F0D9
ENCODING 61657
SWIDTH 977 0
DWIDTH 19 0
BBX 19 19 0 0
BITMAP
7FFFC0
FFFFE0
FFFFE0
FFFFE0
C0C060
CEC060
C0C060
CEC060
C0C060
CEC060
CEC060
C0C060
CEC060
C0C060
CEC060
C0C060
E0C0E0
FFFFE0
7FFFC0
ENDCHAR
STARTCHAR F0DA
ENCODING 61658
SWIDTH 977 0
DWIDTH 19 0
BBX 19 19 0 0
BITMAP
7F0000
FF1FC0
001FC0
003FE0
FFFFE0
FFFFE0
FFFFE0
FFFFE0
FFF3E0
FFF3E0
FFF3E0
FFF3E0
FF0020
FF0020
FFF3E0
FFF3E0
3FF380
001200
001E00
ENDCHAR
STARTCHAR F0DB
ENCODING 61659
SWIDTH 977 0
DWIDTH 19 0
BBX 19 19 0 -1
BITMAP
7F0000
FF1FC0
001FC0
003FE0
FFFFE0
FFFFE0
FFFFE0
FFFFE0
FFFFE0
FFFFE0
FF1C60
FF88E0
FFC1E0
FFE3E0
FFC1E0
FF88E0
3F1C40
01B6C0
00E380
ENDCHAR
STARTCHAR F0DC
ENCODING 61660
SWIDTH 977 0
DWIDTH 19 0
BBX 11 19 4 0
BITMAP
8000
C000
E000
F000
F800
FC00
FE00
FF00
FF80
FFC0
FFE0
FFE0
FE00
F600
E700
C300
8380
0380
0180
ENDCHAR
STARTCHAR F0DD
ENCODING 61661
SWIDTH 977 0
DWIDTH 19 0
BBX 13 19 4 0
BITMAP
1000
3000
3000
3000
3000
3000
3B00
FFC0
FFD0
FFF8
FFF8
FFF8
FFF8
FFF8
7FF8
7FF8
7FF0
3FF0
3FE0
ENDCHAR
STARTCHAR F0DE
ENCODING 61662
SWIDTH 977 0
DWIDTH 19 0
BBX 17 19 1 0
BITMAP
008000
0DD800
0DD800
0DD800
0DD980
0DDB80
0FFB00
47FB00
E7FB00
77FF00
7FFF00
3FFF00
1FFF00
1FFF00
0FFE00
0FFE00
0FFE00
07FC00
03FC00
ENDCHAR
STARTCHAR F0DF
ENCODING 61663
SWIDTH 977 0
DWIDTH 19 0
BBX 11 19 4 1
BITMAP
6600
6600
6600
6600
6600
7600
7E00
7F80
FFA0
FFE0
FFE0
FFE0
FFE0
FFE0
FFE0
FFE0
FFE0
FFC0
7FC0
ENDCHAR
STARTCHAR F0E0
ENCODING 61664
SWIDTH 977 0
DWIDTH 19 0
BBX 19 19 0 0
BITMAP
7FFFC0
FFFC60
FFFC20
FFFE60
7FFFC0
000000
000000
7FFFC0
FE0060
FE0020
FE0060
7FFFC0
000000
000000
7FFFC0
FFE060
FFE020
FFE060
7FFFC0
ENDCHAR
STARTCHAR F0E1
ENCODING 61665
SWIDTH 977 0
DWIDTH 19 0
BBX 17 19 1 0
BITMAP
7BEF00
FBEF80
FBEF80
FBEF80
71C700
000000
FBEF80
FBEF80
FBEF80
FBEF80
FBEF80
FBEF80
FBEF80
000000
71C700
FBEF80
FBEF80
FBEF80
7BEF00
ENDCHAR
STARTCHAR F0E2
ENCODING 61666
SWIDTH 977 0
DWIDTH 19 0
BBX 19 19 0 0
BITMAP
003000
007000
00F000
01F080
03F0C0
FBF240
FBF260
FBF320
FBF120
FBF120
FBF120
FBF320
FBF260
FBF640
03F0C0
01F180
00F000
007000
003000
ENDCHAR
STARTCHAR F0E3
ENCODING 61667
SWIDTH 977 0
DWIDTH 19 0
BBX 17 19 0 0
BITMAP
003000
007000
00F000
01F000
03F000
FBF200
FBF300
FBF100
FBF180
FBF180
FBF180
FBF100
FBF100
FBF200
03F000
01F000
00F000
007000
003000
ENDCHAR
STARTCHAR F0E4
ENCODING 61668
SWIDTH 977 0
DWIDTH 19 0
BBX 19 19 0 0
BITMAP
003000
007000
00F000
01F000
03F000
FBF000
FBF000
FBF660
FBF3C0
FBF180
FBF3C0
FBF660
FBF000
FBF000
03F000
01F000
00F000
007000
003000
ENDCHAR
STARTCHAR F0E5
ENCODING 61669
SWIDTH 977 0
DWIDTH 19 0
BBX 19 19 0 0
BITMAP
000420
000C40
001880
003100
006200
3EC400
3E8800
3E1000
3E2000
3C4400
388C00
311C00
223C00
047C00
087C00
103C00
201C00
400C00
800400
ENDCHAR
STARTCHAR F0E6
ENCODING 61670
SWIDTH 977 0
DWIDTH 19 0
BBX 15 19 2 0
BITMAP
7FFC
7FFC
C006
C006
DF86
DF06
DF06
DE06
DC06
D806
D806
D006
C006
C006
FFFE
FEFE
FC7E
7EFC
7FFC
ENDCHAR
STARTCHAR F0E7
ENCODING 61671
SWIDTH 977 0
DWIDTH 19 0
BBX 15 19 2 0
BITMAP
3FF8
7FFC
C006
C006
DF86
DF86
DF06
DF06
DE06
DC06
DC06
D806
D806
D006
C006
C006
C006
7FFC
3FF8
ENDCHAR
STARTCHAR F0E8
ENCODING 61672
SWIDTH 977 0
DWIDTH 19 0
BBX 10 19 5 0
BITMAP
6000
6000
6000
6000
FFC0
FFC0
C0C0
C0C0
C0C0
E1C0
FFC0
DAC0
FFC0
DAC0
FFC0
DAC0
DAC0
FFC0
FFC0
ENDCHAR
STARTCHAR F0E9
ENCODING 61673
SWIDTH 977 0
DWIDTH 19 0
BBX 19 19 0 0
BITMAP
0F0000
3FC000
79E000
E07000
CF7000
CF3000
0F0000
0F0000
060000
060000
060000
060000
7FFFC0
FFFFE0
EF70E0
C67060
EF78E0
FFFFE0
7FFFC0
ENDCHAR
STARTCHAR F0EA
ENCODING 61674
SWIDTH 977 0
DWIDTH 19 0
BBX 19 19 0 -1
BITMAP
C00000
E78000
7FC000
3FE000
3FC000
7FE000
7FF000
7E7000
7E0100
3F0380
1707C0
030FC0
001FC0
003FC0
007F80
00FF80
007FC0
003CE0
000060
ENDCHAR
STARTCHAR F0EB
ENCODING 61675
SWIDTH 977 0
DWIDTH 19 0
BBX 9 19 5 0
BITMAP
3E00
7F00
FF80
FF80
FF80
FF80
FF80
7F00
3E00
3E00
3E00
3E00
7F00
7F00
7F00
FF80
FF80
FF80
FF80
ENDCHAR
STARTCHAR F0EC
ENCODING 61676
SWIDTH 977 0
DWIDTH 19 0
BBX 18 19 1 0
BITMAP
03F000
03F000
03F000
03F000
03F000
03F000
00C000
00C000
00C000
00FF00
7FFF80
60C080
60C080
60C080
60C080
60C180
F1E3C0
F1E3C0
F0E1C0
ENDCHAR
STARTCHAR F0ED
ENCODING 61677
SWIDTH 977 0
DWIDTH 19 0
BBX 17 19 1 0
BITMAP
180C00
180C00
180C00
180C00
180C00
000000
FFFF80
FFFF80
FFFF80
7FFF00
7FFF00
7FFF00
3FFE00
1FFC00
07F000
01C000
01C000
01C000
008000
ENDCHAR
STARTCHAR F0EE
ENCODING 61678
SWIDTH 977 0
DWIDTH 19 0
BBX 18 19 1 0
BITMAP
FFFFC0
FFFFC0
CAD440
8AD440
8A5440
800040
800040
800040
800040
800040
800040
800040
F003C0
F003C0
1C0F00
1C0F00
1C0E00
07F800
07F800
ENDCHAR
STARTCHAR F0EF
ENCODING 61679
SWIDTH 977 0
DWIDTH 19 0
BBX 19 19 0 1
BITMAP
0FD000
0FD800
0FDC00
0FDE00
0FDE00
0FC000
0FFE00
0FFE00
0FFE00
0FFE00
0FFE00
0FFE00
0FFE00
0FFE00
00E000
00E000
00E000
FFFFE0
FFFFE0
ENDCHAR
STARTCHAR F0F0
ENCODING 61680
SWIDTH 977 0
DWIDTH 19 0
BBX 19 19 0 0
BITMAP
F80000
FF0000
FF0000
FF0000
FF0000
FF0000
FF0E00
080FE0
080FE0
080FE0
0FFFE0
080FE0
080000
080E00
080FE0
080FE0
080FE0
0FFFE0
000FE0
ENDCHAR
STARTCHAR F0F1
ENCODING 61681
SWIDTH 977 0
DWIDTH 19 0
BBX 19 19 0 0
BITMAP
03F800
0FFE00
1F1F00
3C0780
73F9C0
77FDC0
EF1EE0
EEEEE0
CDF660
DDF660
CDF660
ECE6E0
ECE6E0
70E1C0
70E1C0
38E380
10E100
00E000
004000
ENDCHAR
STARTCHAR F0F2
ENCODING 61682
SWIDTH 977 0
DWIDTH 19 0
BBX 19 19 0 0
BITMAP
1FF400
3FF600
3FF700
1FF780
0FF7C0
67F7E0
E3F000
49FFE0
1CFFE0
1E7FE0
0F3FE0
279FE0
33CFE0
39EFE0
3CEFE0
3E0FE0
3F1FE0
3FFFE0
1FFFE0
ENDCHAR
STARTCHAR F0F3
ENCODING 61683
SWIDTH 977 0
DWIDTH 19 0
BBX 19 15 0 2
BITMAP
3FFE00
FFFF00
FFFF80
C00380
C00380
C043E0
C3C3E0
CFFBE0
C1E3E0
C103E0
C00380
C00380
FFFF80
FFFF00
3FFE00
ENDCHAR
STARTCHAR F0F4
ENCODING 61684
SWIDTH 977 0
DWIDTH 19 0
BBX 19 15 0 2
BITMAP
3FFE00
FFFF00
FFFF80
FFFF80
FFFF80
FFFFE0
FC7FE0
FE7FE0
FE1FE0
FEFFE0
FFFF80
FFFF80
FFFF80
FFFF00
3FFE00
ENDCHAR
STARTCHAR F0F5
ENCODING 61685
SWIDTH 977 0
DWIDTH 19 0
BBX 19 15 0 2
BITMAP
3FFE00
FFFF00
FFFF80
C00380
C00380
C003E0
C003E0
C003E0
C003E0
C003E0
C00380
C00380
FFFF80
FFFF00
3FFE00
ENDCHAR
STARTCHAR F0F6
ENCODING 61686
SWIDTH 977 0
DWIDTH 19 0
BBX 19 15 0 2
BITMAP
3FFE00
FFFF00
FFFF80
F80380
F80380
F803E0
F803E0
F803E0
F803E0
F803E0
F80380
F80380
FFFF80
FFFF00
3FFE00
ENDCHAR
STARTCHAR F0F7
ENCODING 61687
SWIDTH 977 0
DWIDTH 19 0
BBX 19 15 0 2
BITMAP
3FFE00
FFFF00
FFFF80
FE0380
FE0380
FE03E0
FE03E0
FE03E0
FE03E0
FE03E0
FE0380
FE0380
FFFF80
FFFF00
3FFE00
ENDCHAR
STARTCHAR F0F8
ENCODING 61688
SWIDTH 977 0
DWIDTH 19 0
BBX 19 15 0 2
BITMAP
3FFE00
FFFF00
FFFF80
FFC380
FFC380
FFC3E0
FFC3E0
FFC3E0
FFC3E0
FFC3E0
FFC380
FFC380
FFFF80
FFFF00
3FFE00
ENDCHAR
STARTCHAR F0F9
ENCODING 61689
SWIDTH 977 0
DWIDTH 19 0
BBX 19 15 0 2
BITMAP
3FFE00
FFFF00
FFFF80
FFF380
FFF380
FFF3E0
FFF3E0
FFF3E0
FFF3E0
FFF3E0
FFF380
FFF380
FFFF80
FFFF00
3FFE00
ENDCHAR
STARTCHAR F0FA
ENCODING 61690
SWIDTH 977 0
DWIDTH 19 0
BBX 19 15 0 2
BITMAP
3FFE00
FFFF00
FFFF80
FFFF80
FFFF80
FFFFE0
FFFFE0
FFFFE0
FFFFE0
FFFFE0
FFFF80
FFFF80
FFFF80
FFFF00
3FFE00
ENDCHAR
STARTCHAR F0FB
ENCODING 61691
SWIDTH 977 0
DWIDTH 19 0
BBX 19 19 0 0
BITMAP
FFFFE0
800020
BFFC20
BFF820
BFE020
BFC020
BF0020
BE0020
BC0020
B00020
A00020
800020
FFFFE0
FFFFE0
FFFFE0
00E000
00E000
00E000
03F800
ENDCHAR
STARTCHAR F0FC
ENCODING 61692
SWIDTH 977 0
DWIDTH 19 0
BBX 19 19 0 0
BITMAP
300180
7803C0
F007E0
EE0FE0
5E0FC0
1DF780
1BFB00
03B800
031800
03F800
01F000
00E000
000000
01F000
01F000
000000
000000
01F000
01F000
ENDCHAR
STARTCHAR F0FD
ENCODING 61693
SWIDTH 977 0
DWIDTH 19 0
BBX 18 16 1 2
BITMAP
7FFF80
FFFFC0
FFFFC0
F807C0
F003C0
E041C0
E0C0C0
E000C0
E000C0
E408C0
E408C0
E000C0
E000C0
FFFFC0
7FFFC0
3FFF00
ENDCHAR
STARTCHAR F0FE
ENCODING 61694
SWIDTH 977 0
DWIDTH 19 0
BBX 15 19 2 0
BITMAP
07C0
1FF0
3C78
701C
77DC
67CC
E38E
E00E
600C
600C
701C
3C78
1FF0
0FE0
0000
0FC0
0FE0
1FF0
1FF0
ENDCHAR
STARTCHAR F0FF
ENCODING 61695
SWIDTH 977 0
DWIDTH 19 0
BBX 19 19 0 0
BITMAP
07FC00
1FFF00
7F1FC0
F001E0
C00060
07FC00
1FFF00
3E0F80
180300
004000
03F800
07FC00
031800
000000
00E000
01F000
01F000
01F000
00E000
ENDCHAR
STARTCHAR F100
ENCODING 61696
SWIDTH 977 0
DWIDTH 19 0
BBX 17 19 1 0
BITMAP
000180
000380
000380
000380
000380
003380
003380
003380
003380
003380
063380
063380
063380
063380
463380
E63380
E63380
E63380
C63180
ENDCHAR
STARTCHAR F101
ENCODING 61697
SWIDTH 977 0
DWIDTH 19 0
BBX 17 19 1 0
BITMAP
03E000
03E000
3FFE00
7FFF00
FFFF80
E00380
EFFB80
EFFB80
E00380
EFFB80
EFFB80
EFFB80
E00380
EFFB80
EFFB80
E00380
E00380
FFFF80
7FFF00
ENDCHAR
STARTCHAR F102
ENCODING 61698
SWIDTH 977 0
DWIDTH 19 0
BBX 17 19 1 0
BITMAP
03E000
03E000
3FFE00
7FFF00
FFFF80
E00380
E00380
E00380
E00380
EFFB80
EFFB80
EFFB80
E00380
EFFB80
EFFB80
E00380
E00380
FFFF80
7FFF00
ENDCHAR
STARTCHAR F103
ENCODING 61699
SWIDTH 977 0
DWIDTH 19 0
BBX 17 19 1 0
BITMAP
03E000
03E000
3FFE00
7FFF00
FFFF80
E00380
E00380
E00380
E00380
E00380
E00380
E00380
E00380
EFFB80
EFFB80
E00380
E00380
FFFF80
7FFF00
ENDCHAR
STARTCHAR F104
ENCODING 61700
SWIDTH 977 0
DWIDTH 19 0
BBX 17 19 1 0
BITMAP
03E000
03E000
3FFE00
7FFF00
FFFF80
E00380
E08380
E08380
E0C380
E0C380
E1C380
E1E380
E18380
E08380
E08380
E00380
E00380
FFFF80
7FFF00
ENDCHAR
STARTCHAR F105
ENCODING 61701
SWIDTH 977 0
DWIDTH 19 0
BBX 19 19 0 0
BITMAP
3E3C00
3E7C00
3E7C00
3E7C00
3E3C00
000000
000000
F9F3E0
F9F3E0
F9F3E0
F9F3E0
F9F3E0
000000
000000
0F1E00
0F1E00
0F1E00
0F1E00
0F1E00
ENDCHAR
STARTCHAR F106
ENCODING 61702
SWIDTH 977 0
DWIDTH 19 0
BBX 17 19 1 1
BITMAP
0FFF80
1FFF80
3BD780
7AD480
EAD480
EAD480
EFFF80
FFFF80
FFFF80
FFFF80
7FFF00
7FFF00
FFFF80
FFFF80
FFFF80
FFFF80
FFFF80
FFFF80
7FFF00
ENDCHAR
STARTCHAR F107
ENCODING 61703
SWIDTH 977 0
DWIDTH 19 0
BBX 17 19 1 0
BITMAP
0FFF80
0AD680
0AD480
0AD480
1AD680
3FFF80
7FFF80
FFFF80
FFFF80
FFFF80
7FFF80
7FFF80
7FFF80
FFFF80
FFFF80
FFFF80
FFFF80
FFFF80
7FFF00
ENDCHAR
STARTCHAR F108
ENCODING 61704
SWIDTH 977 0
DWIDTH 19 0
BBX 19 19 0 0
BITMAP
C00000
400000
400000
400000
4FFFE0
4E0020
4EFFA0
4EF3A0
4EEDA0
4EEDA0
4EEDA0
4EF3A0
4EFFA0
4E0020
4FFFE0
4FFFE0
4FFFE0
456A40
452A40
ENDCHAR
STARTCHAR F109
ENCODING 61705
SWIDTH 977 0
DWIDTH 19 0
BBX 19 19 0 0
BITMAP
76EE00
F6EE00
E00600
C00600
000000
C00600
C00600
000000
C00000
C00000
C00600
000600
C00600
F63FE0
F63FE0
000600
000600
000600
000600
ENDCHAR
STARTCHAR F10A
ENCODING 61706
SWIDTH 977 0
DWIDTH 19 0
BBX 19 19 0 0
BITMAP
004000
00E000
100100
380380
13F900
07FC00
0F1E00
0E0E00
4C0640
CC0660
4C0640
0E0E00
0F1E00
07FC00
13F900
380380
100100
00E000
004000
ENDCHAR
STARTCHAR F10B
ENCODING 61707
SWIDTH 977 0
DWIDTH 19 0
BBX 19 19 0 0
BITMAP
004000
00E000
100100
380380
13F900
07FC00
0FFE00
0FFE00
4FFE40
CFFE60
4FFE40
0FFE00
0FFE00
07FC00
13F900
380380
100100
00E000
004000
ENDCHAR
STARTCHAR F10C
ENCODING 61708
SWIDTH 977 0
DWIDTH 19 0
BBX 19 19 0 0
BITMAP
004000
00E000
100100
380380
13F900
07FC00
0FDE00
0FCE00
4FC640
CFC660
4FC640
0FCE00
0FDE00
07FC00
13F900
380380
100100
00E000
004000
ENDCHAR
STARTCHAR F10D
ENCODING 61709
SWIDTH 977 0
DWIDTH 19 0
BBX 13 19 4 0
BITMAP
0600
0600
0700
0F00
0600
0678
0678
C678
E620
E620
4660
4780
6600
3E00
0600
0600
0F00
0F00
0600
ENDCHAR
STARTCHAR F10E
ENCODING 61710
SWIDTH 977 0
DWIDTH 19 0
BBX 18 19 1 0
BITMAP
7FFF80
FFBFC0
FF3FC0
FF1FC0
FE1FC0
FFB0C0
E3B0C0
E3B0C0
E3BBC0
F7BBC0
F7B3C0
F38FC0
FC3FC0
FFBFC0
FF3FC0
FE1FC0
FE1FC0
FF3FC0
7FFF80
ENDCHAR
STARTCHAR F10F
ENCODING 61711
SWIDTH 977 0
DWIDTH 19 0
BBX 15 19 2 0
BITMAP
3FF8
27C8
27C8
27C8
3FF8
0000
7FFC
FFFE
FFFE
FFFE
FFFE
FFFE
FFFE
7FFC
7FFC
3FF8
0FE0
07C0
07C0
ENDCHAR
STARTCHAR F110
ENCODING 61712
SWIDTH 977 0
DWIDTH 19 0
BBX 19 19 0 0
BITMAP
F9F3E0
F9F3E0
F9F3E0
F9F3E0
F0E1E0
000000
000000
F1F1E0
F9F3E0
F9F3E0
F9F3E0
F1F1E0
000000
000000
F0E1E0
F9F3E0
F9F3E0
F9F3E0
F9F3E0
ENDCHAR
STARTCHAR F111
ENCODING 61713
SWIDTH 977 0
DWIDTH 19 0
BBX 19 19 0 0
BITMAP
F9FFE0
F9FFE0
F9FFE0
F9FFE0
F0FFE0
000000
000000
F1FFE0
F9FFE0
F9FFE0
F9FFE0
F1FFE0
000000
000000
F0FFE0
F9FFE0
F9FFE0
F9FFE0
F9FFE0
ENDCHAR
STARTCHAR F112
ENCODING 61714
SWIDTH 977 0
DWIDTH 19 0
BBX 19 19 0 0
BITMAP
FF1FE0
FF1FE0
E318E0
C31860
C31860
C31860
FF1FE0
FF1FE0
000000
000000
000000
FF1FE0
FF1FE0
C31860
C31860
C31860
E318E0
FF1FE0
FF1FE0
ENDCHAR
STARTCHAR F113
ENCODING 61715
SWIDTH 977 0
DWIDTH 19 0
BBX 19 19 0 0
BITMAP
F80000
F8FFE0
F9FFE0
F8FFC0
F00000
000000
000000
F00000
F8FFC0
F9FFE0
F8FFC0
F00000
000000
000000
F00000
F8FFC0
F9FFE0
F8FFE0
F80000
ENDCHAR
STARTCHAR F114
ENCODING 61716
SWIDTH 977 0
DWIDTH 19 0
BBX 19 19 0 0
BITMAP
7FFFC0
FF66E0
FE6460
FF6EE0
FFFFE0
C00060
C00060
C40060
C60060
C30060
C30060
C60060
C43C60
C00060
C00060
C00060
E000E0
FFFFE0
7FFFC0
ENDCHAR
STARTCHAR F115
ENCODING 61717
SWIDTH 977 0
DWIDTH 19 0
BBX 18 17 1 1
BITMAP
7FFF80
FFFFC0
FFFFC0
E000C0
E000C0
E000C0
E000C0
E000C0
E000C0
E000C0
E000C0
E001C0
FFBFC0
FFBFC0
FFBFC0
FFBFC0
7FBF80
ENDCHAR
STARTCHAR F116
ENCODING 61718
SWIDTH 977 0
DWIDTH 19 0
BBX 19 19 0 0
BITMAP
7F0FC0
FE1FE0
FF0FE0
FF0FE0
FE1FE0
FF0FE0
FE1FE0
FF0FE0
FE1FE0
FF1FE0
FF0FE0
FE0FE0
FE0FE0
FE4FE0
FEEFE0
FE0FE0
FF1FE0
FFFFE0
7FFFC0
ENDCHAR
STARTCHAR F117
ENCODING 61719
SWIDTH 977 0
DWIDTH 19 0
BBX 19 19 0 0
BITMAP
01F000
FDF7E0
FDF7E0
FDF7E0
F9F3E0
FBFBE0
02E800
FAEBE0
FAEBE0
FA4BE0
FA0BE0
FA0BE0
020800
FBFBE0
F9F3E0
FDF7E0
FDF7E0
FDF7E0
01F000
ENDCHAR
STARTCHAR F118
ENCODING 61720
SWIDTH 977 0
DWIDTH 19 0
BBX 19 15 0 2
BITMAP
3FFF80
FFFFE0
FFFFE0
C00060
CFF060
CFE060
CFC060
CF0060
CE0060
CC0060
C00060
C00060
FFFFE0
FFFFE0
3FFF80
ENDCHAR
STARTCHAR F119
ENCODING 61721
SWIDTH 977 0
DWIDTH 19 0
BBX 19 17 0 1
BITMAP
CDDB80
CDDB80
CD9B80
000000
F6EDC0
F6EDC0
000000
FB3660
FB7660
FB3660
000000
F6EDC0
F6EDC0
000000
CDFE60
CDFE60
CDFE60
ENDCHAR
STARTCHAR F11A
ENCODING 61722
SWIDTH 977 0
DWIDTH 19 0
BBX 19 19 0 0
BITMAP
01F000
01F000
01F000
01F000
01F000
01F000
01F000
3FFF80
1FFF00
0FFE00
07FC00
03F800
01F000
00E000
C00060
C00060
E000E0
FFFFE0
7FFFC0
ENDCHAR
STARTCHAR F11B
ENCODING 61723
SWIDTH 977 0
DWIDTH 19 0
BBX 19 19 0 0
BITMAP
004000
00E000
01F000
03F800
07FC00
0FFE00
1FFF00
01F000
01F000
01F000
01F000
01F000
01F000
01F000
C00060
C00060
E000E0
FFFFE0
7FFFC0
ENDCHAR
STARTCHAR F11C
ENCODING 61724
SWIDTH 977 0
DWIDTH 19 0
BBX 19 19 0 0
BITMAP
000200
000700
000F80
001FC0
003FC0
1E3FE0
3E0F80
3E0F80
3E0F80
3E0F80
3E0F80
3E0F80
3E0F80
FFCF80
7F8000
3F0000
3E0000
1C0000
080000
ENDCHAR
STARTCHAR F11D
ENCODING 61725
SWIDTH 977 0
DWIDTH 19 0
BBX 19 19 0 0
BITMAP
004000
00E000
10E100
38E380
70E1C0
70E1C0
E0E0E0
E0E0E0
C0E060
C04060
C00060
E000E0
E000E0
7001C0
7001C0
3C0780
1F1F00
0FFE00
03F800
ENDCHAR
STARTCHAR F11E
ENCODING 61726
SWIDTH 977 0
DWIDTH 19 0
BBX 19 19 0 0
BITMAP
03F800
0FFE00
1F1F00
3C0780
7001C0
70E1C0
E0E0E0
E0E0E0
C0E060
C0E060
C0E060
E0E0E0
E0E0E0
70E1C0
7001C0
3C0780
1F1F00
0FFE00
03F800
ENDCHAR
STARTCHAR F11F
ENCODING 61727
SWIDTH 977 0
DWIDTH 19 0
BBX 19 19 0 0
BITMAP
004000
00E000
10E100
38E380
1C4700
0C0600
000000
000000
7001C0
F803E0
7001C0
000000
000000
0C0600
1C4700
38E380
10E100
00E000
004000
ENDCHAR
STARTCHAR F120
ENCODING 61728
SWIDTH 977 0
DWIDTH 19 0
BBX 19 19 0 1
BITMAP
000300
00F780
00F780
047800
0E7C80
1E07C0
0E03E0
6C01E0
F40000
E40000
6C0000
1C01E0
1E03E0
1E07C0
0C7C80
047200
00F780
007780
000300
ENDCHAR
STARTCHAR F121
ENCODING 61729
SWIDTH 977 0
DWIDTH 19 0
BBX 15 19 2 1
BITMAP
7FE0
FFF0
FFF8
FFFC
FFFE
FFFE
FFFE
C99E
C99E
DDBE
FFFE
C99E
C99E
C99E
FFFE
C99E
C99E
C99E
7FFC
ENDCHAR
STARTCHAR F122
ENCODING 61730
SWIDTH 977 0
DWIDTH 19 0
BBX 19 19 0 0
BITMAP
FFFFE0
FFFFE0
380380
380380
380380
180300
1FFF00
0FFE00
0FFE00
03F800
0FFE00
0EEE00
1CE700
18E300
38E380
39F380
3FFF80
FFFFE0
FFFFE0
ENDCHAR
STARTCHAR F123
ENCODING 61731
SWIDTH 977 0
DWIDTH 19 0
BBX 19 19 0 0
BITMAP
FFFFE0
FFFFE0
380380
380380
380380
180300
1C0700
0E0E00
0FFE00
03F800
0FFE00
0E0E00
1C0700
180300
380380
380380
380380
FFFFE0
FFFFE0
ENDCHAR
STARTCHAR F124
ENCODING 61732
SWIDTH 977 0
DWIDTH 19 0
BBX 19 19 0 0
BITMAP
7FFFC0
FFFFE0
E070E0
C07060
C07060
C07060
FFF060
FFF060
C07060
C07060
C07060
C07060
C07060
C07060
C07060
C07060
E070E0
FFFFE0
7FFFC0
ENDCHAR
STARTCHAR F125
ENCODING 61733
SWIDTH 977 0
DWIDTH 19 0
BBX 19 19 0 0
BITMAP
1FFF00
3FFF80
3FFF80
3FFF80
3FFF80
3FFF80
000000
7FFFC0
FFFFE0
F001E0
C00060
CC0060
CC0060
C00060
FFFFE0
FFFFE0
3FFF80
3FFF80
1FFF00
ENDCHAR
STARTCHAR F126
ENCODING 61734
SWIDTH 977 0
DWIDTH 19 0
BBX 11 19 4 0
BITMAP
1F00
3F80
7FC0
FFE0
F1E0
FBE0
FFE0
FFE0
FFE0
FFE0
FFE0
FFE0
FFE0
FFE0
FFE0
FFE0
7FC0
3F80
1F00
ENDCHAR
STARTCHAR F127
ENCODING 61735
SWIDTH 977 0
DWIDTH 19 0
BBX 19 19 0 0
BITMAP
7FFFC0
FFFFE0
FFFFE0
FFFFE0
7FFFC0
000000
000000
7FFFC0
FFFFE0
FFFFE0
FFFFE0
7FFFC0
000000
000000
7FFFC0
FFFFE0
FFFFE0
FFFFE0
7FFFC0
ENDCHAR
STARTCHAR F128
ENCODING 61736
SWIDTH 977 0
DWIDTH 19 0
BBX 19 19 0 0
BITMAP
03F800
0FFE00
1F1F00
3E0780
7E03C0
7F05C0
FF08E0
E7F0E0
C1B060
C11060
C1BFE0
E1F9E0
E239E0
742020
783060
3C38E0
1F3DC0
0FFFC0
03FF00
ENDCHAR
STARTCHAR F129
ENCODING 61737
SWIDTH 977 0
DWIDTH 19 0
BBX 16 19 2 0
BITMAP
0760
1F78
3E7C
381E
77EE
67E7
E3C7
E007
E007
6007
7006
700E
3C3C
1F78
0F70
0004
381C
3FFE
3FFC
ENDCHAR
STARTCHAR F12A
ENCODING 61738
SWIDTH 977 0
DWIDTH 19 0
BBX 19 15 0 2
BITMAP
200080
7001C0
300180
080200
07FC00
0FFE00
1FFF00
3FFF80
7FFFC0
73F9C0
F3F9E0
FFFFE0
FFFFE0
FFFFE0
7FFFC0
ENDCHAR
STARTCHAR F12B
ENCODING 61739
SWIDTH 977 0
DWIDTH 19 0
BBX 15 19 2 0
BITMAP
0600
0780
07E0
07F0
073C
E71E
7F3C
3FF0
1FE0
0780
1FE0
3FF0
7F3C
E71E
073C
07F0
07E0
0780
0600
ENDCHAR
STARTCHAR F12C
ENCODING 61740
SWIDTH 977 0
DWIDTH 19 0
BBX 19 19 0 0
BITMAP
03F800
0FFE00
1FFF00
3FFF80
7FFFC0
7FFFC0
FFFFE0
FFFFE0
FFFFE0
FFFFE0
FFFFE0
7FFFC0
7FFFC0
3FFF80
1FFF00
1FFC00
0EE000
1C0000
100000
ENDCHAR
STARTCHAR F12D
ENCODING 61741
SWIDTH 977 0
DWIDTH 19 0
BBX 19 19 0 0
BITMAP
03F800
0FFE00
1FFF00
3FFF80
7FFFC0
7FFFC0
FFFFE0
F3B9E0
F319E0
FFFFE0
FFFFE0
7FFFC0
7FFFC0
3FFF80
1FFF00
1FFC00
0EE000
1C0000
100000
ENDCHAR
STARTCHAR F12E
ENCODING 61742
SWIDTH 977 0
DWIDTH 19 0
BBX 19 19 0 0
BITMAP
3FFF80
7FFFC0
F001E0
E000E0
C00060
C00060
C00060
C00060
C00060
C00060
C00060
E000E0
FFFFE0
7FFFC0
01F000
01E000
01C000
018000
010000
ENDCHAR
STARTCHAR F12F
ENCODING 61743
SWIDTH 977 0
DWIDTH 19 0
BBX 19 19 0 0
BITMAP
3FFF80
7FFFC0
FFFFE0
FFFFE0
F1E3E0
F3E7E0
F0E1E0
F0E1E0
F0E1E0
F0E1E0
F0E1E0
FFFFE0
FFFFE0
7FFFC0
007C00
007800
007000
006000
004000
ENDCHAR
STARTCHAR F130
ENCODING 61744
SWIDTH 977 0
DWIDTH 19 0
BBX 19 19 0 0
BITMAP
3FFF80
7FFFC0
FFFFE0
FFFFE0
F001E0
F001E0
FFFFE0
FFFFE0
F001E0
F001E0
F001E0
FFFFE0
FFFFE0
7FFFC0
007C00
007800
007000
006000
004000
ENDCHAR
STARTCHAR F131
ENCODING 61745
SWIDTH 977 0
DWIDTH 19 0
BBX 19 19 0 0
BITMAP
1E0F00
7F1FC0
7FBFC0
FFBFE0
FFBFE0
FFFFE0
FFFFE0
FFFFE0
7FFFC0
7FFFC0
3FFF80
3FFF80
1FFF00
0FFE00
07FC00
03F800
01F000
00E000
004000
ENDCHAR
STARTCHAR F132
ENCODING 61746
SWIDTH 977 0
DWIDTH 19 0
BBX 19 19 0 0
BITMAP
1E0F00
7F1FC0
73B9C0
E1B0E0
C1B060
C0E060
E000E0
E000E0
6000C0
7001C0
300180
380380
1C0700
0E0E00
071C00
03B800
01F000
00E000
004000
ENDCHAR
STARTCHAR F133
ENCODING 61747
SWIDTH 977 0
DWIDTH 19 0
BBX 19 19 0 1
BITMAP
03F800
07FC00
0FFE00
0FFE00
0FFE00
0FFE00
0FFE00
0FFE00
0FFE00
0FFE00
07FC00
03FC00
01F000
03F800
1FFF00
7FFFC0
FFFFE0
FFFFE0
7FFFC0
ENDCHAR
STARTCHAR F134
ENCODING 61748
SWIDTH 977 0
DWIDTH 19 0
BBX 19 19 0 0
BITMAP
001E00
003F00
003F80
003F80
003F00
003F00
003F00
0F1E00
1F9F80
3F9FE0
3F9FE0
3F9FC0
1F8000
1F8000
0F0000
3FC000
7FE000
FFF000
FFE000
ENDCHAR
STARTCHAR F135
ENCODING 61749
SWIDTH 977 0
DWIDTH 19 0
BBX 19 19 0 0
BITMAP
FFFE00
FFFE60
FFFE60
FFFE60
FFFE60
F83E60
F81E00
F81E60
F81E60
F83E60
FC3E60
FC7E60
F01E00
F00E60
FFFE60
FFFE60
FFFE60
FFFE60
FFFE00
ENDCHAR
STARTCHAR F136
ENCODING 61750
SWIDTH 977 0
DWIDTH 19 0
BBX 19 15 0 2
BITMAP
7FFFC0
FFFFE0
FFFFE0
3FFF80
8FFE20
E3F8E0
F8E3E0
FE4FE0
FFBFE0
FFFFE0
FFFFE0
FFFFE0
FFFFE0
FFFFE0
7FFFC0
ENDCHAR
STARTCHAR F137
ENCODING 61751
SWIDTH 977 0
DWIDTH 19 0
BBX 19 17 0 1
BITMAP
0C0600
0C0600
0C0600
CDF660
CDF660
E3F0E0
FFFFE0
F9FFE0
F0F060
F0F020
F0FFE0
F0F1E0
F9FFE0
F0F020
E07FE0
E07FE0
FFFFE0
ENDCHAR
STARTCHAR F138
ENCODING 61752
SWIDTH 977 0
DWIDTH 19 0
BBX 19 19 0 0
BITMAP
001800
001800
001800
003800
007800
00F800
01F000
03F000
07FF00
7FFFC0
FFFFE0
FFFFE0
FFFFC0
FFFFC0
FFFF80
FFFFC0
FFFF80
FFFF80
0FFF00
ENDCHAR
STARTCHAR F139
ENCODING 61753
SWIDTH 977 0
DWIDTH 19 0
BBX 19 19 0 0
BITMAP
0FFF00
FFFF80
FFFF80
FFFFC0
FFFF80
FFFFC0
FFFFC0
FFFFE0
FFFFE0
7FFFC0
07FF00
03F000
01F000
00F800
007800
003800
001800
001800
001800
ENDCHAR
STARTCHAR F13A
ENCODING 61754
SWIDTH 977 0
DWIDTH 19 0
BBX 19 18 0 -1
BITMAP
004000
00E000
00E000
01F000
01F800
07FC00
FFFFE0
FFFFE0
7FFFC0
3FFF80
1FFF00
0FFE00
0FFE00
0FFE00
0FFF00
0FFF00
1F1F00
1C0300
ENDCHAR
STARTCHAR F13B
ENCODING 61755
SWIDTH 977 0
DWIDTH 19 0
BBX 19 18 0 -1
BITMAP
004000
00E000
00E000
01B000
011800
071C00
FE0FE0
E000E0
6000C0
300180
180300
0C0600
0C0200
0C0200
086300
0FFB00
1F1F00
1C0300
ENDCHAR
STARTCHAR F13C
ENCODING 61756
SWIDTH 977 0
DWIDTH 19 0
BBX 19 19 0 0
BITMAP
03F800
0FFE00
1FFF00
3FFF80
7FFFC0
71F1C0
F1F1E0
F1F1E0
F1F1E0
FFFFE0
FFFFE0
FFFFE0
FFFFE0
77FDC0
7803C0
3FFF80
1FFF00
0FFE00
03F800
ENDCHAR
STARTCHAR F13D
ENCODING 61757
SWIDTH 977 0
DWIDTH 19 0
BBX 19 19 0 0
BITMAP
03F800
0FFE00
1FFF00
3FFF80
7FFFC0
71F1C0
F1F1E0
F1F1E0
F1F1E0
FFFFE0
FFFFE0
FFFFE0
FC07E0
73F9C0
77FDC0
3FFF80
1FFF00
0FFE00
03F800
ENDCHAR
STARTCHAR F13E
ENCODING 61758
SWIDTH 977 0
DWIDTH 19 0
BBX 19 19 0 0
BITMAP
03F800
0FFE00
1FFF00
3FFF80
7FFFC0
71F1C0
F1F1E0
F1F1E0
F1F1E0
FFFFE0
FFFFE0
FFFFE0
FFFFE0
7803C0
7FFFC0
3FFF80
1FFF00
0FFE00
03F800
ENDCHAR
STARTCHAR F13F
ENCODING 61759
SWIDTH 977 0
DWIDTH 19 0
BBX 19 19 0 0
BITMAP
03F800
0FFE00
1FFF00
3FFF80
7FFFC0
71F1C0
F1F1E0
F1F1E0
F1F1E0
FFFFE0
FFFFE0
FFFFE0
F001E0
70E1C0
79F3C0
3C0780
1F1F00
0FFE00
03F800
ENDCHAR
STARTCHAR F140
ENCODING 61760
SWIDTH 977 0
DWIDTH 19 0
BBX 10 19 5 0
BITMAP
07C0
1FC0
1FC0
3FC0
3C00
3C00
3C00
3C00
FFC0
FFC0
FFC0
FFC0
3C00
3C00
3C00
3C00
3C00
3C00
3800
ENDCHAR
STARTCHAR F141
ENCODING 61761
SWIDTH 977 0
DWIDTH 19 0
BBX 19 19 0 0
BITMAP
1E0000
7FF000
7FFC00
FFFE00
FC0700
F80380
F9F380
79F3C0
781FC0
7C07C0
7F03C0
79F3C0
39F3E0
3803E0
1C07E0
0FFFE0
07FFC0
01FFC0
000F00
ENDCHAR
STARTCHAR F142
ENCODING 61762
SWIDTH 977 0
DWIDTH 19 0
BBX 19 15 0 2
BITMAP
03F800
7FFFC0
FFFFE0
FFFFE0
FE7FE0
FE3FE0
FE0FE0
FE07E0
FE0FE0
FE3FE0
FE7FE0
FFFFE0
7FFFE0
7FFFC0
03F800
ENDCHAR
STARTCHAR F143
ENCODING 61763
SWIDTH 977 0
DWIDTH 19 0
BBX 15 19 2 0
BITMAP
7FFC
7FFC
FFFE
FEFE
FEFE
FC7E
F01E
F01E
F83E
F83E
F83E
FBBE
FFFE
FFFE
FFFE
FEFE
F83E
F01E
4004
ENDCHAR
STARTCHAR F144
ENCODING 61764
SWIDTH 977 0
DWIDTH 19 0
BBX 19 19 0 0
BITMAP
3FFF80
7FFFC0
FFFFE0
FFFFE0
C00060
E000E0
FFFFE0
FFFFE0
E000E0
C00060
E000E0
FFFFE0
FFFFE0
7FFFC0
03F800
01F000
00E000
00E000
004000
ENDCHAR
STARTCHAR F145
ENCODING 61765
SWIDTH 977 0
DWIDTH 19 0
BBX 19 19 0 0
BITMAP
004000
00E000
00E000
01F000
03F800
7FFFC0
FFFFE0
FFFFE0
E000E0
C00060
E000E0
FFFFE0
FFFFE0
E000E0
C00060
FFFFE0
FFFFE0
7FFFC0
3FFF80
ENDCHAR
STARTCHAR F146
ENCODING 61766
SWIDTH 977 0
DWIDTH 19 0
BBX 19 8 0 5
BITMAP
3C0780
7E0FC0
FF1FE0
FF1FE0
FF1FE0
FF1FE0
7F1FC0
3E0F80
ENDCHAR
STARTCHAR F147
ENCODING 61767
SWIDTH 977 0
DWIDTH 19 0
BBX 19 19 0 0
BITMAP
7F3FE0
FF3FE0
E001E0
C003E0
C00760
C00E60
C01C60
C03860
C07060
C0E000
C1C000
C18060
C00060
C00060
C00060
C00060
E000E0
FFFFE0
7FFFC0
ENDCHAR
STARTCHAR F148
ENCODING 61768
SWIDTH 977 0
DWIDTH 19 0
BBX 19 18 0 0
BITMAP
07FC00
3FFF80
7FFFC0
F803E0
FB1BE0
FBFBE0
03F800
0FFE00
3FFF80
7E0FC0
7CE7C0
FDF7E0
FDF7E0
FCE7E0
FE0FE0
FFBFE0
7FFFC0
380380
ENDCHAR
STARTCHAR F149
ENCODING 61769
SWIDTH 977 0
DWIDTH 19 0
BBX 19 19 0 0
BITMAP
FC0000
FDFFC0
FDFFE0
FDFFE0
FD0020
FD0020
FDFFE0
FD1220
FD1220
FDB360
FDFFE0
FD1220
FD1220
FDFFE0
011320
FF1220
FFB320
FFFFE0
7FFFC0
ENDCHAR
STARTCHAR F14A
ENCODING 61770
SWIDTH 977 0
DWIDTH 19 0
BBX 19 19 0 0
BITMAP
7FFFC0
FFFFE0
FFF8E0
FFF860
FFF860
FFF860
FFFFE0
FF1FE0
E60CE0
C60C60
C60C60
C71C60
C3F860
C1F060
C00060
C00060
E000E0
FFFFE0
7FFFC0
ENDCHAR
STARTCHAR F14B
ENCODING 61771
SWIDTH 977 0
DWIDTH 19 0
BBX 19 19 0 0
BITMAP
7FFFC0
FFFFE0
FFF1E0
FFC1E0
FFC1E0
FFCFE0
FFCFE0
FFCFE0
FF01E0
FE01E0
FF01E0
FFCFE0
FFCFE0
FFCFE0
E0C8E0
C0C860
E0D8E0
FFFFE0
7FFFC0
ENDCHAR
STARTCHAR F14C
ENCODING 61772
SWIDTH 977 0
DWIDTH 19 0
BBX 19 19 0 0
BITMAP
03F800
0FFE00
1F1F00
3F8F80
71DDC0
70F9C0
E0F8E0
FFF0E0
FFF060
C03060
C03FE0
E0FFE0
E1F8E0
7399C0
7319C0
3F1F80
1F1F00
0FFE00
03F800
ENDCHAR
STARTCHAR F14D
ENCODING 61773
SWIDTH 977 0
DWIDTH 19 0
BBX 19 19 0 0
BITMAP
7FFFC0
FFFFE0
FFBFE0
FF1FE0
FF1FE0
FE0FE0
FE0FE0
FC07E0
FC07E0
F803E0
F833E0
F3E1E0
F1E9E0
E0F0E0
E0E0E0
C0E060
E0E0E0
FFFFE0
7FFFC0
ENDCHAR
STARTCHAR F14E
ENCODING 61774
SWIDTH 977 0
DWIDTH 19 0
BBX 19 19 0 0
BITMAP
03F800
0FFE00
1FFF00
3FFF80
1FFFC0
5E0000
CCE7E0
E9F3E0
E3FBE0
F3FBE0
FBFBE0
F9F3E0
FCE7E0
7E07C0
7FEFC0
3FCF80
1FDF00
0FBE00
033800
ENDCHAR
STARTCHAR F14F
ENCODING 61775
SWIDTH 977 0
DWIDTH 19 0
BBX 19 19 0 0
BITMAP
1FFFE0
07FFE0
73FFE0
FBFFE0
F3FFE0
0783E0
3F03E0
0703E0
7303E0
FB83E0
7387E0
07C7E0
3F01E0
0601E0
F3FFE0
FBFFE0
73FFE0
07FFE0
1FFFE0
ENDCHAR
STARTCHAR F150
ENCODING 61776
SWIDTH 977 0
DWIDTH 19 0
BBX 19 15 0 2
BITMAP
7FFFC0
FFFFE0
87FC20
83F820
81F020
88E220
8C4620
8E0E20
8D1620
8BBA20
87FC20
8FFE20
8FFE20
FFFFE0
7FFFC0
ENDCHAR
STARTCHAR F151
ENCODING 61777
SWIDTH 977 0
DWIDTH 19 0
BBX 19 19 0 0
BITMAP
FF0000
FF0000
381FE0
1C1FE0
1E1FE0
0E0700
070E00
071C00
03B800
03F000
01E000
01E000
01E000
01E000
01E000
01E000
01E000
07F800
07F800
ENDCHAR
STARTCHAR F152
ENCODING 61778
SWIDTH 977 0
DWIDTH 19 0
BBX 19 19 0 0
BITMAP
7FFFC0
FFC060
FFC020
FFC020
FFC020
FFC020
FFC020
FFC020
FFC020
800020
807FE0
807FE0
807FE0
807FE0
807FE0
807FE0
807FE0
C07FE0
7FFFC0
ENDCHAR
STARTCHAR F153
ENCODING 61779
SWIDTH 977 0
DWIDTH 19 0
BBX 19 19 0 1
BITMAP
FBC460
EF6660
C676E0
C673C0
C673C0
C673C0
C67180
C63180
000180
000380
000100
000000
000000
000000
C00060
C00060
C00060
FFFFE0
FFFFE0
ENDCHAR
STARTCHAR F154
ENCODING 61780
SWIDTH 977 0
DWIDTH 19 0
BBX 19 18 0 1
BITMAP
000300
003F80
006700
004200
004000
73F9C0
9FFF20
8FFE20
F9F3E0
39F380
79F3C0
7FFFC0
7FFFC0
3DF780
3C0780
1FFF00
0FFE00
01F000
ENDCHAR
STARTCHAR F155
ENCODING 61781
SWIDTH 977 0
DWIDTH 19 0
BBX 19 19 0 0
BITMAP
03F800
0FFE00
1FFF00
3FFF80
7FFFC0
7FFFC0
FFFFE0
FFFFE0
FFFFE0
FFFFE0
FFFFE0
FFFFE0
FFFFE0
7FFFC0
7FFFC0
7FFF80
7FFF00
7FFE00
43F800
ENDCHAR
STARTCHAR F156
ENCODING 61782
SWIDTH 977 0
DWIDTH 19 0
BBX 19 19 0 0
BITMAP
03F800
0FFE00
1F1F00
3C0780
7001C0
7001C0
E000E0
E000E0
C00060
C00060
C00060
E000E0
E000E0
7001C0
7001C0
7C0780
7F1F00
7FFE00
43F800
ENDCHAR
STARTCHAR F157
ENCODING 61783
SWIDTH 977 0
DWIDTH 19 0
BBX 19 19 0 0
BITMAP
03F800
0FFE00
1FFF00
3FFF80
7FFFC0
7FFFC0
FFFFE0
FFFFE0
F9B3E0
F913E0
F9B3E0
FFFFE0
FFFFE0
7FFFC0
7FFFC0
7FFF80
7FFF00
7FFE00
43F800
ENDCHAR
STARTCHAR F158
ENCODING 61784
SWIDTH 977 0
DWIDTH 19 0
BBX 19 19 0 0
BITMAP
03F800
0FFE00
1F1F00
3C0780
7001C0
7001C0
E000E0
E000E0
C64C60
C6EC60
C64C60
E000E0
E000E0
7001C0
7001C0
7C0780
7F1F00
7FFE00
43F800
ENDCHAR
STARTCHAR F159
ENCODING 61785
SWIDTH 977 0
DWIDTH 19 0
BBX 19 19 0 0
BITMAP
7FFFC0
FFFFE0
E4C0E0
C4C060
C4C060
FFFFE0
C00060
C00060
C00060
C00060
C00060
C00060
C00060
C00060
C00060
C00060
E000E0
FFFFE0
7FFFC0
ENDCHAR
STARTCHAR F15A
ENCODING 61786
SWIDTH 977 0
DWIDTH 19 0
BBX 19 19 0 0
BITMAP
FFFFE0
800020
80E020
83F820
83F820
83F820
83F820
83F820
81F020
81F020
83F820
8FFE20
8FFE20
8FFE20
800020
FFFFE0
FFFFE0
FFFFE0
FFFFE0
ENDCHAR
STARTCHAR F15B
ENCODING 61787
SWIDTH 977 0
DWIDTH 19 0
BBX 19 19 0 0
BITMAP
100000
380000
7C0000
FC0000
FC0000
FC0000
F80000
700000
780000
3C0000
3C0000
1E0000
0F0000
0FC380
07E7E0
01FFE0
00FFC0
007F80
000F00
ENDCHAR
STARTCHAR F15C
ENCODING 61788
SWIDTH 977 0
DWIDTH 19 0
BBX 19 19 0 0
BITMAP
101860
381CE0
7C0FC0
FC0780
FC0780
FC0FC0
F81CE0
701860
780000
3C0000
3C0000
1E0000
0F0000
0FC380
07E7C0
01FFE0
00FFC0
007F80
000F00
ENDCHAR
STARTCHAR F15D
ENCODING 61789
SWIDTH 977 0
DWIDTH 19 0
BBX 19 19 0 0
BITMAP
100060
3818E0
7C19C0
FC1B80
FC1F00
FC1E00
F81FC0
701FC0
780000
3C0000
3C0000
1E0000
0F0000
0FC380
07E7C0
01FFE0
00FFC0
007F80
000F00
ENDCHAR
STARTCHAR F15E
ENCODING 61790
SWIDTH 977 0
DWIDTH 19 0
BBX 19 19 0 0
BITMAP
100FE0
380FE0
7C01E0
FC03E0
FC0760
FC0E60
F81C60
701800
780000
3C0000
3C0000
1E0000
0F0000
0FC380
07E7C0
01FFE0
00FFC0
007F80
000F00
ENDCHAR
STARTCHAR F15F
ENCODING 61791
SWIDTH 977 0
DWIDTH 19 0
BBX 15 19 2 0
BITMAP
0180
03C0
07E0
0FE0
1C70
3838
783C
FC7E
FFFE
FFFE
FFFE
FFFE
FFFE
FFFE
FFFE
FFFE
FFFE
7FFC
7FFC
ENDCHAR
STARTCHAR F160
ENCODING 61792
SWIDTH 977 0
DWIDTH 19 0
BBX 19 17 0 1
BITMAP
00E000
03F800
0FFE00
1FFF00
1FE700
3FC380
7FC1C0
7780C0
6100C0
E000E0
C00060
C00060
E000E0
F001E0
7FFFC0
3FFF80
07FC00
ENDCHAR
STARTCHAR F161
ENCODING 61793
SWIDTH 977 0
DWIDTH 19 0
BBX 19 19 0 0
BITMAP
7FFFC0
FFFFE0
FF1FE0
FC07E0
F803E0
F803E0
F803E0
F803E0
F803E0
F803E0
FC07E0
FE0FE0
FF1FE0
FC07E0
F001E0
E000E0
E000E0
C00060
400040
ENDCHAR
STARTCHAR F162
ENCODING 61794
SWIDTH 977 0
DWIDTH 19 0
BBX 19 19 0 0
BITMAP
0FC000
387000
601800
400C00
800400
800400
800500
C005C0
400DC0
6019E0
3873E0
3FC7E0
381FE0
27FFC0
03FFC0
01FF80
003B80
000180
000080
ENDCHAR
STARTCHAR F163
ENCODING 61795
SWIDTH 977 0
DWIDTH 19 0
BBX 19 17 0 1
BITMAP
01F000
00F800
02F800
067C00
077C00
0F3E00
1F3F00
1E1F00
3E0F80
3C0F80
7C07C0
F80000
FBFFE0
73FFC0
27FF80
2FFF80
0FFF00
ENDCHAR
STARTCHAR F164
ENCODING 61796
SWIDTH 977 0
DWIDTH 19 0
BBX 19 19 0 0
BITMAP
0C0000
1C0000
1C0000
1C0000
3C0000
FFC000
FFC000
FFC000
3C0000
3C0000
3C0000
3C0000
3C0000
3C03C0
3C07E0
3FE7E0
3FE7E0
1FE7E0
07C3C0
ENDCHAR
STARTCHAR F165
ENCODING 61797
SWIDTH 977 0
DWIDTH 19 0
BBX 19 19 0 0
BITMAP
7FFFC0
C03FE0
18FDE0
3CFDE0
7E7DE0
7E7020
7E7DE0
3E7DE0
1CFFE0
81FFE0
F1FFE0
F1FFE0
F0FFE0
007FE0
7E3FE0
FF3FE0
FF3FE0
FF3FE0
7E7FC0
ENDCHAR
STARTCHAR F166
ENCODING 61798
SWIDTH 977 0
DWIDTH 19 0
BBX 19 19 0 0
BITMAP
7FFFC0
FFFFE0
E7FFE0
C7FFE0
C7FFE0
FFFFE0
C641E0
C600E0
C618E0
C63C60
C63C60
C67C60
C67C60
C67C60
C67C60
C67C60
E67CE0
FFFFE0
7FFFC0
ENDCHAR
STARTCHAR F167
ENCODING 61799
SWIDTH 977 0
DWIDTH 19 0
BBX 19 19 0 0
BITMAP
0FF000
3FF800
7FFC00
7FFE00
FFFE00
F81E00
F81F00
FFFFE0
FFFFE0
FFFFE0
FFFFE0
FFFFE0
F803E0
F803E0
FFFFE0
7FFFC0
7FFFC0
3FFF80
0FFE00
ENDCHAR
STARTCHAR F168
ENCODING 61800
SWIDTH 977 0
DWIDTH 19 0
BBX 19 19 0 0
BITMAP
0E0780
3E0FC0
7F1FE0
7F1FE0
FF1FE0
9F07E0
1F03E0
0F83C0
0F87C0
0F87C0
0F8F80
0F9F80
07FF00
07FE00
07FC00
07FC00
03F800
03F000
01C000
ENDCHAR
STARTCHAR F169
ENCODING 61801
SWIDTH 977 0
DWIDTH 19 0
BBX 19 19 0 0
BITMAP
03F800
0FFF00
3FFF80
7FFFC0
7C03C0
F001E0
F381E0
F3C1E0
F3C1E0
F3C1E0
F3E7C0
63FFC0
43FF80
03FE00
03C000
0FC000
0FC000
0F8000
0F8000
ENDCHAR
STARTCHAR F16A
ENCODING 61802
SWIDTH 977 0
DWIDTH 19 0
BBX 19 16 0 1
BITMAP
000C00
003FC0
603F80
707FE0
7C7F80
3FFF80
7FFF00
7FFF00
3FFF00
1FFF00
3FFE00
1FFC00
03FC00
FFF800
7FE000
1F8000
ENDCHAR
STARTCHAR F16B
ENCODING 61803
SWIDTH 977 0
DWIDTH 19 0
BBX 19 17 0 1
BITMAP
7FFFC0
FFFFE0
FFFFE0
FFFFE0
FFFFE0
F3F9E0
F1F1E0
F0E1E0
F803E0
FC07E0
FE0FE0
7F1FC0
7FFFC0
3FFF80
1FFF00
0FFE00
03F800
ENDCHAR
STARTCHAR F16C
ENCODING 61804
SWIDTH 977 0
DWIDTH 19 0
BBX 19 19 0 0
BITMAP
000380
0007C0
000FE0
000FE0
003FE0
00FFC0
3BE780
7F8000
FE0000
FE0000
FE0000
7F8000
3BE780
00FFC0
003FE0
000FE0
000FE0
0007C0
000380
ENDCHAR
STARTCHAR F16D
ENCODING 61805
SWIDTH 977 0
DWIDTH 19 0
BBX 19 19 0 0
BITMAP
7FFFC0
FFFFE0
E4C0E0
C4C060
C4C060
FFFFE0
C00060
C00060
C04060
C0E060
C0E060
C3F860
C3F860
C0E060
C0E060
C00060
E000E0
FFFFE0
7FFFC0
ENDCHAR
STARTCHAR F16E
ENCODING 61806
SWIDTH 977 0
DWIDTH 19 0
BBX 19 19 0 0
BITMAP
7FFFC0
FFFFE0
E4C0E0
C4C060
C4C060
FFFFE0
C00060
C00060
C00060
C00060
C00060
C3F860
C3F860
C00060
C00060
C00060
E000E0
FFFFE0
7FFFC0
ENDCHAR
STARTCHAR F16F
ENCODING 61807
SWIDTH 977 0
DWIDTH 19 0
BBX 19 19 0 0
BITMAP
3FF000
7FF800
7FFC00
FFFC00
FFFC00
FFFFC0
FFFFE0
C00060
C04060
C0E060
C0E060
C3F860
C3F860
C0E060
C0E060
C00060
E000E0
FFFFE0
7FFFC0
ENDCHAR
STARTCHAR F170
ENCODING 61808
SWIDTH 977 0
DWIDTH 19 0
BBX 19 19 0 0
BITMAP
3FF000
7FF800
7FFC00
FFFC00
FFFC00
FFFFC0
FFFFE0
C00060
C00060
C00060
C00060
C3F860
C3F860
C00060
C00060
C00060
E000E0
FFFFE0
7FFFC0
ENDCHAR
STARTCHAR F171
ENCODING 61809
SWIDTH 977 0
DWIDTH 19 0
BBX 19 19 0 0
BITMAP
7FFFC0
FFFFE0
E000E0
C00060
C00060
C00060
FFFFE0
FFFFE0
FF1FE0
FE0FE0
FE0FE0
FE0FE0
F803E0
FC07E0
FE0FE0
FF1FE0
FFBFE0
FFFFE0
7FFFC0
ENDCHAR
STARTCHAR F172
ENCODING 61810
SWIDTH 977 0
DWIDTH 19 0
BBX 19 19 0 0
BITMAP
7FFFC0
7FFFC0
7FFFC0
7FFFC0
7061C0
7FFFC0
7FFFC0
7101C0
7FFFC0
7FFFC0
7FFFC0
03F800
FBFBE0
F9FBE0
F9F3E0
FC07E0
FC07E0
FFFFE0
FFFFE0
ENDCHAR
STARTCHAR F173
ENCODING 61811
SWIDTH 977 0
DWIDTH 19 0
BBX 19 19 0 0
BITMAP
7FFFC0
7FFFC0
7FFFC0
7FFFC0
7FFFC0
3FFF80
9FFF20
CFFE60
E7FCE0
F3F9E0
F9F3E0
FC07E0
FCE7E0
F9F3E0
F3F9E0
E7FCE0
CFFE60
9FFF20
3FFF80
ENDCHAR
STARTCHAR F174
ENCODING 61812
SWIDTH 977 0
DWIDTH 19 0
BBX 19 19 0 0
BITMAP
01F000
03F800
07BC00
0E0E00
0CEE00
3CFF80
9FE720
CCE660
E60CE0
F3F9E0
F9F3E0
FCE7E0
FC47E0
F913E0
F3F9E0
E7FCE0
CFFE60
9FFF20
3FFF80
ENDCHAR
STARTCHAR F175
ENCODING 61813
SWIDTH 977 0
DWIDTH 19 0
BBX 19 19 0 0
BITMAP
01F000
03F800
07FC00
0FDE00
0FCE00
3C0780
9C0720
CFCE60
E7DCE0
F3F9E0
F9F3E0
FCE7E0
FC47E0
F913E0
F3F9E0
E7FCE0
CFFE60
9FFF20
3FFF80
ENDCHAR
STARTCHAR F176
ENCODING 61814
SWIDTH 977 0
DWIDTH 19 0
BBX 19 19 0 0
BITMAP
01F000
03F800
07BC00
0F1E00
0E0E00
3C0780
9F1F20
CF1E60
E71CE0
F3B9E0
F9F3E0
FCE7E0
FC47E0
F913E0
F3F9E0
E7FCE0
CFFE60
9FFF20
3FFF80
ENDCHAR
STARTCHAR F177
ENCODING 61815
SWIDTH 977 0
DWIDTH 19 0
BBX 19 19 0 0
BITMAP
01F000
03F800
07BC00
0F1E00
0F1E00
3F1F80
9C0720
CE0E60
E71CE0
F3F9E0
F9F3E0
FCE7E0
FC47E0
F913E0
F3F9E0
E7FCE0
CFFE60
9FFF20
3FFF80
ENDCHAR
STARTCHAR F178
ENCODING 61816
SWIDTH 977 0
DWIDTH 19 0
BBX 19 19 0 0
BITMAP
7FFFC0
FFFFE0
F001E0
E000E0
C00060
C1F060
C1F060
C1F060
C7FC60
C3F860
C1F060
C0E060
E040E0
F803E0
FC07E0
FC07E0
FC07E0
FFFFE0
FFFFE0
ENDCHAR
STARTCHAR F179
ENCODING 61817
SWIDTH 977 0
DWIDTH 19 0
BBX 19 19 0 0
BITMAP
7FFFC0
FFFFE0
F001E0
E000E0
C00060
C0E060
C1F060
C3F860
C7FC60
C7F060
C1F060
C1F060
E1F0E0
F803E0
FC07E0
FC07E0
FC07E0
FFFFE0
FFFFE0
ENDCHAR
STARTCHAR F17A
ENCODING 61818
SWIDTH 977 0
DWIDTH 19 0
BBX 19 19 0 0
BITMAP
7FFFC0
FFFFE0
F001E0
E000E0
C00060
C7FC60
C7FC60
C00060
C7FC60
C7FC60
C7FC60
C00060
E000E0
F803E0
FC07E0
FC07E0
FC07E0
FFFFE0
FFFFE0
ENDCHAR
STARTCHAR F17B
ENCODING 61819
SWIDTH 977 0
DWIDTH 19 0
BBX 19 19 0 0
BITMAP
7C0000
FF8000
FFE000
7FF000
01F800
007C00
003E00
781F00
FE0F80
FF0780
7F83C0
07C3C0
03E1C0
01E1E0
60F1E0
F0F1E0
F8F1E0
F8F1E0
7060C0
ENDCHAR
STARTCHAR F17C
ENCODING 61820
SWIDTH 977 0
DWIDTH 19 0
BBX 17 19 1 1
BITMAP
178000
37FC00
77FF00
E7FF80
0FFF80
FFFF80
FFFF80
FFF380
FFF380
FFFF80
FFFF80
7FFF80
7F7F80
3E0780
003780
006780
004700
004700
007E00
ENDCHAR
STARTCHAR F17D
ENCODING 61821
SWIDTH 977 0
DWIDTH 19 0
BBX 19 18 0 0
BITMAP
F001E0
BFFFA0
BFFFA0
F001E0
B001A0
F001E0
B001A0
F001E0
B001A0
B001A0
F001E0
B001A0
F001E0
B001A0
F001E0
F001E0
BFFFA0
F001E0
ENDCHAR
STARTCHAR F17E
ENCODING 61822
SWIDTH 977 0
DWIDTH 19 0
BBX 19 19 0 0
BITMAP
03F800
0FFE00
1F1F00
3C0780
7001C0
7001C0
E180E0
E1E0E0
C1F860
C1FC60
C1F860
E1E0E0
E180E0
7001C0
7001C0
3C0780
1F1F00
0FFE00
03F800
ENDCHAR
STARTCHAR F17F
ENCODING 61823
SWIDTH 977 0
DWIDTH 19 0
BBX 19 19 0 0
BITMAP
03F800
0F1E00
1E0F00
3E0F80
7E0FC0
671CC0
C3F860
C1F060
C3B860
E318E0
FFBFE0
FFFFE0
F0E1E0
70E1C0
70E1C0
30E180
19F300
0FFE00
03F800
ENDCHAR
STARTCHAR F180
ENCODING 61824
SWIDTH 977 0
DWIDTH 19 0
BBX 19 19 0 0
BITMAP
01F000
07FC00
0F1E00
1C0700
380380
300180
7001C0
7001C0
7001C0
7001C0
7803C0
7803C0
F803E0
F803E0
F803E0
F803E0
7803C0
7803C0
180300
ENDCHAR
STARTCHAR F181
ENCODING 61825
SWIDTH 977 0
DWIDTH 19 0
BBX 19 19 0 0
BITMAP
0001E0
003FE0
07FFE0
07FFE0
07FFE0
07FC60
078060
060060
060060
060060
060060
060060
0607E0
060FE0
3E0FE0
FE0FC0
FE0380
FE0000
7C0000
ENDCHAR
STARTCHAR F182
ENCODING 61826
SWIDTH 977 0
DWIDTH 19 0
BBX 19 19 0 0
BITMAP
806000
C07000
E07800
F07C00
F87E00
FC7F00
FE7F80
FF7FC0
FFFFC0
FFFFE0
FFFFC0
FF7FC0
FE7F80
FC7F00
F87E00
F07C00
E07800
C07000
806000
ENDCHAR
STARTCHAR F183
ENCODING 61827
SWIDTH 977 0
DWIDTH 19 0
BBX 19 19 0 0
BITMAP
00C020
01C060
03C0E0
07C1E0
0FC3E0
1FC7E0
3FCFE0
7FDFE0
7FFFE0
FFFFE0
7FFFE0
7FDFE0
3FCFE0
1FC7E0
0FC3E0
07C1E0
03C0E0
01C060
00C020
ENDCHAR
STARTCHAR F184
ENCODING 61828
SWIDTH 977 0
DWIDTH 19 0
BBX 17 19 1 0
BITMAP
C00000
F00000
FC0000
FE0000
FF8000
FFE000
FFF800
FFFC00
FFFF00
FFFF80
FFFF00
FFFC00
FFF800
FFE000
FF8000
FE0000
FC0000
F00000
C00000
ENDCHAR
STARTCHAR F185
ENCODING 61829
SWIDTH 977 0
DWIDTH 19 0
BBX 19 19 0 0
BITMAP
7FFFC0
FFFFE0
FFFFE0
FFFFE0
FFFFE0
FFFFE0
FFFFE0
FFFFE0
FFFFE0
FFFFE0
FFFFE0
FFFFE0
FFFFE0
FFFFE0
FFFFE0
FFFFE0
FFFFE0
FFFFE0
7FFFC0
ENDCHAR
STARTCHAR F186
ENCODING 61830
SWIDTH 977 0
DWIDTH 19 0
BBX 19 19 0 0
BITMAP
7C07C0
FE0FE0
FE0FE0
FE0FE0
FE0FE0
FE0FE0
FE0FE0
FE0FE0
FE0FE0
FE0FE0
FE0FE0
FE0FE0
FE0FE0
FE0FE0
FE0FE0
FE0FE0
FE0FE0
FE0FE0
7C07C0
ENDCHAR
STARTCHAR F187
ENCODING 61831
SWIDTH 977 0
DWIDTH 19 0
BBX 19 19 0 0
BITMAP
000600
000700
000780
0007C0
FFFFE0
FFFFE0
E007C0
C00700
C00640
C00060
4C0060
1C0060
3C00E0
FFFFE0
FFFFE0
7C0000
3C0000
1C0000
0C0000
ENDCHAR
STARTCHAR F188
ENCODING 61832
SWIDTH 977 0
DWIDTH 19 0
BBX 19 19 0 0
BITMAP
000600
000700
000780
0007C0
F87FE0
FE7FE0
0F4780
030700
030600
030000
030600
038700
0BC780
FDFFE0
F87FE0
0007C0
000780
000700
000600
ENDCHAR
STARTCHAR F189
ENCODING 61833
SWIDTH 977 0
DWIDTH 19 0
BBX 19 19 0 0
BITMAP
03F800
0FFE00
1FFF00
3FFF80
7FFFC0
7FFFC0
FFFFE0
FFFFE0
FFFFE0
FFFFE0
FFFFE0
FFFFE0
FFFFE0
7FFFC0
7FFFC0
3FFF80
1FFF00
0FFE00
03F800
ENDCHAR
STARTCHAR F18A
ENCODING 61834
SWIDTH 977 0
DWIDTH 19 0
BBX 19 19 0 0
BITMAP
C001C0
E003E0
F003E0
F803E0
FC03E0
FF03E0
FF83E0
FFC3E0
FFE3E0
FFF3E0
FFE3E0
FFC3E0
FF83E0
FF03E0
FC03E0
F803E0
F003E0
E003E0
C001C0
ENDCHAR
STARTCHAR F18B
ENCODING 61835
SWIDTH 977 0
DWIDTH 19 0
BBX 19 19 0 0
BITMAP
700060
F800E0
F801E0
F803E0
F807E0
F81FE0
F83FE0
F87FE0
F8FFE0
F9FFE0
F8FFE0
F87FE0
F83FE0
F81FE0
F807E0
F803E0
F801E0
F800E0
700060
ENDCHAR
STARTCHAR F18C
ENCODING 61836
SWIDTH 977 0
DWIDTH 19 0
BBX 15 19 2 0
BITMAP
0380
07C0
0FE0
0FE0
0FE0
0FE0
0FE0
4FE4
EFEE
EFEE
67CC
739C
3838
1FF0
0FE0
0380
0380
1FF0
1FF0
ENDCHAR
STARTCHAR F18D
ENCODING 61837
SWIDTH 977 0
DWIDTH 19 0
BBX 15 19 2 0
BITMAP
0700
0780
07E0
07F0
07F8
07FC
07FC
073E
073E
071C
071C
0738
0730
0700
3F00
7F00
FF00
7E00
3C00
ENDCHAR
STARTCHAR F18E
ENCODING 61838
SWIDTH 977 0
DWIDTH 19 0
BBX 19 19 0 0
BITMAP
6040C0
70E1C0
70E1C0
70E1C0
7001C0
71F1C0
71F1C0
7001C0
70E1C0
70E1C0
70E000
70E3E0
00E3E0
F8E000
F8E1C0
00E1C0
00E1C0
70E1C0
6040C0
ENDCHAR
STARTCHAR F18F
ENCODING 61839
SWIDTH 977 0
DWIDTH 19 0
BBX 19 17 0 1
BITMAP
F00000
F80000
700000
000000
F803E0
F803E0
000000
70E1C0
F9F3E0
70E1C0
000000
F9F3E0
F9F3E0
000000
70E1C0
F9F3E0
F0E1E0
ENDCHAR
STARTCHAR F190
ENCODING 61840
SWIDTH 977 0
DWIDTH 19 0
BBX 11 19 4 0
BITMAP
FFE0
8020
8020
8020
8020
8020
8020
FFE0
F1E0
C460
9F20
BFA0
B1A0
B1A0
BFA0
9F20
C460
F1E0
FFE0
ENDCHAR
STARTCHAR F191
ENCODING 61841
SWIDTH 977 0
DWIDTH 19 0
BBX 19 19 0 -1
BITMAP
1F0000
358000
7FC000
FFC000
B56000
FFE000
B56000
FFC800
75D800
3F9C00
0E3E00
00FF00
01FF00
007F80
003FC0
001FC0
0007E0
0003C0
000080
ENDCHAR
STARTCHAR F192
ENCODING 61842
SWIDTH 977 0
DWIDTH 19 0
BBX 19 19 0 0
BITMAP
004000
00E000
000000
000000
000000
01F000
03F800
000000
000000
07FC00
07FC00
0FFE00
000000
000000
1FFF00
1FFF00
3FFF80
FFFFE0
FFFFE0
ENDCHAR
STARTCHAR F193
ENCODING 61843
SWIDTH 977 0
DWIDTH 19 0
BBX 19 19 0 1
BITMAP
0003E0
00FFE0
7FFF60
FFBE60
EF9F00
E78000
E00000
E38E20
E79E60
C71C60
FFFFE0
FFFFE0
C00060
FFFFE0
FFFFE0
E000E0
E000E0
FFFFE0
FFFFE0
ENDCHAR
STARTCHAR F194
ENCODING 61844
SWIDTH 977 0
DWIDTH 19 0
BBX 19 19 0 0
BITMAP
010000
010800
030C00
030C00
03CC00
0BED80
3FEDC0
7FFFC0
7FFFC0
FFFFE0
7FFFC0
7FFFC0
3FEDC0
0BED80
03CC00
030C00
030C00
010800
010000
ENDCHAR
STARTCHAR F195
ENCODING 61845
SWIDTH 977 0
DWIDTH 19 0
BBX 19 17 0 1
BITMAP
1FFF00
3FFF80
3FFF80
380380
380380
FFFFE0
FFFFE0
F3F9E0
C1F060
9EEF20
BEEFA0
BEEFA0
DCE760
C00060
FFFFE0
FFFFE0
FFFFE0
ENDCHAR
STARTCHAR F196
ENCODING 61846
SWIDTH 977 0
DWIDTH 19 0
BBX 19 16 0 3
BITMAP
040000
060000
070000
07C000
7FE7C0
FFE7E0
E780E0
C70060
C60060
C40060
C00060
C00060
C00060
FFFFE0
FFFFE0
3FFF80
ENDCHAR
STARTCHAR F197
ENCODING 61847
SWIDTH 977 0
DWIDTH 19 0
BBX 19 19 0 0
BITMAP
706000
F87000
F87800
F87C00
F87E00
F87F00
F87F80
F87FC0
F87FC0
F87FE0
F87FC0
F87FC0
F87F80
F87F00
F87E00
F87C00
F87800
F87000
706000
ENDCHAR
STARTCHAR F198
ENCODING 61848
SWIDTH 977 0
DWIDTH 19 0
BBX 19 19 0 0
BITMAP
00C1C0
01C3E0
03C3E0
07C3E0
0FC3E0
1FC3E0
3FC3E0
7FC3E0
7FC3E0
FFC3E0
7FC3E0
7FC3E0
3FC3E0
1FC3E0
0FC3E0
07C3E0
03C3E0
01C3E0
00C1C0
ENDCHAR
STARTCHAR F199
ENCODING 61849
SWIDTH 977 0
DWIDTH 19 0
BBX 19 19 0 0
BITMAP
006000
00F000
01F800
03FC00
07FE00
0FFF00
3FFF80
7FFFC0
FFFFE0
7FFFE0
000000
000000
000000
000000
3FFFC0
7FFFE0
FFFFE0
FFFFE0
7FFFC0
ENDCHAR
STARTCHAR F19A
ENCODING 61850
SWIDTH 977 0
DWIDTH 19 0
BBX 19 19 0 -1
BITMAP
600000
F00000
F80000
780000
3C0000
0FF800
07F800
07F800
079E00
070F80
070FC0
079FE0
03FFE0
00FEE0
00FCE0
0079E0
007FC0
003F80
001F00
ENDCHAR
STARTCHAR F19B
ENCODING 61851
SWIDTH 977 0
DWIDTH 19 0
BBX 19 18 0 0
BITMAP
03F800
07FC00
07FC00
0FFE00
7FFFC0
FE0FE0
F8E3E0
FB1BE0
F60DE0
F405E0
F405E0
F405E0
F405E0
F209E0
FBFBE0
FCE7E0
FF1FE0
7FFFC0
ENDCHAR
STARTCHAR F19C
ENCODING 61852
SWIDTH 977 0
DWIDTH 19 0
BBX 19 17 0 1
BITMAP
383800
7C7E00
FE7E00
FEFE00
FEFE00
FE7E00
7C3C00
3FFC00
7FFC00
7FFC60
7FFDE0
7FFFE0
7FFFE0
7FFDE0
7FFC60
7FFC20
3FFC00
ENDCHAR
STARTCHAR F19D
ENCODING 61853
SWIDTH 977 0
DWIDTH 19 0
BBX 19 18 0 0
BITMAP
8FFE20
FFFFE0
FFFFE0
8FFE20
8FFE20
FFFFE0
8FFE20
8FFE20
DFFF60
FFFFE0
8FFE20
8FFE20
FFFFE0
9FFF20
8FFE20
9FFF20
FFFFE0
8FFE20
ENDCHAR
STARTCHAR F19E
ENCODING 61854
SWIDTH 977 0
DWIDTH 19 0
BBX 18 19 1 0
BITMAP
E330C0
E3B0C0
E3B0C0
E3B0C0
E3B0C0
E3B0C0
E3B0C0
E3B0C0
E3B0C0
F7BBC0
F7BBC0
F7BBC0
F7BBC0
F7BBC0
F7BBC0
F7BBC0
F7BBC0
F7BBC0
F739C0
ENDCHAR
STARTCHAR F19F
ENCODING 61855
SWIDTH 977 0
DWIDTH 19 0
BBX 19 19 0 0
BITMAP
FFFFE0
E00060
C00020
C00020
C1F820
C7FE20
C7FF20
CF8F20
CF6720
CEF7A0
CEF7A0
CE6720
CF0F20
C7FF20
C7FE20
C3FC20
C06020
E00060
FFFFE0
ENDCHAR
STARTCHAR F1A0
ENCODING 61856
SWIDTH 977 0
DWIDTH 19 0
BBX 19 16 0 1
BITMAP
7FFFC0
FFFFE0
800020
BFF020
BFC020
BF8020
BE0020
BC0020
B00020
A00020
800020
FFFFE0
7FFFC0
01F000
01F000
07FC00
ENDCHAR
STARTCHAR F1A1
ENCODING 61857
SWIDTH 977 0
DWIDTH 19 0
BBX 19 17 0 1
BITMAP
7FFF80
FFFFC0
FFFFC0
C001C0
C201E0
C701E0
FFFFE0
F9FFE0
E07FC0
E07FC0
C67FC0
C67FC0
E07FC0
F0FFC0
FFFF80
3FFF00
380600
ENDCHAR
STARTCHAR F1A2
ENCODING 61858
SWIDTH 977 0
DWIDTH 19 0
BBX 19 19 0 0
BITMAP
03F800
0FFE00
1F1F00
3C0780
73F9C0
77FDC0
EF1EE0
EEEEE0
CDF660
CDF660
CDF660
CCE660
000000
01F000
01F000
00E000
00E000
00E000
004000
ENDCHAR
STARTCHAR F1A3
ENCODING 61859
SWIDTH 977 0
DWIDTH 19 0
BBX 19 19 0 0
BITMAP
01F000
07FC00
0F1E00
1C0700
380380
300180
7001C0
7001C0
7803C0
7803C0
F803E0
F803E0
F803E0
F803E0
7803C0
300000
100000
19E000
0FC000
ENDCHAR
STARTCHAR F1A4
ENCODING 61860
SWIDTH 977 0
DWIDTH 19 0
BBX 19 19 0 0
BITMAP
0C0600
0C0600
060C00
031800
01B000
00E000
7FFFC0
FFFFE0
C00C20
800660
8007E0
800420
8007E0
800420
8007E0
800660
C00C20
FFFFE0
7FFFC0
ENDCHAR
STARTCHAR F1A5
ENCODING 61861
SWIDTH 977 0
DWIDTH 19 0
BBX 19 19 0 -1
BITMAP
600000
E00000
E00000
500000
0C0000
0FF000
07F800
067800
067800
07F680
07F3C0
07FFE0
039DE0
00D9E0
0070E0
007CE0
007F40
007F80
001F00
ENDCHAR
STARTCHAR F1A6
ENCODING 61862
SWIDTH 977 0
DWIDTH 19 0
BBX 18 18 1 0
BITMAP
F1E1C0
9FBF40
BFBF40
F1E1C0
600080
600080
600080
F001C0
F00340
904340
F003C0
600080
600080
600080
60E1C0
F1E3C0
9FBF40
F1E3C0
ENDCHAR
STARTCHAR F1A7
ENCODING 61863
SWIDTH 977 0
DWIDTH 19 0
BBX 19 19 0 0
BITMAP
FCFFC0
FDFFE0
FDC0E0
FDC060
FDC060
FDC060
FDC060
FDC060
FDC060
FDC060
FDC060
FDC060
FDC060
FDC060
FDC060
FDC060
FDC0E0
FDFFE0
FCFFC0
ENDCHAR
STARTCHAR F1A8
ENCODING 61864
SWIDTH 977 0
DWIDTH 19 0
BBX 19 19 0 0
BITMAP
F8FFC0
F9FFE0
F9C0E0
F9C060
F1C060
01C060
01C060
F1C060
F9C060
F9C060
F9C060
F1C060
01C060
01C060
F1C060
F9C060
F9C0E0
F9FFE0
F8FFC0
ENDCHAR
STARTCHAR F1A9
ENCODING 61865
SWIDTH 977 0
DWIDTH 19 0
BBX 19 19 0 0
BITMAP
7FE7E0
FFF7E0
E077E0
C077E0
C077E0
C077E0
C077E0
C077E0
C077E0
C077E0
C077E0
C077E0
C077E0
C077E0
C077E0
C077E0
E077E0
FFF7E0
7FE7E0
ENDCHAR
STARTCHAR F1AA
ENCODING 61866
SWIDTH 977 0
DWIDTH 19 0
BBX 19 19 0 0
BITMAP
7FE3E0
FFF3E0
E073E0
C073E0
C071E0
C07000
C07000
C071E0
C073E0
C073E0
C073E0
C071E0
C07000
C07000
C071E0
C073E0
E073E0
FFF3E0
7FE3E0
ENDCHAR
STARTCHAR F1AB
ENCODING 61867
SWIDTH 977 0
DWIDTH 19 0
BBX 19 19 0 0
BITMAP
E3F8E0
F7FDE0
F60DE0
F60DE0
F60DE0
F60DE0
F60DE0
F60DE0
F60DE0
F60DE0
F60DE0
F60DE0
F60DE0
F60DE0
F60DE0
F60DE0
F60DE0
F7FDE0
E3F8E0
ENDCHAR
STARTCHAR F1AC
ENCODING 61868
SWIDTH 977 0
DWIDTH 19 0
BBX 19 19 0 0
BITMAP
3E0000
7F0000
FF8000
FF8000
FF8000
FF8000
FFE000
7FFF80
3FFF80
03FF80
03C3C0
01C3C0
01C3C0
01C1C0
01F8C0
01FC60
01FE20
003F00
000180
ENDCHAR
STARTCHAR F1AD
ENCODING 61869
SWIDTH 977 0
DWIDTH 19 0
BBX 19 19 0 0
BITMAP
3E0000
7F0000
FF8000
FFF000
FFF000
FFF000
FFF000
7FF800
3F9C00
1F0E00
1F0700
1F8300
01C380
00E380
007F80
003FC0
000FE0
0001E0
0000E0
ENDCHAR
STARTCHAR F1AE
ENCODING 61870
SWIDTH 977 0
DWIDTH 19 0
BBX 19 19 0 0
BITMAP
FFFFE0
FFFFE0
F3F9E0
E1F0E0
C1F060
C1F060
01F000
01F000
01F000
01F000
01F000
01F000
01F000
01F000
01F000
01F000
03F800
07FC00
07FC00
ENDCHAR
STARTCHAR F1AF
ENCODING 61871
SWIDTH 977 0
DWIDTH 19 0
BBX 19 19 0 1
BITMAP
180060
3800E0
7FFFC0
FFFF80
FFFF80
380F80
381F80
383B80
387380
38E380
39C380
3B8380
3F0380
3E0380
3FFFE0
1FFFE0
0FFFC0
000380
000300
ENDCHAR
STARTCHAR F1B0
ENCODING 61872
SWIDTH 977 0
DWIDTH 19 0
BBX 19 19 0 0
BITMAP
7319C0
F319E0
E000E0
C00060
000000
000000
C00060
C00060
000000
000000
000000
C00060
C00060
000000
000000
C00060
E000E0
F319E0
7319C0
ENDCHAR
STARTCHAR F1B1
ENCODING 61873
SWIDTH 977 0
DWIDTH 19 0
BBX 19 19 0 0
BITMAP
031800
0F1E00
0F1E00
040400
6000C0
7001C0
E000E0
E000E0
000000
000000
000000
E000E0
E000E0
7001C0
6000C0
040400
0F1E00
0F1E00
031800
ENDCHAR
STARTCHAR F1B2
ENCODING 61874
SWIDTH 977 0
DWIDTH 19 0
BBX 19 19 0 0
BITMAP
7319C0
F319E0
E000E0
C00060
000000
00E000
C0E060
C0E060
07FC00
07FC00
07FC00
C0E060
C0E060
00E000
000000
C00060
E000E0
F319E0
7319C0
ENDCHAR
STARTCHAR F1B3
ENCODING 61875
SWIDTH 977 0
DWIDTH 19 0
BBX 19 19 0 0
BITMAP
7319C0
F319E0
E000E0
C00060
000000
000000
C00060
C00060
07FC00
07FC00
07FC00
C00060
C00060
000000
000000
C00060
E000E0
F319E0
7319C0
ENDCHAR
STARTCHAR F1B4
ENCODING 61876
SWIDTH 977 0
DWIDTH 19 0
BBX 19 19 0 0
BITMAP
7319C0
F319E0
E000E0
C00060
000000
000000
C31860
C3B860
01F000
00E000
01F000
C3B860
C31860
000000
000000
C00060
E000E0
F319E0
7319C0
ENDCHAR
STARTCHAR F1B5
ENCODING 61877
SWIDTH 977 0
DWIDTH 19 0
BBX 19 19 0 0
BITMAP
018000
01C000
01C000
01C000
01C000
05D000
0D9800
1E3C00
3FFE00
7FFF00
FFFFC0
FFFF40
7FFE40
3FFC40
1FF840
0FF0E0
07E1E0
03C0E0
0180C0
ENDCHAR
STARTCHAR F1B6
ENCODING 61878
SWIDTH 977 0
DWIDTH 19 0
BBX 19 19 0 0
BITMAP
E00000
F00000
F00000
600000
400000
600000
200000
11F000
1DB000
071C00
01B700
01F100
000080
0000C0
000040
0000C0
0001E0
0001E0
0000E0
ENDCHAR
STARTCHAR F1B7
ENCODING 61879
SWIDTH 977 0
DWIDTH 19 0
BBX 19 19 0 0
BITMAP
0C0000
1E0000
3F0000
7F8000
FFC000
FFE000
7FF000
3FF800
1FFC00
0FFE00
07FF00
03FE80
01FD80
00FB80
0077C0
002F00
001E40
0002E0
000060
ENDCHAR
STARTCHAR F1B8
ENCODING 61880
SWIDTH 977 0
DWIDTH 19 0
BBX 19 19 0 0
BITMAP
C00000
700000
7C0000
3E0000
3F0000
1FC000
0FE000
0FD000
07C800
038800
010800
009300
000700
001F80
003F80
003F80
001FC0
000FE0
000780
ENDCHAR
STARTCHAR F1B9
ENCODING 61881
SWIDTH 977 0
DWIDTH 19 0
BBX 19 19 0 0
BITMAP
03F000
0FF800
1EF800
3C7800
7C7000
7E6000
E7E1C0
C3F3E0
E3FFE0
FFFFE0
FFF8E0
FFF860
F1FCE0
71CFC0
71C7C0
3FC780
1FEF00
0FFE00
03F800
ENDCHAR
STARTCHAR F1BA
ENCODING 61882
SWIDTH 977 0
DWIDTH 19 0
BBX 17 19 1 0
BITMAP
7FFF80
FFFF80
E00000
E00000
FE0F80
FE0F80
FE0F80
FE0F80
FE4F80
FFFF80
FFFF80
FFFF80
FFFF80
FFFF80
FFFF80
FFFF80
FFFF80
FFFF00
7FFE00
ENDCHAR
STARTCHAR F1BB
ENCODING 61883
SWIDTH 977 0
DWIDTH 19 0
BBX 19 19 0 0
BITMAP
000060
0000E0
0001C0
000380
000700
7FFFC0
881C20
883820
887020
88E020
99C020
F98020
F80020
880020
880020
880020
880020
980060
7FFFC0
ENDCHAR
STARTCHAR F1BC
ENCODING 61884
SWIDTH 977 0
DWIDTH 19 0
BBX 19 19 0 0
BITMAP
03F800
0E0E00
180300
300180
6000C0
400040
C00060
800020
800020
800020
800020
800020
C00060
400040
6000C0
300180
180300
0E0E00
03F800
ENDCHAR
STARTCHAR F1BD
ENCODING 61885
SWIDTH 977 0
DWIDTH 19 0
BBX 19 19 0 0
BITMAP
1FFF00
6000C0
400040
800020
800020
800020
800020
800020
800020
800020
800020
800020
800020
800020
800020
800020
400040
6000C0
1FFF00
ENDCHAR
STARTCHAR F1BE
ENCODING 61886
SWIDTH 977 0
DWIDTH 19 0
BBX 19 17 0 1
BITMAP
07FC00
080200
180300
100100
300180
200080
400040
400040
800020
400040
400040
200080
300180
100100
180300
080200
07FC00
ENDCHAR
STARTCHAR F1BF
ENCODING 61887
SWIDTH 977 0
DWIDTH 19 0
BBX 19 19 0 0
BITMAP
0000E0
0001E0
0001E0
0001C0
000200
000400
000800
001000
002000
004000
008000
010000
020000
040000
080000
700000
F00000
F00000
E00000
ENDCHAR
STARTCHAR F1C0
ENCODING 61888
SWIDTH 977 0
DWIDTH 19 0
BBX 19 19 0 1
BITMAP
400000
E7FE00
47FE00
43FE00
400000
47FFE0
47FFE0
400000
47FF00
47FF80
47FF00
400000
47FFC0
47FFC0
400000
43F000
47F800
E7F800
400000
ENDCHAR
STARTCHAR F1C1
ENCODING 61889
SWIDTH 977 0
DWIDTH 19 0
BBX 19 19 0 0
BITMAP
180FE0
380040
3800C0
380180
380300
380200
380400
380FE0
380000
380000
380000
380FC0
380820
380820
FE0820
7E0FE0
7C0FE0
380820
100820
ENDCHAR
STARTCHAR F1C2
ENCODING 61890
SWIDTH 977 0
DWIDTH 19 0
BBX 19 19 0 0
BITMAP
1807C0
380860
380820
380820
380820
380FE0
380820
380820
380000
380000
380000
380FE0
380040
380080
FE0100
7E0300
7C0600
380400
100FE0
ENDCHAR
STARTCHAR F1C3
ENCODING 61891
SWIDTH 977 0
DWIDTH 19 0
BBX 19 19 0 0
BITMAP
180000
382000
383000
382000
380000
380000
383C00
383C00
380000
380000
380000
383F80
383F00
380000
FE0000
7E3FC0
7C3FE0
383FE0
100000
ENDCHAR
STARTCHAR F1C4
ENCODING 61892
SWIDTH 977 0
DWIDTH 19 0
BBX 19 19 0 0
BITMAP
180000
383FE0
383FE0
383FC0
380000
380000
383F00
383F80
380000
380000
380000
383C00
383C00
380000
FE0000
7E2000
7C3000
382000
100000
ENDCHAR
STARTCHAR F1C5
ENCODING 61893
SWIDTH 977 0
DWIDTH 19 0
BBX 19 19 0 0
BITMAP
780000
9E0000
CF0000
E78000
FBC000
7CE000
7E7000
3F3800
1F9C00
07CC00
03E600
00F200
007900
001C00
000600
000300
000180
0000C0
000020
ENDCHAR
STARTCHAR F1C6
ENCODING 61894
SWIDTH 977 0
DWIDTH 19 0
BBX 19 19 0 0
BITMAP
004000
00E000
00E000
01F000
3FFF80
1FFF00
1FFF00
0FFE00
07FC00
00E000
00E000
7CE7C0
FEEFE0
3FFF80
0FFE00
07FC00
07FC00
03F800
00E000
ENDCHAR
STARTCHAR F1C7
ENCODING 61895
SWIDTH 977 0
DWIDTH 19 0
BBX 19 19 0 0
BITMAP
0F0040
0F0A00
0F1420
0F1420
1F8A00
3FC040
7FE000
FFF000
FFF000
FFF000
FFF000
FFF000
FFF000
FFF000
FFF000
FFF000
FFF000
FFF000
7FE000
ENDCHAR
STARTCHAR F1C8
ENCODING 61896
SWIDTH 977 0
DWIDTH 19 0
BBX 19 19 0 -1
BITMAP
004000
FFFFE0
FFFFE0
FFFFE0
FFFFE0
FFFFE0
FFFFE0
FFFFE0
FFFFE0
FFFFE0
FFFFE0
FFFFE0
FFFFE0
FFFFE0
0EEE00
0CE600
1CE700
38E380
184300
ENDCHAR
STARTCHAR F1C9
ENCODING 61897
SWIDTH 977 0
DWIDTH 19 0
BBX 19 17 0 1
BITMAP
01F000
01F000
03F800
03F800
07FC00
07FC00
0FBE00
0FBE00
0F9E00
1F1F00
1F1F00
3E0F80
3E0F80
7FC7C0
7FC7C0
7FC3C0
FFE3E0
ENDCHAR
STARTCHAR F1CA
ENCODING 61898
SWIDTH 977 0
DWIDTH 19 0
BBX 19 19 0 0
BITMAP
01F000
07FC00
1FFF00
7FFFC0
FFFFE0
FFFFE0
3FFF80
0FFE00
43F840
F041E0
7C07C0
1F1F00
07FC00
41F040
F001E0
7C07C0
1F1F00
07FC00
01F000
ENDCHAR
STARTCHAR F1CB
ENCODING 61899
SWIDTH 977 0
DWIDTH 19 0
BBX 19 19 0 0
BITMAP
00E000
03F800
0FFE00
1FFF00
7FFFC0
FFFFE0
FFFFE0
7FFFC0
1FFF00
07FC00
03F800
70E1C0
FC07E0
FE0FE0
7FFFC0
1FFF00
0FFE00
03F800
00E000
ENDCHAR
STARTCHAR F1CC
ENCODING 61900
SWIDTH 977 0
DWIDTH 19 0
BBX 17 19 1 0
BITMAP
FFFF80
FFFF80
FFFF80
FFFF80
FFFF80
FFFF80
FFFF80
FFFF80
39CC80
10A100
C67380
EFFF80
FFFF80
FFFF80
FFFF80
FFFF80
FFFF80
FFFF80
FFFF80
ENDCHAR
STARTCHAR F1CD
ENCODING 61901
SWIDTH 977 0
DWIDTH 19 0
BBX 19 19 0 0
BITMAP
7FFFC0
FFFFE0
FFFFE0
FFFFE0
FFFFE0
C0E0E0
CEEE60
CEEFE0
CEE1E0
CCFCE0
C1FE60
CFEE60
CFEE60
CFE0E0
FFFFE0
FFFFE0
FFFFE0
FFFFE0
7FFFC0
ENDCHAR
STARTCHAR F1CE
ENCODING 61902
SWIDTH 977 0
DWIDTH 19 0
BBX 19 19 0 0
BITMAP
7FFFC0
FFFFE0
FFFFE0
FFFFE0
FFFFE0
F071E0
F77BE0
F77BE0
F77BE0
F77BE0
F07BE0
F77BE0
F77BE0
F771E0
FFFFE0
FFFFE0
FFFFE0
FFFFE0
7FFFC0
ENDCHAR
STARTCHAR F1CF
ENCODING 61903
SWIDTH 977 0
DWIDTH 19 0
BBX 19 19 0 0
BITMAP
7FFFC0
FFFFE0
FFFFE0
FFFFE0
FFFFE0
F0EFE0
F7EFE0
F7EFE0
F7EFE0
F7EFE0
F1EFE0
F7EFE0
F7EFE0
F7E1E0
FFFFE0
FFFFE0
FFFFE0
FFFFE0
7FFFC0
ENDCHAR
STARTCHAR F1D0
ENCODING 61904
SWIDTH 977 0
DWIDTH 19 0
BBX 19 19 0 0
BITMAP
7FFFC0
FFFFE0
FFFFE0
FFFFE0
FFFFE0
C0EA60
CEEA60
CEEA60
CEEA60
CEEA60
CEEA60
CEEA60
CEEA60
C0E0E0
FFFFE0
FFFFE0
FFFFE0
FFFFE0
7FFFC0
ENDCHAR
STARTCHAR F1D1
ENCODING 61905
SWIDTH 977 0
DWIDTH 19 0
BBX 19 15 0 2
BITMAP
3F0000
7F0000
7F0000
7F1FC0
7F1FC0
7F19C0
7FF9C0
FFF9E0
7FF9C0
7F19C0
7F1FC0
7F1FC0
7F0000
7F0000
3F0000
ENDCHAR
STARTCHAR F1D2
ENCODING 61906
SWIDTH 977 0
DWIDTH 19 0
BBX 15 19 2 0
BITMAP
0100
1FF0
1FF0
1FF0
1830
1830
1FF0
1FF0
0380
0380
0380
FFFE
FFFE
FFFE
FFFE
FFFE
FFFE
7FFC
0100
ENDCHAR
STARTCHAR F1D3
ENCODING 61907
SWIDTH 977 0
DWIDTH 19 0
BBX 19 19 0 0
BITMAP
7F0000
7F0000
7F0000
7F0000
7F0000
7F1FC0
7F1FC0
7F19C0
7F19C0
7F19C0
7F19C0
7F19C0
7F1FC0
7F1FC0
000000
000000
000000
FFFFE0
FFFFE0
ENDCHAR
STARTCHAR F1D4
ENCODING 61908
SWIDTH 977 0
DWIDTH 19 0
BBX 19 19 0 0
BITMAP
FFFFE0
FFFFE0
000000
000000
000000
7F1FC0
7F1FC0
7F19C0
7F19C0
7F19C0
7F19C0
7F19C0
7F1FC0
7F1FC0
7F0000
7F0000
7F0000
7F0000
7F0000
ENDCHAR
STARTCHAR F1D5
ENCODING 61909
SWIDTH 977 0
DWIDTH 19 0
BBX 19 19 0 0
BITMAP
000060
07FC60
07FC60
07FC60
060C60
060C60
07FC60
07FC60
000060
000060
000060
FFFC60
FFFC60
FFFC60
FFFC60
FFFC60
FFFC60
FFFC60
000060
ENDCHAR
STARTCHAR F1D6
ENCODING 61910
SWIDTH 977 0
DWIDTH 19 0
BBX 19 19 0 0
BITMAP
C00000
C7FC00
C7FC00
C7FC00
C60C00
C60C00
C7FC00
C7FC00
C00000
C00000
C00000
C7FFE0
C7FFE0
C7FFE0
C7FFE0
C7FFE0
C7FFE0
C7FFE0
C00000
ENDCHAR
STARTCHAR F1D7
ENCODING 61911
SWIDTH 977 0
DWIDTH 19 0
BBX 19 17 0 1
BITMAP
FFFE00
FFFE00
7FFE00
000000
FFFFE0
FFFFE0
000000
7FFF00
FFFF80
7FFF00
000000
FFFFC0
FFFFC0
000000
7F8000
FF8000
FF8000
ENDCHAR
STARTCHAR F1D8
ENCODING 61912
SWIDTH 977 0
DWIDTH 19 0
BBX 19 17 0 1
BITMAP
0FFFE0
0FFFE0
0FFFC0
000000
FFFFE0
FFFFE0
000000
1FFFC0
3FFFE0
1FFFC0
000000
7FFFE0
7FFFE0
000000
003FC0
003FE0
003FE0
ENDCHAR
STARTCHAR F1D9
ENCODING 61913
SWIDTH 977 0
DWIDTH 19 0
BBX 19 17 0 1
BITMAP
1FFF00
3FFF80
1FFF00
000000
FFFFE0
FFFFE0
000000
3FFF80
7FFFC0
3FFF80
000000
FFFFE0
FFFFE0
000000
03F800
07FC00
07FC00
ENDCHAR
STARTCHAR F1DA
ENCODING 61914
SWIDTH 977 0
DWIDTH 19 0
BBX 19 17 0 1
BITMAP
FFFFE0
FFFFE0
7FFFC0
000000
FFFFE0
FFFFE0
000000
7FFFC0
FFFFE0
7FFFC0
000000
FFFFE0
FFFFE0
000000
7F8000
FF8000
FF8000
ENDCHAR
STARTCHAR F1DB
ENCODING 61915
SWIDTH 977 0
DWIDTH 19 0
BBX 19 17 0 1
BITMAP
07FC00
07FC00
07FC00
FE0FE0
FE0FE0
07FC00
07FC00
000000
000000
000000
3FFF80
3FFF80
FFFFE0
FFFFE0
3FFF80
3FFF80
1FFF00
ENDCHAR
STARTCHAR F1DC
ENCODING 61916
SWIDTH 977 0
DWIDTH 19 0
BBX 17 19 1 0
BITMAP
180C00
180C00
7E0C00
FE0C00
FE0C00
FE3F80
FE3F80
FE3380
FE3380
FE3380
FE3380
FE3380
FE3F80
FE3F80
FE0C00
FE0C00
7E0C00
180C00
180C00
ENDCHAR
STARTCHAR F1DD
ENCODING 61917
SWIDTH 977 0
DWIDTH 19 0
BBX 19 19 0 1
BITMAP
018000
018000
03C000
03C000
07E000
07E000
0FF700
0FF380
1FFBC0
5FFBE0
C003E0
FEFFE0
FEFFE0
FF7FE0
FF7FC0
FFBF80
FFCE00
FFC000
FF8000
ENDCHAR
STARTCHAR F1DE
ENCODING 61918
SWIDTH 977 0
DWIDTH 19 0
BBX 19 19 0 0
BITMAP
7FFFC0
FFFFE0
FBFFE0
F9FFE0
F9FE60
C07C60
E07860
F9F060
F9E060
FFC060
FF8060
FF0060
FEFE60
FCFE60
F80060
F000E0
F001E0
FFFFE0
7FFFC0
ENDCHAR
STARTCHAR F1DF
ENCODING 61919
SWIDTH 977 0
DWIDTH 19 0
BBX 19 19 0 0
BITMAP
7FFFC0
FFFFE0
FFFFE0
FFFEE0
FC0460
F80460
F00E60
F01E60
F03E60
F07E60
F0FE60
F1FE60
F3FE60
FFFC60
FBF860
F000E0
F001E0
FFFFE0
7FFFC0
ENDCHAR
STARTCHAR F1E0
ENCODING 61920
SWIDTH 977 0
DWIDTH 19 0
BBX 19 19 0 0
BITMAP
F001E0
BFFFA0
F001E0
E000E0
400040
470040
470040
470040
400840
401C40
403C40
467C40
473C40
479C40
400040
E000E0
F001E0
BFFFA0
F001E0
ENDCHAR
STARTCHAR F1E1
ENCODING 61921
SWIDTH 977 0
DWIDTH 19 0
BBX 19 18 0 0
BITMAP
FF9FE0
FFC000
FFC000
FFDF80
FFC000
FFDFE0
FFC000
FF9FC0
7F1F80
000000
FFFFE0
000000
FFFF80
000000
FFFF80
FFFFC0
000000
FFFE00
ENDCHAR
STARTCHAR F1E2
ENCODING 61922
SWIDTH 977 0
DWIDTH 19 0
BBX 19 18 0 0
BITMAP
FF3FE0
007FE0
007FE0
FC7FE0
007FE0
FF7FE0
007FE0
FE3FE0
7E1FC0
000000
FFFFE0
000000
FFFF80
000000
FFFF80
FFFFC0
000000
FFFE00
ENDCHAR
STARTCHAR F1E3
ENCODING 61923
SWIDTH 977 0
DWIDTH 19 0
BBX 19 18 0 0
BITMAP
FFFE00
000000
000000
FFFFE0
000000
07FC00
07FC00
07FC00
07FC00
07FC00
07FC00
07FC00
07FC00
000000
FFFF80
FFFFC0
000000
FFFE00
ENDCHAR
STARTCHAR F1E4
ENCODING 61924
SWIDTH 977 0
DWIDTH 19 0
BBX 19 19 0 0
BITMAP
F001E0
BFFFA0
F001E0
E000E0
401C40
41DE40
43DE40
47DE40
47C040
47FC40
47FC40
47FC40
43F840
41F040
400040
E000E0
F001E0
BFFFA0
F001E0
ENDCHAR
STARTCHAR F1E5
ENCODING 61925
SWIDTH 977 0
DWIDTH 19 0
BBX 19 19 0 0
BITMAP
F001E0
BFFFA0
F001E0
E000E0
400040
460040
460040
460C40
460C40
464C40
46EC40
46EC40
46EC40
46EC40
400040
E000E0
F001E0
BFFFA0
F001E0
ENDCHAR
STARTCHAR F1E6
ENCODING 61926
SWIDTH 977 0
DWIDTH 19 0
BBX 19 18 0 0
BITMAP
00E000
031800
040400
0C0600
080200
080200
0F1E00
3FBF80
6F1EC0
471C40
860C20
800020
81F020
81F020
40E040
60E0C0
30E180
0F1E00
ENDCHAR
STARTCHAR F1E7
ENCODING 61927
SWIDTH 977 0
DWIDTH 19 0
BBX 19 19 0 0
BITMAP
1FFF00
1FFF80
1CE700
38C300
10C300
00C000
00C000
01C000
01C000
018000
018000
038000
0FE000
0FE420
000240
FFF980
FFF980
000240
000420
ENDCHAR
STARTCHAR F1E8
ENCODING 61928
SWIDTH 977 0
DWIDTH 19 0
BBX 19 19 0 0
BITMAP
010000
008000
064000
032000
098000
24F800
327800
99F800
4DF800
27F000
17F800
07FC00
073F00
001F80
000FC0
000FE0
0007E0
0003E0
0001C0
ENDCHAR
STARTCHAR F1E9
ENCODING 61929
SWIDTH 977 0
DWIDTH 19 0
BBX 19 17 0 1
BITMAP
C06E00
C0CF00
60DB00
60DB00
619980
31B180
31B180
333FC0
1B7FC0
1B7FC0
1E6060
0EC060
000000
000000
FFFFE0
FFFFE0
000040
ENDCHAR
STARTCHAR F1EA
ENCODING 61930
SWIDTH 977 0
DWIDTH 19 0
BBX 19 19 0 0
BITMAP
C03000
E07000
70E000
30C000
398000
1F8000
0F0000
0F0000
0F0000
198000
39C000
70E000
E07000
C033E0
000020
0001E0
0003E0
000200
0003E0
ENDCHAR
STARTCHAR F1EB
ENCODING 61931
SWIDTH 977 0
DWIDTH 19 0
BBX 19 19 0 0
BITMAP
0003E0
000020
0001E0
0003E0
000200
C033E0
E07000
70E000
39C000
198000
0F0000
0F0000
0F0000
1F8000
398000
30C000
70E000
E07000
C03000
ENDCHAR
STARTCHAR F1EC
ENCODING 61932
SWIDTH 977 0
DWIDTH 19 0
BBX 17 19 1 0
BITMAP
FFFF80
C00180
800280
800680
800E80
800C80
801C80
803C80
807C80
80FC80
80F880
81F880
83F880
803880
801080
801080
801080
C01180
FFFF80
ENDCHAR
STARTCHAR F1ED
ENCODING 61933
SWIDTH 977 0
DWIDTH 19 0
BBX 19 19 0 0
BITMAP
7C07C0
FC07E0
E000E0
C00060
CFFE60
CFFE60
0C0600
0C0600
0C0600
0C0600
0C0600
0C0600
0C0600
CFFE60
CFFE60
C00060
E000E0
FC07E0
7C07C0
ENDCHAR
STARTCHAR F1EE
ENCODING 61934
SWIDTH 977 0
DWIDTH 19 0
BBX 19 19 0 0
BITMAP
400000
F00000
7F8000
7FC000
3E6000
1F3000
0F9800
07CC00
03E000
01F000
00F800
007C00
003C00
001900
000300
000780
000100
000040
000020
ENDCHAR
STARTCHAR F1EF
ENCODING 61935
SWIDTH 977 0
DWIDTH 19 0
BBX 19 19 0 0
BITMAP
100000
380000
7C0000
FE0000
5F0000
3F8000
1FC000
0BE000
07F000
03F800
017C00
00FE00
007F00
002F80
001FC0
000FE0
0005C0
000380
000100
ENDCHAR
STARTCHAR F1F0
ENCODING 61936
SWIDTH 977 0
DWIDTH 19 0
BBX 17 19 1 0
BITMAP
7FF700
FFF780
FFF780
FFF780
FFF780
FFF780
800080
800080
800080
800080
800080
800080
800080
FFF780
FFF780
FFF780
FFF780
FFF780
7FF700
ENDCHAR
STARTCHAR F1F1
ENCODING 61937
SWIDTH 977 0
DWIDTH 19 0
BBX 19 19 0 0
BITMAP
060000
0F0000
1F8000
3FC000
7FE000
FFF000
FFF800
7FDC00
3F8E00
1F0700
0E0380
0701C0
0383C0
01FF80
00FF00
000000
000000
FFFFE0
FFFFE0
ENDCHAR
STARTCHAR F1F2
ENCODING 61938
SWIDTH 977 0
DWIDTH 19 0
BBX 19 19 0 0
BITMAP
020000
027E00
02FE00
027E00
020000
02FFE0
02FFE0
220000
FA7F00
FEFF80
FA7F00
220000
02FFC0
02FFC0
020000
027000
02F800
027800
020000
ENDCHAR
STARTCHAR F1F3
ENCODING 61939
SWIDTH 977 0
DWIDTH 19 0
BBX 19 19 0 0
BITMAP
000800
FE0800
FE0800
7C0800
000800
FFE800
FFE800
000880
7F0BE0
FF0FE0
7F0BE0
000880
FF8800
FF8800
000800
700800
F80800
F00800
000800
ENDCHAR
STARTCHAR F1F4
ENCODING 61940
SWIDTH 977 0
DWIDTH 19 0
BBX 15 19 2 0
BITMAP
7FF0
FFF8
FFFC
FFFC
F01E
F01E
F01C
FFFC
FFF8
FFFC
FFFC
F03C
F01E
F01E
F01E
FFFC
FFFC
FFF8
7FF0
ENDCHAR
STARTCHAR F1F5
ENCODING 61941
SWIDTH 977 0
DWIDTH 19 0
BBX 11 19 4 0
BITMAP
07E0
0FE0
0380
0300
0300
0700
0700
0600
0600
0E00
0C00
0C00
1C00
1C00
1800
1800
3800
FE00
FC00
ENDCHAR
STARTCHAR F1F6
ENCODING 61942
SWIDTH 977 0
DWIDTH 19 0
BBX 19 19 0 0
BITMAP
180300
380380
380380
380380
380380
380380
380380
380380
380380
380380
380380
380380
1C0700
1FFF00
0FFE00
000000
000000
FFFFE0
FFFFE0
ENDCHAR
STARTCHAR F1F7
ENCODING 61943
SWIDTH 977 0
DWIDTH 19 0
BBX 19 19 0 0
BITMAP
07FC00
0FFE00
1C0700
180300
380380
380100
380000
180000
7FFFC0
FFFFE0
7FFFC0
000300
000380
100380
380380
180300
1C0700
0FFE00
07FC00
ENDCHAR
STARTCHAR F1F8
ENCODING 61944
SWIDTH 977 0
DWIDTH 19 0
BBX 19 19 0 1
BITMAP
47FFE0
E7FFE0
47BDE0
461860
461860
401800
401800
401800
401800
401800
401800
401800
401800
401800
401800
401800
403C00
E0FE00
407E00
ENDCHAR
STARTCHAR F1F9
ENCODING 61945
SWIDTH 977 0
DWIDTH 19 0
BBX 19 19 0 0
BITMAP
7FFFC0
7FFFC0
78E3C0
70E1C0
20E080
00E000
00E000
00E000
00E000
00E000
00E000
00E000
00E000
03F800
03F800
000000
400040
FFFFE0
400040
ENDCHAR
STARTCHAR F1FA
ENCODING 61946
SWIDTH 977 0
DWIDTH 19 0
BBX 19 19 0 0
BITMAP
FFFF00
FFFF80
FFFFE0
FFFFE0
FFFFA0
FFFF20
000020
00FFE0
00C000
00C000
00C000
00C000
01E000
01E000
01E000
01E000
01E000
01E000
01C000
ENDCHAR
STARTCHAR F1FB
ENCODING 61947
SWIDTH 977 0
DWIDTH 19 0
BBX 19 19 0 0
BITMAP
00C000
61C000
7FC000
3FC000
3FC000
39E000
38F000
7C4000
FE4000
7FE000
077000
023800
001C00
000E00
000700
000380
0001C0
0000E0
000060
ENDCHAR
STARTCHAR F1FC
ENCODING 61948
SWIDTH 977 0
DWIDTH 19 0
BBX 19 19 0 0
BITMAP
03F800
0FFE00
1F1F00
3C0780
7001C0
7001C0
E000E0
E318E0
C42060
C46060
C42060
E318E0
E000E0
7001C0
7001C0
3C0780
1F1F00
0FFE00
03F800
ENDCHAR
STARTCHAR F1FD
ENCODING 61949
SWIDTH 977 0
DWIDTH 19 0
BBX 19 19 0 0
BITMAP
7FF800
FFFC00
FFFC00
FFFC00
FFFC00
FFFFC0
FFFFE0
FFFFE0
FFFFE0
FFFFE0
FFFFE0
FFFFE0
FFFFE0
7FFFE0
07FFE0
07FFE0
07FFE0
07FFE0
03FFC0
ENDCHAR
STARTCHAR F1FE
ENCODING 61950
SWIDTH 977 0
DWIDTH 19 0
BBX 19 19 0 0
BITMAP
7FF800
FFFC00
FFFC00
FFFC00
FFFC00
FFFFC0
FFFFE0
FE0060
FE0060
FE0060
FE0060
FE0060
FE0060
7E0060
060060
060060
0600E0
07FFE0
03FFC0
ENDCHAR
STARTCHAR F1FF
ENCODING 61951
SWIDTH 977 0
DWIDTH 19 0
BBX 19 19 0 0
BITMAP
7FF800
FFFC00
E00C00
C00C00
C00C00
C7FFC0
C7FFE0
C7FC60
C7FC60
C7FC60
C7FC60
C7FC60
FFFC60
7FFC60
060060
060060
0600E0
07FFE0
03FFC0
ENDCHAR
STARTCHAR F200
ENCODING 61952
SWIDTH 977 0
DWIDTH 19 0
BBX 19 19 0 0
BITMAP
7FF800
FFFC00
FFFC00
FFFC00
FFFC00
FFFFC0
FFFFE0
FE0FE0
FE0FE0
FE0FE0
FE0FE0
FE0FE0
FFFFE0
7FFFE0
07FFE0
07FFE0
07FFE0
07FFE0
03FFC0
ENDCHAR
STARTCHAR F201
ENCODING 61953
SWIDTH 977 0
DWIDTH 19 0
BBX 19 19 0 0
BITMAP
7FF800
FFFC00
E1FC00
C1FC00
C3FC00
C1FFC0
C8FFE0
FC7FE0
FE3FE0
FF1FE0
FF8FE0
FFC7E0
FFE260
7FF060
07F860
07F060
07F0E0
07FFE0
03FFC0
ENDCHAR
STARTCHAR F202
ENCODING 61954
SWIDTH 977 0
DWIDTH 19 0
BBX 19 19 0 0
BITMAP
F80000
F80000
F8E000
F9F800
F8FE00
F80E00
F80700
F80300
F80FE0
F80FE0
F807C0
F80380
F80100
000000
03FFE0
030060
020020
030060
03FFE0
ENDCHAR
STARTCHAR F203
ENCODING 61955
SWIDTH 977 0
DWIDTH 19 0
BBX 19 19 0 0
BITMAP
0003E0
0003E0
00E3E0
03F3E0
0FE3E0
0E03E0
1C03E0
1803E0
FE03E0
FE03E0
7C03E0
3803E0
1003E0
000000
FFF800
C01800
800800
C01800
FFF800
ENDCHAR
STARTCHAR F204
ENCODING 61956
SWIDTH 977 0
DWIDTH 19 0
BBX 19 18 0 0
BITMAP
0C0000
1E0000
3F0000
7F8000
F3C000
F1E000
F8F000
7C7800
3E3C00
1F1C00
0FB900
07F300
03E700
01CF00
009F80
003F00
0006C0
0000E0
ENDCHAR
STARTCHAR F205
ENCODING 61957
SWIDTH 977 0
DWIDTH 19 0
BBX 19 19 0 0
BITMAP
FFFFE0
FFFFE0
FBFDE0
FBDDE0
FAD5A0
C00000
F80020
F00020
F80020
E00020
E00020
F80020
F00020
F80020
C00020
F80020
F80020
F00020
FBFFE0
ENDCHAR
STARTCHAR F206
ENCODING 61958
SWIDTH 977 0
DWIDTH 19 0
BBX 17 17 1 1
BITMAP
022000
07F000
3FFE00
380E00
33E600
67F300
EFFB80
6FFB00
6FFB00
6FFB00
EFFB80
67F300
33E600
380E00
3FFE00
07F000
022000
ENDCHAR
STARTCHAR F207
ENCODING 61959
SWIDTH 977 0
DWIDTH 19 0
BBX 19 19 0 0
BITMAP
001800
000E00
000700
000380
0003C0
0003C0
0003E0
0003E0
0003E0
0003E0
0007E0
800FE0
C01FE0
603FC0
7FFFC0
3FFF80
1FFF00
0FFE00
01F800
ENDCHAR
STARTCHAR F208
ENCODING 61960
SWIDTH 977 0
DWIDTH 19 0
BBX 14 18 3 0
BITMAP
0300
0780
0FC0
1FE0
1FE0
3FF0
77F8
6FF8
EFFC
CFFC
C7FC
C7FC
E7FC
E3FC
73F8
3FF0
1FE0
0FC0
ENDCHAR
STARTCHAR F209
ENCODING 61961
SWIDTH 977 0
DWIDTH 19 0
BBX 19 19 0 0
BITMAP
050020
3DC1E0
FDF7E0
FDF7E0
FDF7E0
FDF7E0
FDF7E0
FDF7E0
F9F7E0
E07700
1D94E0
7DE3E0
FDF7E0
FDF7E0
FDF7E0
FDF7E0
FDF7E0
F07780
801400
ENDCHAR
STARTCHAR F20A
ENCODING 61962
SWIDTH 977 0
DWIDTH 19 0
BBX 19 19 0 0
BITMAP
030000
070000
0F0000
1F8000
3FC000
7FE000
FFF000
FFFF00
1FFF00
0FFF00
07FE00
03FC00
01FC00
01FE00
01E700
01C380
0001C0
0000C0
000020
ENDCHAR
STARTCHAR F20B
ENCODING 61963
SWIDTH 977 0
DWIDTH 19 0
BBX 19 19 0 0
BITMAP
1B0000
3BC000
3BF000
3BF800
3BFE00
3BFF80
3BFFE0
3BFFE0
3BFF80
3BFF00
3BFC00
3BF000
3BC000
3B0000
380000
380000
380000
FE0000
FE0000
ENDCHAR
STARTCHAR F20C
ENCODING 61964
SWIDTH 977 0
DWIDTH 19 0
BBX 19 19 0 0
BITMAP
01F000
033800
043C00
047C00
04FC00
07F400
07E400
03E800
01F000
004000
000000
00E000
0FFE00
38E380
C0E060
804020
C04060
380380
07FC00
ENDCHAR
STARTCHAR F20D
ENCODING 61965
SWIDTH 977 0
DWIDTH 19 0
BBX 11 19 4 0
BITMAP
0E00
1F00
3B80
3180
3180
3180
3180
3180
3180
71C0
E0E0
C060
C060
C060
C060
E0E0
7BC0
3F80
1F00
ENDCHAR
STARTCHAR F20E
ENCODING 61966
SWIDTH 977 0
DWIDTH 19 0
BBX 17 19 1 0
BITMAP
FFFF80
FFFF80
E3CF80
E38780
FF8780
E38780
FF8780
E3B780
FFB780
E3B780
E33780
FF7B80
FE7B80
FE7B80
FF7B80
FF0780
FFCF80
FFFF80
FFFF80
ENDCHAR
STARTCHAR F20F
ENCODING 61967
SWIDTH 977 0
DWIDTH 19 0
BBX 19 19 0 0
BITMAP
0C0600
0C0600
4DF640
CDF660
CDF660
CDF660
E3F0E0
FFFFE0
E1F0E0
8CE620
BEEFA0
FEEFA0
FEEF20
C0E020
9FFFA0
BFEFA0
BFE720
80F060
FFFFE0
ENDCHAR
STARTCHAR F210
ENCODING 61968
SWIDTH 977 0
DWIDTH 19 0
BBX 19 19 0 1
BITMAP
03F800
0FFE00
1F1F00
3C0780
7001C0
7401C0
E308E0
E3B0E0
C1F060
C0E060
C04060
E000E0
E000E0
7001C0
7001C0
3C0780
1F1F00
0FFE00
03F800
ENDCHAR
STARTCHAR F211
ENCODING 61969
SWIDTH 977 0
DWIDTH 19 0
BBX 19 19 0 0
BITMAP
1FFF00
3FFF80
B803A0
B803A0
B803A0
B803A0
B803A0
BFFFA0
BFFFA0
FE0FE0
FC07E0
FC07E0
E404E0
C40460
FFFFE0
FFFFE0
7FFFC0
7001C0
6000C0
ENDCHAR
STARTCHAR F212
ENCODING 61970
SWIDTH 977 0
DWIDTH 19 0
BBX 19 19 0 0
BITMAP
03F800
0FFE00
1FFF00
3CE780
70E1C0
7041C0
E000E0
E000E0
F803E0
FC07E0
F803E0
E000E0
E000E0
7041C0
70E1C0
3CE780
1FFF00
0FFE00
03F800
ENDCHAR
STARTCHAR F213
ENCODING 61971
SWIDTH 977 0
DWIDTH 19 0
BBX 19 19 0 0
BITMAP
3C0000
7F0000
FF8000
FFC000
FFE000
FFE000
7FE000
7FC000
3FE000
1FF000
06F800
007C00
003E00
001F80
000FC0
0007E0
0003E0
0003E0
0000C0
ENDCHAR
STARTCHAR F214
ENCODING 61972
SWIDTH 977 0
DWIDTH 19 0
BBX 19 19 0 -1
BITMAP
C00000
E00000
F00000
780000
7C0000
3E0000
1F0000
1F8000
0FE000
07F000
03F800
01FC00
00FE00
005F00
000FC0
0007E0
0003E0
0003E0
0001C0
ENDCHAR
STARTCHAR F215
ENCODING 61973
SWIDTH 977 0
DWIDTH 19 0
BBX 19 19 0 1
BITMAP
060C00
071C00
071C00
03B800
01F000
00E000
00E000
01F000
03F800
03F800
07FC00
0FFE00
0E0E00
1E0F00
3E0F80
7E0FC0
7E0FC0
FE0FE0
FE0FE0
ENDCHAR
STARTCHAR F216
ENCODING 61974
SWIDTH 977 0
DWIDTH 19 0
BBX 19 19 0 0
BITMAP
7FF3E0
7FF7E0
603700
401600
401600
401600
601600
7FF600
7FF600
7FF600
7FF600
7FF600
7FFE00
7FFE00
7FF000
7FF000
7FF000
FFF800
FFF800
ENDCHAR
STARTCHAR F217
ENCODING 61975
SWIDTH 977 0
DWIDTH 19 0
BBX 17 19 1 0
BITMAP
00C000
01C000
03E000
07F000
0FF800
0FFC00
1FFE00
3FFE00
3FFF00
1FFC00
1FFE00
3FFE00
7FFF00
7FFF80
FFFF80
03E000
03E000
03E000
03E000
ENDCHAR
STARTCHAR F218
ENCODING 61976
SWIDTH 977 0
DWIDTH 19 0
BBX 19 19 0 0
BITMAP
004000
01F000
0FFE00
3FFF80
7FFFC0
7FFFC0
FFFFE0
87FC20
00E000
00E000
00E000
00E000
00E000
00E000
08E000
0CE000
0EE000
0FC000
078000
ENDCHAR
STARTCHAR F219
ENCODING 61977
SWIDTH 977 0
DWIDTH 19 0
BBX 19 19 0 0
BITMAP
11F180
39F3C0
70E1E0
FFFFE0
5FFF40
1E0F00
380380
300980
7011C0
7071C0
70E1C0
7041C0
7001C0
300180
380380
1C0700
0F1E00
07FC00
01F000
ENDCHAR
STARTCHAR F21A
ENCODING 61978
SWIDTH 977 0
DWIDTH 19 0
BBX 19 19 0 0
BITMAP
002000
016800
036C00
036C00
076E00
076E00
0F6E00
0F6F00
1F6F00
1F6F80
3F6F80
7F6FC0
7F6FC0
006000
FFFFE0
FFFFE0
7FFFC0
3FFF80
1FFF00
ENDCHAR
STARTCHAR F21B
ENCODING 61979
SWIDTH 977 0
DWIDTH 19 0
BBX 19 19 0 0
BITMAP
004000
00E000
7FFE00
FFFF00
FFFFC0
FFFFE0
FFFFE0
FFFF80
FFFF00
7FE000
00E000
00E000
00E000
00E000
00E000
00E000
00E000
00E000
004000
ENDCHAR
STARTCHAR F21C
ENCODING 61980
SWIDTH 977 0
DWIDTH 19 0
BBX 15 19 2 0
BITMAP
07C0
3FF8
7FFC
7FFE
FFFE
FFFC
7FFC
7FFE
7FFE
FFFC
7FFC
7FF8
1FF0
1FF0
07C0
07C0
07C0
07C0
07C0
ENDCHAR
STARTCHAR F21D
ENCODING 61981
SWIDTH 977 0
DWIDTH 19 0
BBX 19 19 0 0
BITMAP
00E000
01F000
03B800
031800
03B800
01F000
01F000
00E000
03F800
03F800
03F800
00E000
F8E3E0
F0E1E0
F0E1E0
FCE7E0
9FFF20
0FFE00
03F800
ENDCHAR
STARTCHAR F21E
ENCODING 61982
SWIDTH 977 0
DWIDTH 19 0
BBX 19 19 0 0
BITMAP
004000
00E000
00E000
03F800
0FFE00
0E0E00
1C0700
180300
7803C0
F803E0
7803C0
180300
1C0700
0E0E00
0FFE00
03F800
00E000
00E000
004000
ENDCHAR
STARTCHAR F21F
ENCODING 61983
SWIDTH 977 0
DWIDTH 19 0
BBX 19 19 0 0
BITMAP
004000
00E000
00E000
03F800
0FFE00
0E0E00
1CE700
19F300
7BFBC0
FBFBE0
7BFBC0
19F300
1CE700
0E0E00
0FFE00
03F800
00E000
00E000
004000
ENDCHAR
STARTCHAR F220
ENCODING 61984
SWIDTH 977 0
DWIDTH 19 0
BBX 14 18 3 1
BITMAP
0FC0
1FE0
3CF0
7038
E01C
E01C
C00C
C00C
C00C
E01C
7038
7878
3FF0
1FE0
1FE0
0FC0
0780
0300
ENDCHAR
STARTCHAR F221
ENCODING 61985
SWIDTH 977 0
DWIDTH 19 0
BBX 14 18 3 1
BITMAP
0FC0
1FE0
3CF0
7038
E31C
E31C
CFCC
DFEC
C30C
E31C
7338
7878
3FF0
1FE0
1FE0
0FC0
0780
0300
ENDCHAR
STARTCHAR F222
ENCODING 61986
SWIDTH 977 0
DWIDTH 19 0
BBX 14 18 3 0
BITMAP
0FC0
1FE0
3CF0
7038
E01C
E01C
CFCC
DFEC
C00C
E01C
7038
7878
3FF0
1FE0
1FE0
0FC0
0780
0300
ENDCHAR
STARTCHAR F223
ENCODING 61987
SWIDTH 977 0
DWIDTH 19 0
BBX 14 18 3 0
BITMAP
0FC0
1FE0
3CF0
7038
E01C
E79C
C78C
C78C
C78C
E01C
7038
7878
3FF0
1FE0
1FE0
0FC0
0780
0300
ENDCHAR
STARTCHAR F224
ENCODING 61988
SWIDTH 977 0
DWIDTH 19 0
BBX 17 19 1 0
BITMAP
03E000
0FF800
1E3C00
380E00
700700
600300
E00380
E00380
E00380
E00380
E00380
600300
700700
3C1E00
1FFC00
0FF800
07F000
01C000
008000
ENDCHAR
STARTCHAR F225
ENCODING 61989
SWIDTH 977 0
DWIDTH 19 0
BBX 17 19 1 0
BITMAP
03E000
0FF800
1E3C00
380E00
71C700
61C300
E1C380
EFFB80
EFFB80
E7C380
E1C380
61C300
71C700
3C1E00
1FFC00
0FF800
07F000
01C000
008000
ENDCHAR
STARTCHAR F226
ENCODING 61990
SWIDTH 977 0
DWIDTH 19 0
BBX 17 19 1 0
BITMAP
03E000
0FF800
1E3C00
380E00
700700
600300
E00380
EFFB80
EFFB80
E7F380
E00380
600300
700700
3C1E00
1FFC00
0FF800
07F000
01C000
008000
ENDCHAR
STARTCHAR F227
ENCODING 61991
SWIDTH 977 0
DWIDTH 19 0
BBX 17 19 1 0
BITMAP
03E000
0FF800
1E3C00
380E00
700700
63E300
E7F380
E7F380
E7F380
E7F380
E3E380
61C300
700700
3C1E00
1FFC00
0FF800
07F000
01C000
008000
ENDCHAR
STARTCHAR F228
ENCODING 61992
SWIDTH 977 0
DWIDTH 19 0
BBX 19 19 0 0
BITMAP
03F800
0FFE00
1F1F00
3C0780
7001C0
7001C0
F001E0
FFFFE0
DFFF60
C7FC60
C7FC60
E3F8E0
E1F0E0
70E1C0
70E1C0
3CE780
1FFF00
0FFE00
03F800
ENDCHAR
STARTCHAR F229
ENCODING 61993
SWIDTH 977 0
DWIDTH 19 0
BBX 19 19 0 0
BITMAP
400200
E00400
700400
380C00
100400
060400
070440
0382C0
01C280
00E280
007280
0038C0
001C40
000E40
000700
000380
0001C0
0000E0
000040
ENDCHAR
STARTCHAR F22A
ENCODING 61994
SWIDTH 977 0
DWIDTH 19 0
BBX 13 19 3 0
BITMAP
1FC0
F8F8
F078
7070
1040
18C0
1FC0
F8F8
F078
7070
1040
18C0
1FC0
F8F8
F078
7070
1040
18C0
1FC0
ENDCHAR
STARTCHAR F22B
ENCODING 61995
SWIDTH 977 0
DWIDTH 19 0
BBX 19 19 0 0
BITMAP
03F800
0FFE00
1FBF00
3F1F80
7F1FC0
7F1FC0
FF1FE0
FF1FE0
FF01E0
FF01E0
FF81E0
FFFFE0
FFFFE0
7FFFC0
7FFFC0
3FFF80
1FFF00
0FFE00
03F800
ENDCHAR
STARTCHAR F22C
ENCODING 61996
SWIDTH 977 0
DWIDTH 19 0
BBX 16 19 2 0
BITMAP
0180
03C0
03C6
03CF
03CF
03CF
63CF
F3CF
F3FF
F3FF
F3FE
FFFC
7FC0
3FC0
03C0
03C0
03C0
03C0
03C0
ENDCHAR
STARTCHAR F22D
ENCODING 61997
SWIDTH 977 0
DWIDTH 19 0
BBX 19 19 0 0
BITMAP
1FF800
3FF800
038000
010000
010000
C38000
FFFC00
FFFF00
FFFF80
FFFF80
FFFFC0
C387C0
000FE0
000FE0
000000
000180
0003C0
0003C0
000180
ENDCHAR
STARTCHAR F22E
ENCODING 61998
SWIDTH 977 0
DWIDTH 19 0
BBX 17 19 1 0
BITMAP
00C000
03E000
03E000
11C600
51C780
F3E780
7FFF00
7F7F00
CC1880
0C1800
CC1880
7F7F00
7FFF00
F3E780
51C780
11C600
03E000
03E000
00C000
ENDCHAR
STARTCHAR F22F
ENCODING 61999
SWIDTH 977 0
DWIDTH 19 0
BBX 19 19 0 -1
BITMAP
01E000
07F800
0FF800
0FF800
0FF000
0FEF80
0FDFC0
4FFFE0
E7FFE0
FBFFE0
FFFFE0
FFFFE0
7FFFC0
3FFF80
000000
18C600
18CE00
398C00
118C00
ENDCHAR
STARTCHAR F230
ENCODING 62000
SWIDTH 977 0
DWIDTH 19 0
BBX 19 18 0 0
BITMAP
01E000
07F800
0FF800
0FF800
0FF000
0FEF80
0FDFC0
4FFFE0
E1E7E0
F9E7E0
F8E3E0
FAEBE0
420BC0
0F3980
0F3C00
043000
041000
041000
ENDCHAR
STARTCHAR F231
ENCODING 62001
SWIDTH 977 0
DWIDTH 19 0
BBX 19 19 0 0
BITMAP
800000
600000
380000
1F0000
0FC000
07F000
03FC00
01FE00
00FC00
01F000
07E000
0FF000
07F800
01FC00
007E00
001F00
000380
0000C0
000020
ENDCHAR
STARTCHAR F232
ENCODING 62002
SWIDTH 977 0
DWIDTH 19 0
BBX 19 19 0 0
BITMAP
1BFFE0
3BFFE0
3BFFC0
3BFF80
3BFF00
3BFE00
3BFE00
3BFF00
3BFF80
3BFFC0
3BFFE0
3BFFE0
380000
380000
380000
380000
380000
FE0000
FE0000
ENDCHAR
STARTCHAR F233
ENCODING 62003
SWIDTH 977 0
DWIDTH 19 0
BBX 19 19 0 0
BITMAP
1C0700
7001C0
60E0C0
C7FC60
8FFE20
9E0F20
380380
320180
7111C0
71F1C0
70E1C0
7041C0
7001C0
300180
380380
1C0700
3F1F80
37FD80
61F0C0
ENDCHAR
STARTCHAR F234
ENCODING 62004
SWIDTH 977 0
DWIDTH 19 0
BBX 19 19 0 1
BITMAP
03F800
07FC00
071C00
060C00
060C00
CFFE60
CFFE60
CFFE60
CFFE60
CFFE60
CFFE60
CFFE60
CFFE60
CFFE60
CFFE60
CFFE60
CFFE60
CFFE60
CFFE60
ENDCHAR
STARTCHAR F235
ENCODING 62005
SWIDTH 977 0
DWIDTH 19 0
BBX 18 19 0 0
BITMAP
010000
021000
022000
022000
012000
011000
000000
3FFF80
7FFF80
FFFF80
9FFF00
9FFF00
DFFF00
7FFE00
07FC00
000000
000000
7FFFC0
3FFF80
ENDCHAR
STARTCHAR F236
ENCODING 62006
SWIDTH 977 0
DWIDTH 19 0
BBX 19 19 0 0
BITMAP
FFFFE0
800020
420040
230080
110100
09C200
0FFE00
07FC00
03F800
01F000
00E000
00E000
00E000
00E000
00E000
00E000
00E000
07FC00
07FC00
ENDCHAR
STARTCHAR F237
ENCODING 62007
SWIDTH 977 0
DWIDTH 19 0
BBX 19 19 0 0
BITMAP
03F800
0FFE00
1CE700
38E380
70E1C0
63F8C0
C7FC60
C6EC60
FFFFE0
FFFFE0
FFFFE0
C6EC60
C7FC60
63F8C0
70E1C0
38E380
1CE700
0FFE00
03F800
ENDCHAR
STARTCHAR F238
ENCODING 62008
SWIDTH 977 0
DWIDTH 19 0
BBX 11 19 4 0
BITMAP
7FC0
C060
8020
8020
8020
8020
8020
FFE0
FFE0
7FC0
3F80
0E00
0E00
0E00
0E00
0E00
0E00
7FC0
7FC0
ENDCHAR
STARTCHAR F239
ENCODING 62009
SWIDTH 977 0
DWIDTH 19 0
BBX 19 17 0 1
BITMAP
0FFE00
1FFF00
3FFF80
300180
300180
300180
7001C0
FFFFE0
FFFFE0
FFFFE0
C7FC60
E7FCE0
FFFFE0
7FFFC0
7001C0
7001C0
200080
ENDCHAR
STARTCHAR F23A
ENCODING 62010
SWIDTH 977 0
DWIDTH 19 0
BBX 17 19 1 0
BITMAP
008000
01C000
01C000
03E000
03E000
07F000
07F000
07F000
0FF800
0FF800
1FFC00
1FFC00
3FFE00
3FFE00
3F7E00
7C1F00
780F00
F00780
C00180
ENDCHAR
STARTCHAR F23B
ENCODING 62011
SWIDTH 977 0
DWIDTH 19 0
BBX 19 18 0 0
BITMAP
701C00
DC6600
86C360
0381C0
000000
783C00
8C6600
07C3E0
000000
000000
F83E00
8C6220
07C1E0
000000
201800
F87E00
8C6320
0381E0
ENDCHAR
STARTCHAR F23C
ENCODING 62012
SWIDTH 977 0
DWIDTH 19 0
BBX 19 19 0 0
BITMAP
000FC0
00FFE0
FFF8E0
FFC000
3C0000
000000
000000
000F80
007FE0
E7FDE0
FFC000
3E0000
000000
000000
000780
007FE0
63FFE0
FFC000
7E0000
ENDCHAR
STARTCHAR F23D
ENCODING 62013
SWIDTH 977 0
DWIDTH 19 0
BBX 19 19 0 1
BITMAP
1E0F00
3E0F80
7FFFC0
FFFFE0
FFFFE0
800020
800020
B437A0
B515A0
B415A0
9C75A0
8565A0
8437A0
800020
800020
FFFFE0
FFFFE0
FFFFE0
180300
ENDCHAR
STARTCHAR F23E
ENCODING 62014
SWIDTH 977 0
DWIDTH 19 0
BBX 19 19 0 1
BITMAP
E00000
700000
780000
7C0000
3E0000
1FFFE0
0FFFE0
07FF80
07FC00
07F000
07F800
07FC00
07BE00
079F00
070FE0
0707E0
070380
070100
060100
ENDCHAR
STARTCHAR F23F
ENCODING 62015
SWIDTH 977 0
DWIDTH 19 0
BBX 19 16 0 1
BITMAP
00FFC0
01FFE0
01FFE0
3FFFE0
61FFE0
C1FFE0
81FFE0
81FFE0
81FFE0
FFFFE0
FFFFE0
FFFFE0
1E0F00
3E0F80
1E0F00
0C0600
ENDCHAR
STARTCHAR F240
ENCODING 62016
SWIDTH 977 0
DWIDTH 19 0
BBX 19 19 0 0
BITMAP
004000
00E000
0FFFC0
1FFFE0
7FFFE0
FFFFE0
FFFFE0
3FFFE0
1FFFE0
07E000
00E000
00E000
00E000
00E000
00E000
00E000
00E000
00E000
004000
ENDCHAR
STARTCHAR F241
ENCODING 62017
SWIDTH 977 0
DWIDTH 19 0
BBX 19 19 0 0
BITMAP
FFFFE0
FFFFE0
E000E0
C00060
C00060
C00060
C00060
C00060
C00060
F001E0
FFFFE0
FFFFE0
E3F8E0
C3F860
FFFFE0
FFFFE0
7FFFC0
7001C0
6000C0
ENDCHAR
STARTCHAR F242
ENCODING 62018
SWIDTH 977 0
DWIDTH 19 0
BBX 18 18 1 0
BITMAP
64C880
FFFFC0
FFFFC0
600080
6FFC80
EFFCC0
6FFC80
6FFC80
EFFCC0
EFFCC0
6FFC80
6FFC80
EFFCC0
6FFC80
600080
600180
FFFFC0
64C880
ENDCHAR
STARTCHAR F243
ENCODING 62019
SWIDTH 977 0
DWIDTH 19 0
BBX 18 18 1 0
BITMAP
64C880
FFFFC0
FFFFC0
600080
600080
E000C0
600080
600080
E000C0
E000C0
600080
600080
E000C0
600080
600080
600180
FFFFC0
64C880
ENDCHAR
STARTCHAR F244
ENCODING 62020
SWIDTH 977 0
DWIDTH 19 0
BBX 17 19 1 0
BITMAP
3FC000
7FE000
FFF000
FFF000
FFF000
FFFE00
FFFF00
801380
801380
801380
801380
801380
801380
801380
801F80
801F00
C03C00
FFF000
7FE000
ENDCHAR
STARTCHAR F245
ENCODING 62021
SWIDTH 977 0
DWIDTH 19 0
BBX 19 19 0 0
BITMAP
1FFF00
3FFF80
39B380
391380
391380
3FFF80
391380
391380
3FFF80
39B380
391380
391380
3FFF80
3FFF80
3E0F80
3E0F80
3E0F80
3E0F80
FFFFE0
ENDCHAR
STARTCHAR F246
ENCODING 62022
SWIDTH 977 0
DWIDTH 19 0
BBX 19 19 0 0
BITMAP
7FFFC0
FFFFE0
FF1FE0
FE0FE0
FE0FE0
FE0FE0
FE0FE0
E000E0
C00060
C00060
C00060
E000E0
FE0FE0
FE0FE0
FE0FE0
FE0FE0
FF1FE0
FFFFE0
7FFFC0
ENDCHAR
STARTCHAR F247
ENCODING 62023
SWIDTH 977 0
DWIDTH 19 0
BBX 19 19 0 0
BITMAP
7FFFC0
FFFFE0
E3F8E0
C1F060
C1F060
C1F060
C1F060
C00060
C00060
C00060
C00060
C00060
C1F060
C1F060
C1F060
C1F060
E3F8E0
FFFFE0
7FFFC0
ENDCHAR
STARTCHAR F248
ENCODING 62024
SWIDTH 977 0
DWIDTH 19 0
BBX 15 19 2 0
BITMAP
0820
0FE0
0FE0
1FF0
1830
1010
1FF0
1FF0
3018
3018
3018
3FF8
7FFC
600C
600C
7FFC
7FFC
FFFE
600C
ENDCHAR
STARTCHAR F249
ENCODING 62025
SWIDTH 977 0
DWIDTH 19 0
BBX 17 19 1 0
BITMAP
0E3800
0FF800
1FFC00
1FFC00
1E3C00
1E3C00
1E3C00
3E3E00
3FFE00
3FFE00
3FFE00
3E3E00
7E3F00
7E3F00
7E3F00
7FFF00
7FFF00
FFFF80
FE3F80
ENDCHAR
STARTCHAR F24A
ENCODING 62026
SWIDTH 977 0
DWIDTH 19 0
BBX 19 19 0 0
BITMAP
031800
031800
031800
071C00
071C00
000000
FFFFE0
FFFFE0
400040
4F1E40
4F1E40
4F1E40
0F1E00
1F1F00
1F1F00
1F1F00
1F1F00
1F1F00
3F1F80
ENDCHAR
STARTCHAR F24B
ENCODING 62027
SWIDTH 977 0
DWIDTH 19 0
BBX 17 19 1 0
BITMAP
3FFE00
7FFF00
7FFF00
FFFF80
7FFF00
3FFE00
3FFE00
3FFE00
3FFE00
3FFE00
3FFE00
1FFC00
1FFC00
1FFC00
1FFC00
1FFC00
0FF800
0FF800
0FF800
ENDCHAR
STARTCHAR F24C
ENCODING 62028
SWIDTH 977 0
DWIDTH 19 0
BBX 14 19 3 0
BITMAP
0700
0F80
0F80
0F80
0700
0700
3FE0
7FF0
7FF0
FFF8
FFD8
DFDC
1FC0
1FC0
1DC0
18C0
18C0
18C0
18C0
ENDCHAR
STARTCHAR F24D
ENCODING 62029
SWIDTH 977 0
DWIDTH 19 0
BBX 14 19 3 0
BITMAP
0700
0F80
0FC0
1FC0
0FC0
0700
3FE0
7FF0
7FF0
FFF8
FFD8
DFDC
1FE0
3FE0
7FF0
7FF8
7FF0
18C0
18C0
ENDCHAR
STARTCHAR F24E
ENCODING 62030
SWIDTH 977 0
DWIDTH 19 0
BBX 19 17 0 1
BITMAP
FFFC00
FFFC00
FFFC00
FFFFC0
FFFFE0
FFFCE0
FFFC60
FFFC60
FFFC60
FFFC60
FFFCE0
FFFFE0
FFFFC0
FFFC00
FFFC00
7FF800
3FF000
ENDCHAR
STARTCHAR F24F
ENCODING 62031
SWIDTH 977 0
DWIDTH 19 0
BBX 19 19 0 1
BITMAP
1FFF00
3FFF80
7803C0
F001E0
E00060
C00060
C00060
C00060
C00060
F001E0
FFFFE0
FFFFE0
E3F860
E3F860
FFFFE0
FFFFE0
7FFFC0
3C0780
1C0700
ENDCHAR
STARTCHAR F250
ENCODING 62032
SWIDTH 977 0
DWIDTH 19 0
BBX 19 19 0 0
BITMAP
C00000
C00000
C003E0
C001E0
C001E0
C003E0
C00720
C00E00
C0DC00
C1F800
DFF000
FF3000
F60000
E00000
C00000
C00000
C00000
FFFFE0
FFFFE0
ENDCHAR
STARTCHAR F251
ENCODING 62033
SWIDTH 977 0
DWIDTH 19 0
BBX 19 19 0 0
BITMAP
7FFFC0
FFFFE0
F001E0
E000E0
C00060
C00060
C01E60
C01E60
C01E60
C03E60
C3F260
C7E060
CFC060
CCC060
C00060
E000E0
F001E0
FFFFE0
7FFFC0
ENDCHAR
STARTCHAR F252
ENCODING 62034
SWIDTH 977 0
DWIDTH 19 0
BBX 19 19 0 0
BITMAP
7FFFC0
FFFFE0
F001E0
E000E0
C00060
CCC060
CFC060
C7E060
C3F260
C03E60
C01E60
C01E60
C01E60
C00060
C00060
E000E0
F001E0
FFFFE0
7FFFC0
ENDCHAR
STARTCHAR F253
ENCODING 62035
SWIDTH 977 0
DWIDTH 19 0
BBX 19 19 0 1
BITMAP
700400
FFFF00
FFFF80
FFFE00
600400
000000
000000
381800
7FE400
7FE400
7FE400
381800
000000
000000
0C0100
1FFFC0
3FFFE0
1FFFC0
1C0180
ENDCHAR
STARTCHAR F254
ENCODING 62036
SWIDTH 977 0
DWIDTH 19 0
BBX 19 19 0 0
BITMAP
7FFFC0
C4C980
FFFF80
BFFFC0
BFFFE0
F87780
FB6F80
BB6FE0
B85FC0
FF9F80
BFA1C0
BF2DE0
FF6D80
FEE180
BFFFE0
BFFFC0
FFFF80
C4C980
7FFFC0
ENDCHAR
STARTCHAR F255
ENCODING 62037
SWIDTH 977 0
DWIDTH 19 0
BBX 19 19 0 0
BITMAP
05F400
0DF600
0C0600
0C0600
0C0600
FFFFE0
FFFFE0
FDFFE0
FCFFE0
FC3FE0
FC0FE0
FC03E0
FC07E0
FC1FE0
FC3FE0
FCFFE0
FFFFE0
FFFFE0
FFFFE0
ENDCHAR
STARTCHAR F256
ENCODING 62038
SWIDTH 977 0
DWIDTH 19 0
BBX 19 19 0 0
BITMAP
FFFFE0
FFFFE0
E07FE0
C07FE0
C06DE0
C06060
C07FE0
C07FE0
C060E0
E060E0
FFFFE0
FFFFE0
C21060
FFFFE0
FFFFE0
E206E0
E204E0
FFFFE0
FFFFE0
ENDCHAR
STARTCHAR F257
ENCODING 62039
SWIDTH 977 0
DWIDTH 19 0
BBX 19 19 0 0
BITMAP
380000
3CF800
1FFE80
1FFFE0
1FFFE0
1FFFE0
39FFC0
79FFE0
FFFFE0
FFFFE0
FFFFE0
7FFFE0
3FFFC0
1FFFC0
1FFF80
0FFF80
0FFF80
0FF7C0
0F07C0
ENDCHAR
STARTCHAR F258
ENCODING 62040
SWIDTH 977 0
DWIDTH 19 0
BBX 19 19 0 0
BITMAP
7FFFC0
FFFFE0
E000E0
C00060
C00060
C00060
E000E0
FFFFE0
FFFFE0
EEDCE0
C4C860
C4C860
FFFFE0
FFF860
C4C860
C4C860
E4C8E0
FFFFE0
7FFFC0
ENDCHAR
STARTCHAR F259
ENCODING 62041
SWIDTH 977 0
DWIDTH 19 0
BBX 19 19 0 0
BITMAP
01F000
0FBE00
1F1F00
3C0780
7001C0
71F9C0
F3F9E0
F3FDE0
F00FE0
F803E0
FE01E0
F7F9E0
F3F9E0
73F1C0
7001C0
3C0780
1F1F00
0FBE00
03F800
ENDCHAR
STARTCHAR F25A
ENCODING 62042
SWIDTH 977 0
DWIDTH 19 0
BBX 19 19 0 0
BITMAP
01F800
0FFE00
1F9F00
3E0380
7801C0
78F1C0
E078E0
C07CE0
F3FFE0
F3FFE0
F3FFE0
C07CE0
E078E0
78F1C0
7801C0
3E0380
1F9F00
0FFE00
03F800
ENDCHAR
STARTCHAR F25B
ENCODING 62043
SWIDTH 977 0
DWIDTH 19 0
BBX 17 19 1 0
BITMAP
01F000
07FC00
0F9E00
0E0700
1C0300
180380
180380
180380
180000
1F8000
FFC000
7F8000
0C0000
0C0000
0C0000
0C0000
1C0000
1FFF80
1FFF80
ENDCHAR
STARTCHAR F25C
ENCODING 62044
SWIDTH 977 0
DWIDTH 19 0
BBX 19 19 0 0
BITMAP
01F000
0FFE00
1F1F00
3C0780
7C07C0
78E3C0
F9F3E0
F9F3E0
F03FE0
F01FE0
F03FE0
FCFFE0
FCFFE0
7803C0
7803C0
3FFF80
1FFF00
0FFE00
03F800
ENDCHAR
STARTCHAR F25D
ENCODING 62045
SWIDTH 977 0
DWIDTH 19 0
BBX 19 19 0 0
BITMAP
01F000
0FFE00
1FFF00
3FFF80
73F9C0
70E1C0
F843E0
FE0FE0
FF1FE0
FE1FE0
FC07E0
FF1FE0
FC07E0
7F1FC0
7F1FC0
3F1F80
1FBF00
0FFE00
03F800
ENDCHAR
STARTCHAR F25E
ENCODING 62046
SWIDTH 977 0
DWIDTH 19 0
BBX 19 19 0 0
BITMAP
03F800
07FC00
071C00
060C00
060C00
FFFFE0
FFFFE0
FFFFE0
FF1FE0
FE0FE0
00E000
FE4FE0
FE0FE0
FFFFE0
FFFFE0
FFFFE0
FFFFE0
FFFFE0
FFFFE0
ENDCHAR
STARTCHAR F25F
ENCODING 62047
SWIDTH 977 0
DWIDTH 19 0
BBX 19 19 0 0
BITMAP
03F800
07FC00
071C00
060C00
060C00
7FFFC0
FFFFE0
E1F0E0
0C0600
4DF640
CDF660
E1F0E0
FFFFE0
FFFFE0
FFFFE0
FFFFE0
FFFFE0
FFFFE0
7FFFC0
ENDCHAR
STARTCHAR F260
ENCODING 62048
SWIDTH 977 0
DWIDTH 19 0
BBX 19 19 0 0
BITMAP
0F3800
092400
092400
0FAC00
07F800
000000
FF1FE0
FF1FE0
000000
7F1FC0
7F1FC0
7F1FC0
7F1FC0
7F1FC0
7F1FC0
7F1FC0
7F1FC0
7F1FC0
7F1FC0
ENDCHAR
STARTCHAR F261
ENCODING 62049
SWIDTH 977 0
DWIDTH 19 0
BBX 19 18 0 0
BITMAP
264080
FFFFE0
FFFFE0
264080
000000
000000
000000
261880
7619C0
FFFFE0
261880
000000
000000
000000
008080
018CC0
FFFFE0
018CC0
ENDCHAR
STARTCHAR F262
ENCODING 62050
SWIDTH 977 0
DWIDTH 19 0
BBX 19 19 0 1
BITMAP
00E000
0FFE00
7FFFC0
FFFFE0
FFFFE0
000000
7DF7C0
7DF7C0
7DF7C0
7DF7C0
7DF7C0
7DF7C0
7DF7C0
7DF7C0
7DF7C0
000000
000000
FFFFE0
FFFFE0
ENDCHAR
STARTCHAR F263
ENCODING 62051
SWIDTH 977 0
DWIDTH 19 0
BBX 19 19 0 0
BITMAP
018000
01C000
01E000
03F000
07F800
09FC00
18FC00
FC7000
FE6000
7FE000
3FF000
1F3800
0E1C00
060E00
000700
000380
0001C0
0000E0
000060
ENDCHAR
STARTCHAR F264
ENCODING 62052
SWIDTH 977 0
DWIDTH 19 0
BBX 19 19 0 0
BITMAP
FF0000
FF8000
F3C000
E1E000
C1F000
C1F800
E3FC00
FFCE00
7F6700
3FB380
1ED9C0
0E6CE0
0737E0
039BC0
01CF80
00EF00
007E00
003C00
001800
ENDCHAR
STARTCHAR F265
ENCODING 62053
SWIDTH 977 0
DWIDTH 19 0
BBX 19 19 0 0
BITMAP
7FFFC0
FFFFE0
FBFFE0
FBFFE0
FBFFE0
C0E060
FBFFE0
FBFFE0
FFFFE0
FFFFE0
FFFFE0
CEFFE0
E5E060
F3FFE0
F1E060
ECFFE0
FEFFE0
FFFFE0
7FFFC0
ENDCHAR
STARTCHAR F266
ENCODING 62054
SWIDTH 977 0
DWIDTH 19 0
BBX 19 15 0 2
BITMAP
7FFFC0
FFFFE0
FFFFE0
FFFFE0
F843E0
F019E0
F03DE0
F07DE0
F03DE0
F019E0
F843E0
FFFFE0
FFFFE0
FFFFE0
7FFFC0
ENDCHAR
STARTCHAR F267
ENCODING 62055
SWIDTH 977 0
DWIDTH 19 0
BBX 19 19 0 0
BITMAP
0FF800
1FFE00
1FFF00
1FFF80
1E0F80
3E0FA0
3E1F20
3FFF20
3FFE60
3FFC40
7FF1C0
780380
79FE00
7B0000
FB0000
F20000
F20000
060000
3E0000
ENDCHAR
STARTCHAR F268
ENCODING 62056
SWIDTH 977 0
DWIDTH 19 0
BBX 19 19 0 0
BITMAP
7C03C0
F001E0
F001E0
E001E0
E001E0
C1FDE0
C1FFE0
E00FE0
E003E0
F001E0
F800E0
FE00E0
FFF060
F7F060
F000E0
F000E0
F001E0
F001E0
7807C0
ENDCHAR
STARTCHAR F269
ENCODING 62057
SWIDTH 977 0
DWIDTH 19 0
BBX 19 19 0 0
BITMAP
010000
018000
0BC000
0BE000
0BF000
13F800
173C00
171C00
171E00
270F00
2F3F80
2FFFC0
0FC3E0
4F81E0
5FB000
5E0800
800FC0
CE0000
F80000
ENDCHAR
STARTCHAR F26A
ENCODING 62058
SWIDTH 977 0
DWIDTH 19 0
BBX 19 19 0 0
BITMAP
E31C00
E39C00
77BC00
77B800
77B800
7FF800
7FF800
3FF800
3CF9E0
3CF9E0
3879E0
0079E0
0079E0
0079E0
0079E0
0039E0
003DE0
003FC0
001F80
ENDCHAR
STARTCHAR F26B
ENCODING 62059
SWIDTH 977 0
DWIDTH 19 0
BBX 19 19 0 0
BITMAP
080000
3E0800
E31F00
813F80
C03FC0
7F09C0
0101C0
810000
7F0000
080000
0807E0
000C20
701E00
720800
7F9E00
3F8800
1F0C20
020460
0003C0
ENDCHAR
STARTCHAR F26C
ENCODING 62060
SWIDTH 977 0
DWIDTH 19 0
BBX 19 19 0 0
BITMAP
7FFF00
400180
67FD80
F7FD80
E00180
47FD80
E00180
F7FD80
400180
47E180
F7F000
E00F80
479DC0
E01DE0
F79C20
401FE0
601FE0
3FEFC0
000780
ENDCHAR
STARTCHAR F26D
ENCODING 62061
SWIDTH 977 0
DWIDTH 19 0
BBX 15 19 2 0
BITMAP
0380
0FE0
0FE0
1FF0
1FF0
1FF0
DFF6
DFF6
DFF6
C386
C386
FFFE
1FF0
0380
0380
1FF0
1FF0
1BB0
1930
ENDCHAR
STARTCHAR F26E
ENCODING 62062
SWIDTH 977 0
DWIDTH 19 0
BBX 18 19 0 0
BITMAP
1FFE00
3FFE00
380600
380600
780780
FFFFC0
C4C9C0
C4C9C0
FFFFC0
EEDDC0
C4C9C0
C4C9C0
FFFFC0
000000
FFFF80
FF3FC0
FE1FC0
FF3FC0
FFFFC0
ENDCHAR
STARTCHAR F26F
ENCODING 62063
SWIDTH 977 0
DWIDTH 19 0
BBX 19 19 0 0
BITMAP
3FFF80
7FFFC0
FFFFE0
FFFFE0
F001E0
F001E0
F001E0
F1F1E0
F1F1E0
F1F1E0
F1F1E0
F1F1E0
F001E0
F001E0
F001E0
FFFFE0
FFFFE0
7FFFC0
3FFF80
ENDCHAR
STARTCHAR F270
ENCODING 62064
SWIDTH 977 0
DWIDTH 19 0
BBX 19 19 0 0
BITMAP
000380
018780
03C7C0
03E7C0
03F3C0
73FBE0
FBFBE0
FFFFE0
FDFFE0
3FFFE0
1FFFE0
1FFFE0
0FCFE0
0FCFE0
07C7E0
07C7C0
0787C0
0307C0
000380
ENDCHAR
STARTCHAR F271
ENCODING 62065
SWIDTH 977 0
DWIDTH 19 0
BBX 18 18 1 1
BITMAP
03F000
01F000
01E000
000000
0FFC00
1FFE00
1FBF00
1C0F00
3BF700
3BF700
3C0700
3BF700
3BF780
7C0780
7FBF80
FFFFC0
FFFFC0
7FFF80
ENDCHAR
STARTCHAR F272
ENCODING 62066
SWIDTH 977 0
DWIDTH 19 0
BBX 19 19 0 0
BITMAP
1FFF80
3FFF80
3FFF80
7FFFC0
7FFFC0
7FFFC0
FFFFE0
FFBFE0
F7BDE0
000000
000000
71F1C0
71F1C0
71F1C0
71F1C0
71F1C0
71F1C0
FFFFE0
FFFFE0
ENDCHAR
STARTCHAR F273
ENCODING 62067
SWIDTH 977 0
DWIDTH 19 0
BBX 19 19 0 0
BITMAP
05F400
0DF600
0C0600
0C0600
0C0600
FFFFE0
FFFFE0
FFFFE0
FFFFE0
FFFFE0
FFFFE0
FFFFE0
FFFFE0
FFFFE0
FFFFE0
FFFFE0
FFFFE0
FFFFE0
FFFFE0
ENDCHAR
STARTCHAR F274
ENCODING 62068
SWIDTH 977 0
DWIDTH 19 0
BBX 19 19 0 1
BITMAP
00E000
01F000
03F800
03F800
03F800
01F000
00E000
00E000
00E000
00E000
00E000
00E000
FFFFE0
FFFFE0
FFFFE0
000000
000000
7FFFC0
7FFFC0
ENDCHAR
STARTCHAR F275
ENCODING 62069
SWIDTH 977 0
DWIDTH 19 0
BBX 19 19 0 0
BITMAP
FE3FE0
836820
9A0B20
BA0BA0
BB3BA0
82C820
FFEFE0
B50C40
3C2A00
1E0000
8681A0
311FA0
FFF180
83F5C0
BA9180
BA3FA0
9A3F20
831440
FE25E0
ENDCHAR
STARTCHAR F276
ENCODING 62070
SWIDTH 977 0
DWIDTH 19 0
BBX 19 19 0 0
BITMAP
CD1A60
CD1A60
CD1A60
CD1A60
CD1A60
CD1A60
CD1A60
CD1A60
CD1A60
CD1A60
CD1A60
CD1A60
CD1A60
CD1A60
CD1A60
CD1A60
CD1A60
CD1A60
CD1A60
ENDCHAR
STARTCHAR F277
ENCODING 62071
SWIDTH 977 0
DWIDTH 19 0
BBX 19 19 0 0
BITMAP
011000
03B800
03F800
3FFF80
1FFF00
1FFF00
7FFFC0
FFFFE0
7FFFC0
3FFF80
7FFFC0
FFFFE0
7FFFC0
1FFF00
1FFF00
3FFF80
13F900
03B800
011000
ENDCHAR
STARTCHAR F278
ENCODING 62072
SWIDTH 977 0
DWIDTH 19 0
BBX 19 15 0 2
BITMAP
7FFFC0
FFFFE0
F803E0
F8E3E0
F1F1E0
83F820
83F820
83F820
83F820
83F820
F1F1E0
F8E3E0
F803E0
FFFFE0
7FFFC0
ENDCHAR
STARTCHAR F279
ENCODING 62073
SWIDTH 977 0
DWIDTH 19 0
BBX 19 15 0 2
BITMAP
7FFFC0
FFFFE0
FFFFE0
000000
000000
FFFFE0
FFFFE0
E76EE0
E264E0
FFFFE0
FFFFE0
C0C1E0
FFFFE0
FFFFE0
7FFFC0
ENDCHAR
STARTCHAR F27A
ENCODING 62074
SWIDTH 977 0
DWIDTH 19 0
BBX 19 19 0 0
BITMAP
F80000
F80000
F80000
F80000
F80000
F80000
F88460
F9DCE0
FFFDE0
FFFFE0
FFFFE0
FFFFE0
FFFFE0
FFFFE0
FFFFE0
FFFFE0
FFFFE0
FFFFE0
FFFFE0
ENDCHAR
STARTCHAR F27B
ENCODING 62075
SWIDTH 977 0
DWIDTH 19 0
BBX 19 16 0 1
BITMAP
1FFF80
3FFF80
7BFBC0
43F840
7BFBE0
FFFFE0
83D820
C31860
FE0FE0
82F820
FE0FE0
83E820
FE0FE0
837820
83F820
FFFFE0
ENDCHAR
STARTCHAR F27C
ENCODING 62076
SWIDTH 977 0
DWIDTH 19 0
BBX 18 19 1 1
BITMAP
0FFC00
0FFC00
0FFC00
0FFC00
0FFC00
6FFC80
EFFCC0
E000C0
FFFFC0
FFFFC0
FFFFC0
E000C0
EAD4C0
6AD480
0AD400
0AD400
0A1400
0A1400
081000
ENDCHAR
STARTCHAR F27D
ENCODING 62077
SWIDTH 977 0
DWIDTH 19 0
BBX 19 19 0 0
BITMAP
0FFE00
0FFF00
039800
039800
039800
039800
039800
039800
031C00
070E00
0E0600
1C0700
180380
3801C0
7000C0
6000E0
F000E0
FFFFE0
7FFFE0
ENDCHAR
STARTCHAR F27E
ENCODING 62078
SWIDTH 977 0
DWIDTH 19 0
BBX 19 19 0 0
BITMAP
0FFE00
0FFF00
039800
039800
039800
039800
039800
039800
031C00
070E00
0E0600
1C0700
1FFF80
3FFFC0
7FFFC0
7FFFE0
FFFFE0
FFFFE0
7FFFE0
ENDCHAR
STARTCHAR F27F
ENCODING 62079
SWIDTH 977 0
DWIDTH 19 0
BBX 15 19 2 0
BITMAP
0800
0600
0700
07C0
07E0
07F0
07F8
0FF8
1FFC
3F7C
7E7C
7E3E
7C3E
F83E
F03C
703C
3038
1030
0860
ENDCHAR
STARTCHAR F280
ENCODING 62080
SWIDTH 977 0
DWIDTH 19 0
BBX 19 15 0 2
BITMAP
00E000
07FC00
1FFF00
3FFF80
7FFFC0
4F1E40
CE0E60
8E0E20
CE0E60
4F1E40
7FFEC0
3FFF80
1FFF00
07FC00
00E000
ENDCHAR
STARTCHAR F281
ENCODING 62081
SWIDTH 977 0
DWIDTH 19 0
BBX 19 19 0 0
BITMAP
03F800
0FFE00
1FFF00
3FFF80
7FFFC0
7C07C0
F803E0
F803E0
F803E0
F803E0
F803E0
F803E0
F803E0
7803C0
000000
7C07C0
7C07C0
7C07C0
380380
ENDCHAR
STARTCHAR F282
ENCODING 62082
SWIDTH 977 0
DWIDTH 19 0
BBX 19 19 0 0
BITMAP
01F000
0FFE00
1F7F00
3C7F80
707FC0
707FC0
F07EE0
FCF8E0
FFB060
FF1060
FFB060
FCF8E0
F87EE0
707FC0
707FC0
3C7F80
1F7F00
0FFE00
03F800
ENDCHAR
STARTCHAR F283
ENCODING 62083
SWIDTH 977 0
DWIDTH 19 0
BBX 15 19 2 1
BITMAP
0060
0070
00F0
00F8
03DC
078C
0FCC
0F8E
1F8E
0F0E
020C
001C
7E1C
FE78
3FF0
3FC0
0FE0
1FF0
1FF0
ENDCHAR
STARTCHAR F284
ENCODING 62084
SWIDTH 977 0
DWIDTH 19 0
BBX 18 19 0 -1
BITMAP
003C00
007F00
00E780
01C380
038180
073180
0E7380
1CE700
39CE00
739CC0
6739C0
E77380
E7E700
63CE00
601C00
703800
3CF000
1FE000
07C000
ENDCHAR
STARTCHAR F285
ENCODING 62085
SWIDTH 977 0
DWIDTH 19 0
BBX 17 19 1 1
BITMAP
003000
007800
00FC00
01CE00
038700
070380
0E6380
1CE700
39CE00
739C00
E73B80
E67700
E7EE00
E7DC00
E03800
E07000
E0E000
FFC000
FF8000
ENDCHAR
STARTCHAR F286
ENCODING 62086
SWIDTH 977 0
DWIDTH 19 0
BBX 13 19 4 0
BITMAP
3C00
7F00
E780
C380
C180
C180
C1B0
D9B8
DDB8
DDB8
DDB8
DDB8
DFB8
CF38
C030
E070
79E0
3FC0
0F80
ENDCHAR
STARTCHAR F287
ENCODING 62087
SWIDTH 977 0
DWIDTH 19 0
BBX 19 19 0 -1
BITMAP
000060
0000E0
0001E0
0003E0
000FE0
FEFFE0
FEFFE0
FEFFE0
FEFFE0
FEFFE0
FEFFE0
FEFFE0
FEFFE0
FEFFE0
780FE0
7803E0
7801E0
7800E0
780060
ENDCHAR
STARTCHAR F288
ENCODING 62088
SWIDTH 977 0
DWIDTH 19 0
BBX 19 15 0 2
BITMAP
00E000
03F800
0FFE00
3FFF80
FFFFE0
FFFFE0
3FFFA0
0FFE20
03F820
08E220
0E0E20
0FFE20
0FFE20
000020
000020
ENDCHAR
STARTCHAR F289
ENCODING 62089
SWIDTH 977 0
DWIDTH 19 0
BBX 9 19 5 0
BITMAP
3E00
7F00
FF80
FF80
FF80
FF80
FF80
FF80
FF80
FF80
FF80
FF80
FF80
0000
1C00
1C00
1C00
1C00
0800
ENDCHAR
STARTCHAR F28A
ENCODING 62090
SWIDTH 977 0
DWIDTH 19 0
BBX 19 19 0 0
BITMAP
7FFFC0
DFFF60
8FFE20
DFFF60
FC07E0
FDF7E0
FDF7E0
FDF7E0
FDF7E0
FCE7E0
FC07E0
FDF7E0
FDF7E0
FDF7E0
FC07E0
DFFF60
8FFE20
DFFF60
7FFFC0
ENDCHAR
STARTCHAR F28B
ENCODING 62091
SWIDTH 977 0
DWIDTH 19 0
BBX 19 19 0 0
BITMAP
7FFFC0
DFFF60
8FFE20
DFFF60
FC07E0
F9F3E0
F3F9E0
F7FDE0
F4E5E0
F4E5E0
F4E5E0
F7FDE0
F3F9E0
F9F3E0
FC07E0
DFFF60
8FFE20
DFFF60
7FFFC0
ENDCHAR
STARTCHAR F28C
ENCODING 62092
SWIDTH 977 0
DWIDTH 19 0
BBX 19 19 0 0
BITMAP
7FFFC0
DFFF60
8FFE20
DFFF60
F001E0
F7FDE0
EFFEE0
EDF6E0
CDF660
CFFE60
CFFE60
EF1EE0
EF1EE0
F7FDE0
F001E0
DFFF60
8FFE20
DFFF60
7FFFC0
ENDCHAR
STARTCHAR F28D
ENCODING 62093
SWIDTH 977 0
DWIDTH 19 0
BBX 19 19 0 0
BITMAP
7FFFC0
DFFF60
8FFE20
DFFF60
FFFFE0
FFFFE0
F001E0
F781E0
F7C1E0
F7C1E0
F7C1E0
F781E0
F001E0
FFFFE0
FFFFE0
DFFF60
8FFE20
DFFF60
7FFFC0
ENDCHAR
STARTCHAR F28E
ENCODING 62094
SWIDTH 977 0
DWIDTH 19 0
BBX 19 19 0 0
BITMAP
7FFFC0
DFFF60
8FFE20
DFFF60
FFFFE0
FFFFE0
F001E0
F03DE0
F07DE0
F07DE0
F07DE0
F03DE0
F001E0
FFFFE0
FFFFE0
DFFF60
8FFE20
DFFF60
7FFFC0
ENDCHAR
STARTCHAR F28F
ENCODING 62095
SWIDTH 977 0
DWIDTH 19 0
BBX 19 17 0 1
BITMAP
004000
40E040
C04060
C04060
60E0C0
60E0C0
71F1C0
79F3C0
7BFBC0
7FFFC0
7FFFC0
7FFFC0
7FFFC0
000000
7FFFC0
FFFFE0
FFFFE0
ENDCHAR
STARTCHAR F290
ENCODING 62096
SWIDTH 977 0
DWIDTH 19 0
BBX 19 19 0 -1
BITMAP
060000
0E0000
1C0000
380000
7C0000
EE0000
C70000
038000
01C000
00E000
007700
003F80
001FC0
003FC0
003FE0
003FE0
001FE0
000FE0
0003C0
ENDCHAR
STARTCHAR F291
ENCODING 62097
SWIDTH 977 0
DWIDTH 19 0
BBX 19 18 0 0
BITMAP
0FC000
1FC000
1F8000
3F0000
7E0000
FF0000
FB8000
71C000
00E000
007000
003C00
001E00
001F00
000F80
0007C0
0003E0
0001E0
0000C0
ENDCHAR
STARTCHAR F292
ENCODING 62098
SWIDTH 977 0
DWIDTH 19 0
BBX 19 19 0 0
BITMAP
400000
F00000
780000
780000
380000
040000
020000
010000
008800
007800
007C00
00FF00
00FF80
003FC0
001FE0
001FE0
000FE0
0007E0
0003C0
ENDCHAR
STARTCHAR F293
ENCODING 62099
SWIDTH 977 0
DWIDTH 19 0
BBX 19 19 0 0
BITMAP
600000
F80000
F80000
780000
7C0000
0E1000
073800
027800
00FC00
01FF00
03F980
07ECC0
03F660
00DB20
004DA0
0066E0
003340
0019C0
000F00
ENDCHAR
STARTCHAR F294
ENCODING 62100
SWIDTH 977 0
DWIDTH 19 0
BBX 19 14 0 3
BITMAP
0C0600
0C0700
180300
380180
3001C0
6000C0
FF1FE0
CFF1E0
87B0E0
FF1FE0
FF1FE0
FF1FE0
7F0FC0
1C0780
ENDCHAR
STARTCHAR F295
ENCODING 62101
SWIDTH 977 0
DWIDTH 19 0
BBX 19 14 0 3
BITMAP
0C0600
0C0700
180300
380180
3001C0
6000C0
FF1FE0
C1F860
99B720
811020
811020
C11020
7F0FC0
1C0780
ENDCHAR
STARTCHAR F296
ENCODING 62102
SWIDTH 977 0
DWIDTH 19 0
BBX 19 19 0 0
BITMAP
800000
700000
7E0000
7F8000
3BF000
3CFE00
3E3F80
1F0FE0
1F83C0
0FC180
0FE180
0FF180
07F980
07FD80
07F780
03E380
03C100
018000
010000
ENDCHAR
STARTCHAR F297
ENCODING 62103
SWIDTH 977 0
DWIDTH 19 0
BBX 19 18 0 0
BITMAP
07FE00
0FFE00
0FBF00
07BFC0
011FC0
FC1F80
FC1F80
7E0060
FE01E0
7E03E0
7803C0
381980
3F1F80
1F3F00
0F3F00
0F3E00
071E00
000800
ENDCHAR
STARTCHAR F298
ENCODING 62104
SWIDTH 977 0
DWIDTH 19 0
BBX 19 19 0 0
BITMAP
7FFFC0
FFBFE0
FF1FE0
FE0FE0
FC07E0
FFFFE0
F71DE0
E60CE0
C40460
840420
C40460
E60CE0
F71DE0
FFFFE0
FC07E0
FE0FE0
FF1FE0
FFBFE0
7FFFC0
ENDCHAR
STARTCHAR F299
ENCODING 62105
SWIDTH 977 0
DWIDTH 19 0
BBX 19 19 0 0
BITMAP
030000
070000
0E4000
1CE000
39E000
73E000
E7E000
CFE000
1FF000
3FF800
1FCC00
00C600
006300
003380
001FC0
000FE0
0007E0
0003C0
000180
ENDCHAR
STARTCHAR F29A
ENCODING 62106
SWIDTH 977 0
DWIDTH 19 0
BBX 19 19 0 0
BITMAP
008000
00C000
00E000
00F000
01B000
011000
003000
000000
03F800
03F800
03F800
03F800
03F800
03F800
03F800
000000
000000
FFFFE0
FFFFE0
ENDCHAR
STARTCHAR F29B
ENCODING 62107
SWIDTH 977 0
DWIDTH 19 0
BBX 19 17 0 1
BITMAP
083FE0
087FE0
087FE0
086060
086260
08C260
08C260
08CFE0
09CFE0
09FFE0
0FFFE0
083E00
09DDC0
0BEBE0
FBEBE0
FBCBE0
01C1C0
ENDCHAR
STARTCHAR F29C
ENCODING 62108
SWIDTH 977 0
DWIDTH 19 0
BBX 15 19 2 0
BITMAP
0100
0380
07C0
07C0
0FE0
0C60
1830
1830
1C70
1FF0
1FF0
1FF0
3FF8
7FFC
FFFE
CFE6
CFE6
C386
0100
ENDCHAR
STARTCHAR F29D
ENCODING 62109
SWIDTH 977 0
DWIDTH 19 0
BBX 19 16 0 2
BITMAP
070C00
071C00
071C00
071C00
C31860
E000E0
F0E0E0
71F0C0
23F880
07FC00
0FFE00
0FFE00
0FFE00
0FFE00
0FFE00
07FC00
ENDCHAR
STARTCHAR F29E
ENCODING 62110
SWIDTH 977 0
DWIDTH 19 0
BBX 19 19 0 0
BITMAP
03F800
0E0E00
18E300
30E180
6EEEC0
4EEE40
CF5E60
835820
BC03A0
BF1FA0
BC07A0
835820
CF5E60
4EEE40
6EEEC0
30E180
18E300
0E0E00
03F800
ENDCHAR
STARTCHAR F29F
ENCODING 62111
SWIDTH 977 0
DWIDTH 19 0
BBX 18 19 1 1
BITMAP
0EF800
3E7E00
7F3C80
FF9DC0
FFDDC0
FFC0C0
FFC000
7F8000
3F0000
9E0000
C40000
F00000
F00000
F00000
E00000
000000
380000
380000
180000
ENDCHAR
STARTCHAR F2A0
ENCODING 62112
SWIDTH 977 0
DWIDTH 19 0
BBX 19 19 0 0
BITMAP
7E0FC0
7E0FC0
3C0780
3C0780
3C0780
3C0780
7EEFC0
7FFFC0
7FFFC0
FEEFE0
FE4FE0
FE0FE0
FE0FE0
FE0FE0
FE0FE0
FE0FE0
FE0FE0
FE0FE0
7C07C0
ENDCHAR
STARTCHAR F2A1
ENCODING 62113
SWIDTH 977 0
DWIDTH 19 0
BBX 11 19 4 0
BITMAP
1F00
3F80
7BC0
E0E0
C060
C060
C060
C060
E0E0
7FC0
3F80
1F00
0E00
0E00
3F80
3F80
1F00
0E00
0400
ENDCHAR
STARTCHAR F2A2
ENCODING 62114
SWIDTH 977 0
DWIDTH 19 0
BBX 19 19 0 0
BITMAP
003FE0
003FE0
001FE0
0003E0
0007E0
000EE0
071CE0
1FF8E0
3FF060
70F000
E07000
E03800
E03800
E03800
E03000
707000
7FE000
3FC000
0F8000
ENDCHAR
STARTCHAR F2A3
ENCODING 62115
SWIDTH 977 0
DWIDTH 19 0
BBX 19 19 0 0
BITMAP
3C0000
7E0000
FF0000
FF0000
FE0000
FC6000
78F000
31F800
03FC00
07FC00
07F800
03F180
01E3C0
00C7E0
000FE0
001FE0
001FE0
000FC0
000780
ENDCHAR
STARTCHAR F2A4
ENCODING 62116
SWIDTH 977 0
DWIDTH 19 0
BBX 11 19 4 0
BITMAP
1C00
7E00
7F00
7FE0
FFE0
FFE0
0000
FFE0
FFE0
FFE0
7FC0
7FC0
3F80
3F80
1F00
1F00
0E00
0E00
0400
ENDCHAR
STARTCHAR F2A5
ENCODING 62117
SWIDTH 977 0
DWIDTH 19 0
BBX 19 19 0 0
BITMAP
01B800
03F800
03F800
03F800
3BF980
7C07C0
7CF7C0
79FBC0
FBFBE0
FBFBE0
7BFBC0
01F800
0CF600
1E0F00
1FBF80
1FBF80
1FBF80
079C00
031C00
ENDCHAR
STARTCHAR F2A6
ENCODING 62118
SWIDTH 977 0
DWIDTH 19 0
BBX 19 19 0 0
BITMAP
03F800
0FFE00
1F1F00
3C0780
73F9C0
77FDC0
EF1EE0
EEEEE0
CDF660
CDF660
CDF660
EEEEE0
EF1EE0
77FDC0
73F9C0
3C0780
1F1F00
0FFE00
03F800
ENDCHAR
STARTCHAR F2A7
ENCODING 62119
SWIDTH 977 0
DWIDTH 19 0
BBX 19 19 0 0
BITMAP
03F800
0FFE00
1FFF00
3CE780
70E1C0
70E1C0
E0E0E0
E0E0E0
C0E060
C0E060
C1F060
E3F8E0
E7FCE0
7EEFC0
7CE7C0
3CE780
1FFF00
0FFE00
03F800
ENDCHAR
STARTCHAR F2A8
ENCODING 62120
SWIDTH 977 0
DWIDTH 19 0
BBX 19 19 0 0
BITMAP
040000
0E0000
1E0000
3F0000
FF0000
7F8000
7F8400
3FDE00
1FFE00
0FFF00
0FFF00
07FF00
03CF80
010780
000380
0001C0
0000C0
000040
000020
ENDCHAR
STARTCHAR F2A9
ENCODING 62121
SWIDTH 977 0
DWIDTH 19 0
BBX 17 19 1 0
BITMAP
008000
01C000
008000
01C000
01C000
C3E180
FFFF80
1FFC00
0FF800
07F000
0FF800
1FFC00
FFFF80
C3E180
01C000
01C000
008000
01C000
008000
ENDCHAR
STARTCHAR F2AA
ENCODING 62122
SWIDTH 977 0
DWIDTH 19 0
BBX 17 19 1 0
BITMAP
808080
C1C180
7FFF00
7FFF00
7FFF00
7F7F00
7F7F00
7E3F00
700700
F80F80
FC1F80
FC1F80
FC1F80
FDDF80
7FFF00
3FFE00
1FFC00
01C000
008000
ENDCHAR
STARTCHAR F2AB
ENCODING 62123
SWIDTH 977 0
DWIDTH 19 0
BBX 19 18 0 0
BITMAP
00E000
03F800
07FC00
071C00
060C00
060C00
001C00
007800
00F800
00E000
00E000
01F000
03F800
1FFF00
7F1FC0
F803E0
F001E0
E000E0
ENDCHAR
STARTCHAR F2AC
ENCODING 62124
SWIDTH 977 0
DWIDTH 19 0
BBX 19 19 0 0
BITMAP
004000
00E000
31F180
FBFBE0
F3F9E0
C0E060
C0E060
C00060
C00060
E000E0
FFFFE0
FFFFE0
C00060
FFFFE0
FFFFE0
C00060
E000E0
FFFFE0
7FFFC0
ENDCHAR
STARTCHAR F2AD
ENCODING 62125
SWIDTH 977 0
DWIDTH 19 0
BBX 19 19 0 0
BITMAP
07FC00
1FFF00
7FFFC0
FFFFE0
FFFFE0
FFFFE0
7FFFC0
7FFFC0
7FFFC0
7FFFC0
7FFFC0
7FFFC0
7FFFC0
7FFFC0
7FFFC0
7FFFC0
7FFFC0
7FFFC0
3FFF80
ENDCHAR
STARTCHAR F2AE
ENCODING 62126
SWIDTH 977 0
DWIDTH 19 0
BBX 15 19 2 0
BITMAP
3018
7FFC
FFFE
FFFE
FFFE
FFFE
FFFE
FFFE
3018
3018
FFFE
7FFC
3C78
0EE0
07C0
07C0
1EF0
3838
3018
ENDCHAR
STARTCHAR F2AF
ENCODING 62127
SWIDTH 977 0
DWIDTH 19 0
BBX 19 19 0 0
BITMAP
082080
186180
3CF3C0
3CF3C0
3CF3C0
FFFFE0
FFFFE0
3CF3C0
3CF3C0
3CF3C0
3CF3C0
3CF3C0
3CF3C0
3CF3C0
FFFFE0
FFFFE0
FFFFE0
3CF3C0
3CF3C0
ENDCHAR
STARTCHAR F2B0
ENCODING 62128
SWIDTH 977 0
DWIDTH 19 0
BBX 17 19 1 0
BITMAP
01C000
032000
021000
041000
7FFF00
4DE880
CE3880
4C0C80
580F00
280F00
580F00
4C0C80
CE3880
4DE880
7FFF00
041000
021000
032000
01C000
ENDCHAR
STARTCHAR F2B1
ENCODING 62129
SWIDTH 977 0
DWIDTH 19 0
BBX 17 19 1 0
BITMAP
07F800
0FF800
1FFC00
3FFE00
3FFF00
7FFF00
FFFF80
63E000
63E000
63F000
67F000
67F800
6FF800
0FF800
0FF800
0FF800
0FF800
07F000
07F000
ENDCHAR
STARTCHAR F2B2
ENCODING 62130
SWIDTH 977 0
DWIDTH 19 0
BBX 19 19 0 0
BITMAP
060000
030000
018000
018000
018000
818000
C38000
7F8000
3FC000
00E000
007F80
003FC0
003860
003020
003000
003000
003000
001800
000C00
ENDCHAR
STARTCHAR F2B3
ENCODING 62131
SWIDTH 977 0
DWIDTH 19 0
BBX 19 16 0 1
BITMAP
01F000
1FFF00
3FFF80
7FFFC0
7FFFC0
000000
7FFFC0
FFFFE0
7FFFC0
000000
FFFFE0
FFFFE0
000000
3FFF80
7FFFC0
3FFF80
ENDCHAR
STARTCHAR F2B4
ENCODING 62132
SWIDTH 977 0
DWIDTH 19 0
BBX 19 19 0 0
BITMAP
004000
00E000
10E100
384380
180300
01F000
03F800
07FC00
67FCC0
F7FDE0
67FCC0
07FC00
07FC00
07FC00
07FC00
000000
000000
FFFFE0
FFFFE0
ENDCHAR
STARTCHAR F2B5
ENCODING 62133
SWIDTH 977 0
DWIDTH 19 0
BBX 19 17 0 1
BITMAP
01F000
07FC00
1FFF00
380380
30F180
6018C0
40EC40
857420
85F420
85F420
46EC40
6318C0
31F180
380380
1FFF00
07FC00
01F000
ENDCHAR
STARTCHAR F2B6
ENCODING 62134
SWIDTH 977 0
DWIDTH 19 0
BBX 17 19 1 0
BITMAP
1FFC00
1FFC00
0C1800
0C1800
1C1C00
7C1F00
780F00
E00380
E00380
E00380
E00380
E00380
E00380
E00380
E00380
E00380
F00780
FFFF80
7FFF00
ENDCHAR
STARTCHAR F2B7
ENCODING 62135
SWIDTH 977 0
DWIDTH 19 0
BBX 16 19 1 1
BITMAP
01C3
03FC
0FF0
3FE0
7FFF
E1C0
E3E0
E7F0
EFF8
EFF8
EFF8
EFF8
EFF8
EFF8
EFF8
EFF8
EFF8
4FF8
0FF8
ENDCHAR
STARTCHAR F2B8
ENCODING 62136
SWIDTH 977 0
DWIDTH 19 0
BBX 19 19 0 0
BITMAP
0FFE00
1FFF00
180300
7001C0
E3F8E0
C7FC60
CFFE60
CFFE60
CFFE60
CFFE60
CFFE60
CFFE60
CFFE60
C7FC60
E3F8E0
7001C0
180300
1FFF00
0FFE00
ENDCHAR
STARTCHAR F2B9
ENCODING 62137
SWIDTH 977 0
DWIDTH 19 0
BBX 19 15 0 2
BITMAP
600000
FC0000
FE0000
FE0000
000000
FFFFE0
FFFFE0
FFFFE0
FFFFE0
FFFFE0
000000
380380
380380
380380
100100
ENDCHAR
STARTCHAR F2BA
ENCODING 62138
SWIDTH 977 0
DWIDTH 19 0
BBX 19 19 0 0
BITMAP
03F800
07FC00
071C00
060C00
060C00
7FFFC0
FFFFE0
FFBFE0
FF1FE0
FF1FE0
FF1FE0
F803E0
F803E0
FF1FE0
FF1FE0
FF1FE0
FFBFE0
FFFFE0
7FFFC0
ENDCHAR
STARTCHAR F2BB
ENCODING 62139
SWIDTH 977 0
DWIDTH 19 0
BBX 19 19 0 0
BITMAP
03F800
0FFE00
1FFF00
3FFF80
7C07C0
79F3C0
F3F9E0
F7FDE0
F7FDE0
F7FDE0
F7FDE0
F7FDE0
F3F9E0
79F3C0
7C07C0
3FFF80
1FFF00
0FFE00
03F800
ENDCHAR
STARTCHAR F2BC
ENCODING 62140
SWIDTH 977 0
DWIDTH 19 0
BBX 19 19 0 0
BITMAP
03F800
0FFE00
1FFF00
3FFF80
7FFFC0
7803C0
FBFBE0
FBFBE0
FBFBE0
FBFBE0
FBFBE0
FBFBE0
FBFBE0
7803C0
7FFFC0
3FFF80
1FFF00
0FFE00
03F800
ENDCHAR
STARTCHAR F2BD
ENCODING 62141
SWIDTH 977 0
DWIDTH 19 0
BBX 19 19 0 0
BITMAP
03F800
0FFE00
1FFF00
3FFF80
7FBFC0
7F5FC0
FE4FE0
FEEFE0
FCE7E0
FDF7E0
FBFBE0
F3F9E0
F7FDE0
7001C0
7FFFC0
3FFF80
1FFF00
0FFE00
03F800
ENDCHAR
STARTCHAR F2BE
ENCODING 62142
SWIDTH 977 0
DWIDTH 19 0
BBX 19 19 0 0
BITMAP
03F800
0FFE00
1FFF00
3FFF80
7FFFC0
7BFBC0
FDF7E0
FEEFE0
FF5FE0
FFBFE0
FF5FE0
FEEFE0
FDF7E0
7BFBC0
7FFFC0
3FFF80
1FFF00
0FFE00
03F800
ENDCHAR
STARTCHAR F2BF
ENCODING 62143
SWIDTH 977 0
DWIDTH 19 0
BBX 19 19 0 0
BITMAP
03F800
0FFE00
1FFF00
3FFF80
7F1FC0
7F1FC0
FE0FE0
FE4FE0
FC47E0
FCE7E0
F8E3E0
F803E0
F001E0
73F9C0
73F9C0
3FFF80
1FFF00
0FFE00
03F800
ENDCHAR
STARTCHAR F2C0
ENCODING 62144
SWIDTH 977 0
DWIDTH 19 0
BBX 19 19 0 0
BITMAP
03F800
0FFE00
1FFF00
3FFF80
780FC0
7807C0
F9E7E0
F9E7E0
F807E0
F807E0
F803E0
F9F3E0
F9F3E0
7803C0
7807C0
3FFF80
1FFF00
0FFE00
03F800
ENDCHAR
STARTCHAR F2C1
ENCODING 62145
SWIDTH 977 0
DWIDTH 19 0
BBX 19 19 0 0
BITMAP
03F800
0FFE00
1FFF00
3FFF80
79F3C0
78E3C0
FC47E0
FE4FE0
FE0FE0
FF1FE0
FE0FE0
FE4FE0
FC47E0
78E3C0
79F3C0
3FFF80
1FFF00
0FFE00
03F800
ENDCHAR
STARTCHAR F2C2
ENCODING 62146
SWIDTH 977 0
DWIDTH 19 0
BBX 19 19 0 0
BITMAP
03F800
0FFE00
1FFF00
3FFF80
79F3C0
78E3C0
FC47E0
FE4FE0
FE0FE0
FF1FE0
FF1FE0
FF1FE0
FF1FE0
7F1FC0
7F1FC0
3FFF80
1FFF00
0FFE00
03F800
ENDCHAR
STARTCHAR F2C3
ENCODING 62147
SWIDTH 977 0
DWIDTH 19 0
BBX 19 19 0 0
BITMAP
03F800
03F800
03F800
03F800
03F800
01F000
F8E3E0
FC47E0
FE0FE0
FF1FE0
FE0FE0
FC47E0
F8E3E0
01F000
03F800
03F800
03F800
03F800
03F800
ENDCHAR
STARTCHAR F2C4
ENCODING 62148
SWIDTH 977 0
DWIDTH 19 0
BBX 17 19 1 0
BITMAP
7FFF00
FFFF80
FFFF80
FFFF80
FFFF80
FFFF80
FFFF80
FFFF80
FFFF80
FFFF80
FFFF80
7FFF00
3FFF00
3FFE00
1FFC00
0FF800
07F000
03E000
01C000
ENDCHAR
STARTCHAR F2C5
ENCODING 62149
SWIDTH 977 0
DWIDTH 19 0
BBX 19 17 0 1
BITMAP
00FFC0
01FFE0
07FFE0
0FFFE0
1FFFE0
3FFFE0
7FFFE0
FFFFE0
FFFFE0
FFFFE0
7FFFE0
3FFFE0
1FFFE0
0FFFE0
07FFE0
03FFE0
00FFC0
ENDCHAR
STARTCHAR F2C6
ENCODING 62150
SWIDTH 977 0
DWIDTH 19 0
BBX 17 19 1 0
BITMAP
01C000
03E000
07F000
0FF800
1FFC00
3FFE00
7FFE00
7FFF00
FFFF80
FFFF80
FFFF80
FFFF80
FFFF80
FFFF80
FFFF80
FFFF80
FFFF80
FFFF00
7FFF00
ENDCHAR
STARTCHAR F2C7
ENCODING 62151
SWIDTH 977 0
DWIDTH 19 0
BBX 19 17 0 1
BITMAP
7FE000
FFF000
FFFC00
FFFE00
FFFF00
FFFF80
FFFFC0
FFFFE0
FFFFE0
FFFFE0
FFFFC0
FFFF80
FFFF00
FFFE00
FFFC00
FFF800
7FE000
ENDCHAR
STARTCHAR F2C8
ENCODING 62152
SWIDTH 977 0
DWIDTH 19 0
BBX 19 17 0 1
BITMAP
00F800
03FE00
07FF00
0FFF80
03FFC0
03FFC0
3BFFE0
7BFFE0
FBFFE0
7BFFE0
1BFFE0
03FFC0
13FFC0
0FFF80
07FF00
03FE00
00F800
ENDCHAR
STARTCHAR F2C9
ENCODING 62153
SWIDTH 977 0
DWIDTH 19 0
BBX 19 17 0 1
BITMAP
03E000
0FF800
1FFC00
3FFE00
7FF800
7FF800
FFFB80
FFFBC0
FFFBE0
FFFBC0
FFFB00
7FF800
7FF900
3FFE00
1FFC00
0FF800
03E000
ENDCHAR
STARTCHAR F2CA
ENCODING 62154
SWIDTH 977 0
DWIDTH 19 0
BBX 17 19 1 0
BITMAP
008000
01C000
01E000
0BE000
13E400
300600
7FFF00
7FFF00
FFFF80
FFFF80
FFFF80
FFFF80
FFFF80
7FFF00
7FFF00
3FFE00
1FFC00
0FF800
03E000
ENDCHAR
STARTCHAR F2CB
ENCODING 62155
SWIDTH 977 0
DWIDTH 19 0
BBX 17 19 1 0
BITMAP
03E000
0FF800
1FFC00
3FFE00
7FFF00
7FFF00
FFFF80
FFFF80
FFFF80
FFFF80
FFFF80
7FFF00
7FFF00
300600
13E400
0BE000
01E000
01C000
008000
ENDCHAR
STARTCHAR F2CC
ENCODING 62156
SWIDTH 977 0
DWIDTH 19 0
BBX 19 15 0 2
BITMAP
1FFF00
7FFFC0
FFFFE0
F7E3E0
F7FBE0
F7FBE0
F7FBE0
F7FBE0
F7FBE0
F7FBE0
F7FBE0
F0E1E0
FFFFE0
7FFFC0
1FFF00
ENDCHAR
STARTCHAR F2CD
ENCODING 62157
SWIDTH 977 0
DWIDTH 19 0
BBX 19 15 0 2
BITMAP
1FFF00
7FFFC0
FFFFE0
F7E1E0
F7EDE0
F7EDE0
F7FDE0
F7F9E0
F7E3E0
F7EFE0
F7EFE0
F0E1E0
FFFFE0
7FFFC0
1FFF00
ENDCHAR
STARTCHAR F2CE
ENCODING 62158
SWIDTH 977 0
DWIDTH 19 0
BBX 19 15 0 2
BITMAP
1FFF00
7FFFC0
FFFFE0
F0E3E0
F6FBE0
F6FBE0
F6FBE0
F4FBE0
F0FBE0
F6FBE0
F6FBE0
F6E1E0
FFFFE0
7FFFC0
1FFF00
ENDCHAR
STARTCHAR F2CF
ENCODING 62159
SWIDTH 977 0
DWIDTH 19 0
BBX 19 15 0 2
BITMAP
1FFF00
7FFFC0
FFFFE0
F0E1E0
F6EDE0
F6EDE0
F6FDE0
F4F9E0
F0E3E0
F6EFE0
F6EFE0
F6E1E0
FFFFE0
7FFFC0
1FFF00
ENDCHAR
STARTCHAR F2D0
ENCODING 62160
SWIDTH 977 0
DWIDTH 19 0
BBX 19 19 0 0
BITMAP
03F800
03B800
031800
020800
03F800
03F800
FFFFE0
EFFEE0
CFBE60
8F1E20
CFBE60
EFFEE0
FFFFE0
03F800
03F800
020800
031800
03B800
03F800
ENDCHAR
STARTCHAR F2D1
ENCODING 62161
SWIDTH 977 0
DWIDTH 19 0
BBX 19 15 0 2
BITMAP
0C0600
0E0E00
1FFF00
3FFF80
77FCC0
43FC40
77F3C0
FFF3E0
FFF3E0
FFFFE0
FC07E0
F803E0
F803E0
7001C0
6000C0
ENDCHAR
STARTCHAR F2D2
ENCODING 62162
SWIDTH 977 0
DWIDTH 19 0
BBX 19 9 0 5
BITMAP
FFFFE0
F3FFE0
F3FFE0
C0FFE0
80FFE0
C0F220
F3F360
F3FFE0
FFFFE0
ENDCHAR
STARTCHAR F2D3
ENCODING 62163
SWIDTH 977 0
DWIDTH 19 0
BBX 19 9 0 5
BITMAP
3FFF80
73FFC0
F3FEE0
C0FC60
80FFE0
C0F3E0
F3F3E0
73FFC0
3E0F80
ENDCHAR
STARTCHAR F2D4
ENCODING 62164
SWIDTH 977 0
DWIDTH 19 0
BBX 19 19 0 0
BITMAP
00E000
01F000
03F800
03F800
03F800
01F000
01F000
00E000
00E000
00E000
00E000
00E000
78E000
03F800
FFFFE0
FFFFE0
FFFFE0
FFFFE0
FFFFE0
ENDCHAR
STARTCHAR F2D5
ENCODING 62165
SWIDTH 977 0
DWIDTH 19 0
BBX 19 19 0 0
BITMAP
004000
000000
00F000
01F800
01F800
01F000
01F000
01F000
01F000
01F000
01F000
01F000
79F000
03F800
FFFFE0
FFFFE0
FFFFE0
FFFFE0
FFFFE0
ENDCHAR
STARTCHAR F2D6
ENCODING 62166
SWIDTH 977 0
DWIDTH 19 0
BBX 19 16 0 1
BITMAP
00E000
03F800
031800
03D800
03D800
7FD800
FFD800
E7FF80
E3FFE0
FBF860
C3FE60
CFF860
C3FE60
FFF860
FFF8E0
7FFFC0
ENDCHAR
STARTCHAR F2D7
ENCODING 62167
SWIDTH 977 0
DWIDTH 19 0
BBX 19 19 0 0
BITMAP
0FFE00
3FBF80
7FBFC0
7F1FC0
EE0EE0
CF1E60
CF1E60
E64CE0
67FCC0
7FFFC0
3FFF80
0FFE00
00E000
00E000
00E000
00E000
01F000
07FC00
03F800
ENDCHAR
STARTCHAR F2D8
ENCODING 62168
SWIDTH 977 0
DWIDTH 19 0
BBX 18 18 1 0
BITMAP
7FFF80
FFFFC0
FFFFC0
E3F1C0
E3F0C0
E3F1C0
FFFFC0
FF3FC0
FE1FC0
FE1FC0
FF3FC0
FFFFC0
E3F9C0
E3F0C0
E3F0C0
F7F9C0
FFFFC0
7FFF80
ENDCHAR
STARTCHAR F2D9
ENCODING 62169
SWIDTH 977 0
DWIDTH 19 0
BBX 11 19 4 0
BITMAP
1F00
3F80
7FC0
7FC0
7FC0
7FC0
7FC0
3F80
1F00
1F00
1F00
1F00
3F80
7FC0
7FC0
FFE0
FFE0
FFE0
FFE0
ENDCHAR
STARTCHAR F2DA
ENCODING 62170
SWIDTH 977 0
DWIDTH 19 0
BBX 17 19 1 0
BITMAP
03E000
0FF800
1FFC00
3FFE00
7FFF00
60C000
E0C080
E6CC80
E6CC80
E2C480
E0C180
FFFF80
FFFF80
FFFF80
FFFF80
FFFF80
FFFF80
E77380
423100
ENDCHAR
STARTCHAR F2DB
ENCODING 62171
SWIDTH 977 0
DWIDTH 19 0
BBX 17 19 1 0
BITMAP
01F800
07FE00
1FFF00
3FFF80
3FFE00
7FFC00
7FF800
FFF000
FFE000
FFC000
FFE000
FFF000
7FF800
7FFC00
3FFE00
3FFF80
1FFF00
07FE00
01F800
ENDCHAR
STARTCHAR F2DC
ENCODING 62172
SWIDTH 977 0
DWIDTH 19 0
BBX 17 19 1 0
BITMAP
000300
000180
01C680
0FFF80
1C7F80
303F80
603F00
403F00
C03F80
C03F80
C07F80
E0FF80
FFFF80
7FFF00
7FFF00
3FFE00
1FFC00
0FF800
03E000
ENDCHAR
STARTCHAR F2DD
ENCODING 62173
SWIDTH 977 0
DWIDTH 19 0
BBX 19 17 0 1
BITMAP
000700
0019C0
003040
002F20
002FA0
006FA0
006F60
40F040
E1FF80
F1FF00
7FF800
3CE000
3EC000
3E8000
108000
198000
0E0000
ENDCHAR
STARTCHAR F2DE
ENCODING 62174
SWIDTH 977 0
DWIDTH 19 0
BBX 19 18 0 -1
BITMAP
004000
00E000
01F000
01B800
031800
1F1F00
FF0FE0
F001E0
600060
7001C0
3C0780
1C0700
0C0600
0C0600
0C6700
0DF700
0FBF00
0E0E00
ENDCHAR
STARTCHAR F2DF
ENCODING 62175
SWIDTH 977 0
DWIDTH 19 0
BBX 19 18 0 -1
BITMAP
004000
00E000
01F000
01F800
03D800
1FDF00
FFCFE0
FFC1E0
7FC060
7FC1C0
3FC780
1FC700
0FC600
0FC600
0FE700
0FF700
0FBF00
0E0E00
ENDCHAR
STARTCHAR F2E0
ENCODING 62176
SWIDTH 977 0
DWIDTH 19 0
BBX 19 18 0 -1
BITMAP
004000
00E000
01F000
01F800
03F800
1FFF00
FFFFE0
FFFFE0
7FFFE0
7FFFC0
3FFF80
1FFF00
0FFE00
0FFE00
0FFF00
0FFF00
0FBF00
0E0E00
ENDCHAR
STARTCHAR F2E1
ENCODING 62177
SWIDTH 977 0
DWIDTH 19 0
BBX 19 19 0 0
BITMAP
1F1F00
3FBF80
73F9C0
E0E0E0
C04060
C00060
C00060
E000E0
6000C0
7001C0
300180
380380
180300
0C0600
0E0E00
071C00
03B800
01F000
00E000
ENDCHAR
STARTCHAR F2E2
ENCODING 62178
SWIDTH 977 0
DWIDTH 19 0
BBX 19 19 0 0
BITMAP
1F1F00
3FBF80
7FF9C0
FFE0E0
FFC060
FFC060
FFC060
FFC0E0
7FC0C0
7FC1C0
3FC180
3FC380
1FC300
0FC600
0FCE00
07DC00
03F800
01F000
00E000
ENDCHAR
STARTCHAR F2E3
ENCODING 62179
SWIDTH 977 0
DWIDTH 19 0
BBX 19 19 0 0
BITMAP
1F1F00
3FBF80
7FFFC0
FFFFE0
FFFFE0
FFFFE0
FFFFE0
FFFFE0
7FFFC0
7FFFC0
3FFF80
3FFF80
1FFF00
0FFE00
0FFE00
07FC00
03F800
01F000
00E000
ENDCHAR
STARTCHAR F2E4
ENCODING 62180
SWIDTH 977 0
DWIDTH 19 0
BBX 17 19 1 0
BITMAP
F41780
F41780
F41780
F41780
F41780
F41780
F41780
F3E780
677300
0F7800
1E3C00
180C00
100400
180C00
1C1C00
1C1C00
0DD800
07F000
03E000
ENDCHAR
STARTCHAR F2E5
ENCODING 62181
SWIDTH 977 0
DWIDTH 19 0
BBX 19 19 0 1
BITMAP
F801E0
7803E0
7C07C0
3C07C0
3E0F80
1F0F80
1E0F00
08F200
03FC00
07FC00
0FFE00
0FFE00
0FFF00
0FFF00
0FFE00
0FFE00
07FE00
03FC00
01F000
ENDCHAR
STARTCHAR F2E6
ENCODING 62182
SWIDTH 977 0
DWIDTH 19 0
BBX 19 19 0 1
BITMAP
F801E0
7803E0
7C07C0
3C07C0
3E0F80
1F0F80
1E0F00
08F200
03FC00
077C00
0F3E00
0FDE00
0FDF00
0FDF00
0FDE00
0F8E00
078E00
03FC00
01F000
ENDCHAR
STARTCHAR F2E7
ENCODING 62183
SWIDTH 977 0
DWIDTH 19 0
BBX 19 19 0 1
BITMAP
F801E0
7803E0
7C07C0
3C07C0
3E0F80
1F0F80
1E0F00
08F200
03FC00
07FC00
0F0E00
0E6E00
0FEF00
0F1F00
0E7E00
0E0E00
070E00
03FC00
01F000
ENDCHAR
STARTCHAR F2E8
ENCODING 62184
SWIDTH 977 0
DWIDTH 19 0
BBX 19 19 0 1
BITMAP
F801E0
7803E0
7C07C0
3C07C0
3E0F80
1F0F80
1E0F00
08F200
03FC00
073C00
0E0E00
0FEE00
0F1F00
0FEF00
0FEE00
0F0E00
073E00
03FC00
01F000
ENDCHAR
STARTCHAR F2E9
ENCODING 62185
SWIDTH 977 0
DWIDTH 19 0
BBX 19 19 0 0
BITMAP
037800
0F7E00
1F7F00
2F7E80
76FDC0
78FBC0
F9F7E0
F2EFE0
0F5FE0
FFBFE0
FF5E00
FEE9E0
FDF3E0
7BE3C0
77EDC0
2FDE80
1FDF00
0FDE00
03D800
ENDCHAR
STARTCHAR F2EA
ENCODING 62186
SWIDTH 977 0
DWIDTH 19 0
BBX 19 19 0 0
BITMAP
037800
0F7E00
1F7F00
3F7F80
7EFFC0
7CFFC0
F9FFE0
F3FFE0
0FFFE0
FFFFE0
FFFE00
FFF9E0
FFF3E0
7FE7C0
7FEFC0
3FDF80
1FDF00
0FDE00
03D800
ENDCHAR
STARTCHAR F2EB
ENCODING 62187
SWIDTH 977 0
DWIDTH 19 0
BBX 19 19 0 0
BITMAP
03F800
0FFE00
19F300
304180
6000C0
7001C0
F001E0
F0E1E0
E1F0E0
C1F060
81F020
80E020
C00060
400040
7C07C0
3C0780
1E0F00
0E0E00
03F800
ENDCHAR
STARTCHAR F2EC
ENCODING 62188
SWIDTH 977 0
DWIDTH 19 0
BBX 19 19 0 0
BITMAP
007F00
03C3C0
07F0C0
0FFC60
1FE660
3FF320
7F3120
7F8DA0
7DCFA0
FCA7E0
BE77C0
B63FC0
919FC0
99FF80
CCFF00
C7FE00
61FC00
787800
1FC000
ENDCHAR
STARTCHAR F2ED
ENCODING 62189
SWIDTH 977 0
DWIDTH 19 0
BBX 19 19 0 0
BITMAP
F00000
F80000
FC0000
FE0000
7F0000
3F8000
1FC000
0FE000
07F000
03F800
01FDC0
00FFC0
007F80
003F00
001F00
003F80
0039C0
0030E0
000040
ENDCHAR
STARTCHAR F2EE
ENCODING 62190
SWIDTH 977 0
DWIDTH 19 0
BBX 19 19 0 0
BITMAP
E003E0
C01E40
A07880
11E100
0BC200
070400
0E0800
1D1000
18A000
384000
30A000
611000
620800
440400
C80380
9003C0
A003E0
C00180
800080
ENDCHAR
STARTCHAR F2EF
ENCODING 62191
SWIDTH 977 0
DWIDTH 19 0
BBX 19 19 0 0
BITMAP
078000
23E000
73E000
3BF000
1FF000
8FF000
FF1000
FF8000
FDC000
7CE000
7C7000
1E3800
001C00
000E00
000700
000380
0001C0
0000E0
000040
ENDCHAR
STARTCHAR F2F0
ENCODING 62192
SWIDTH 977 0
DWIDTH 19 0
BBX 19 19 0 0
BITMAP
1F8000
30E000
603000
C01800
C00C00
800400
800400
C00C00
401C00
403C00
207C00
10FC00
09FE00
07EF00
000F80
0007E0
0003E0
0001C0
000080
ENDCHAR
STARTCHAR F2F1
ENCODING 62193
SWIDTH 977 0
DWIDTH 19 0
BBX 19 19 0 0
BITMAP
02C000
02E000
02F800
02FC00
02F800
02F000
02C000
020000
020000
020000
020000
0AFE00
3AFF80
7AFFE0
FAE7E0
F8E7E0
7DEFC0
3FFF80
07FC00
ENDCHAR
STARTCHAR F2F2
ENCODING 62194
SWIDTH 977 0
DWIDTH 19 0
BBX 19 19 0 1
BITMAP
1F0000
30C000
602000
401000
C01800
800800
C00800
400800
400800
200800
301800
0C3800
07FC00
000600
000300
000380
0001C0
0000E0
000060
ENDCHAR
STARTCHAR F2F3
ENCODING 62195
SWIDTH 977 0
DWIDTH 19 0
BBX 19 19 0 0
BITMAP
03F800
0FFE00
1EFF00
3CFF80
7CFFC0
7FFFC0
FFFFE0
EFBFE0
C71FE0
FFFFE0
FFFFE0
FFFFE0
FFFFE0
7FFFC0
7FFFC0
3FFF80
1FFF00
0FFE00
03F800
ENDCHAR
STARTCHAR F2F4
ENCODING 62196
SWIDTH 977 0
DWIDTH 19 0
BBX 19 19 0 0
BITMAP
1E0F00
7F1FC0
7FBFC0
FFBFE0
FFBFE0
FFFFE0
FFFFE0
FFFFE0
7FFFC0
7FFFC0
7FFFC0
3FFF80
1FFF00
0FFE00
07FC00
03F800
01F000
00E000
004000
ENDCHAR
STARTCHAR F2F5
ENCODING 62197
SWIDTH 977 0
DWIDTH 19 0
BBX 19 19 0 0
BITMAP
004000
00E000
01F000
03F800
0FFE00
1FFF00
3FFF80
7FFFC0
7FFFC0
FFFFE0
FFFFE0
FFFFE0
FFFFE0
FFFFE0
7FFFC0
3FFF80
0CE600
00E000
00E000
ENDCHAR
STARTCHAR F2F6
ENCODING 62198
SWIDTH 977 0
DWIDTH 19 0
BBX 19 19 0 0
BITMAP
01F000
03F800
07FC00
07FC00
07FC00
07FC00
07FC00
1FFF00
7FFFC0
7FFFC0
FFFFE0
FFFFE0
FFFFE0
FFFFE0
7FFFC0
3FFF80
0CE600
00E000
00E000
ENDCHAR
STARTCHAR F2F7
ENCODING 62199
SWIDTH 977 0
DWIDTH 19 0
BBX 17 19 1 0
BITMAP
008000
008000
01C000
01C000
03E000
07F000
0FF800
1FFC00
3FFE00
FFFF80
3FFE00
1FFC00
0FF800
07F000
03E000
01C000
01C000
008000
008000
ENDCHAR
STARTCHAR F2F8
ENCODING 62200
SWIDTH 977 0
DWIDTH 19 0
BBX 15 19 2 0
BITMAP
07C0
0FE0
1FF0
1FF0
1FF0
1FF0
1FF0
0FE0
1FF0
07C0
07C0
07C0
07C0
0FE0
0FE0
7FFC
FFFE
FFFE
7FFC
ENDCHAR
STARTCHAR F2F9
ENCODING 62201
SWIDTH 977 0
DWIDTH 19 0
BBX 15 19 2 0
BITMAP
0380
07C0
06C0
0C60
1C70
1830
1830
1830
1C70
0FE0
1FF0
0FE0
07C0
0FE0
1FF0
7FFC
FFFE
FFFE
7FFC
ENDCHAR
STARTCHAR F2FA
ENCODING 62202
SWIDTH 977 0
DWIDTH 19 0
BBX 15 19 2 0
BITMAP
37D8
37D8
3FF8
3FF8
3FF8
0FE0
07C0
07C0
07C0
0FE0
07C0
07C0
07C0
0FE0
0FE0
7FFC
FFFE
FFFE
7FFC
ENDCHAR
STARTCHAR F2FB
ENCODING 62203
SWIDTH 977 0
DWIDTH 19 0
BBX 15 19 2 0
BITMAP
0780
0FE0
0FF0
1FF8
1BF8
3FFC
3FFC
7FFC
7FFC
FFFE
F7FE
67FE
07F0
0FE0
0FF0
7FFC
FFFE
FFFE
7FFC
ENDCHAR
STARTCHAR F2FC
ENCODING 62204
SWIDTH 977 0
DWIDTH 19 0
BBX 15 19 2 0
BITMAP
0100
0380
0FE0
3FF8
7FFC
7FFC
FFFE
FFFE
7FFC
7FFC
3FF8
1FF0
07C0
0FE0
1FF0
7FFC
FFFE
FFFE
7FFC
ENDCHAR
STARTCHAR F2FD
ENCODING 62205
SWIDTH 977 0
DWIDTH 19 0
BBX 17 19 1 0
BITMAP
008000
008000
088800
09C800
8DD880
4DD900
7FFF00
7FFF00
3FFE00
3FFE00
3FFE00
3FFE00
1FFC00
07F000
07F000
3FFE00
7FFF00
7FFF00
3FFE00
ENDCHAR
STARTCHAR F2FE
ENCODING 62206
SWIDTH 977 0
DWIDTH 19 0
BBX 19 19 0 0
BITMAP
01F000
01F000
01F000
01F000
01F000
01F000
01F000
71F1C0
F9F3E0
FDF7E0
7FFFC0
3FFF80
1FFF00
0FFE00
07FC00
03F800
01F000
00E000
004000
ENDCHAR
STARTCHAR F2FF
ENCODING 62207
SWIDTH 977 0
DWIDTH 19 0
BBX 19 19 0 0
BITMAP
000180
0003C0
0007E0
000FE0
F81FC0
F83F80
F87F00
F8FE00
F9FC00
FBF800
FFF000
FFE000
FFC000
FF8000
FFFE00
FFFE00
FFFE00
FFFE00
FFFE00
ENDCHAR
STARTCHAR F300
ENCODING 62208
SWIDTH 977 0
DWIDTH 19 0
BBX 19 19 0 0
BITMAP
300000
780000
FC0000
FE0000
7F03E0
3F83E0
1FC3E0
0FE3E0
07F3E0
03FBE0
01FFE0
00FFE0
007FE0
003FE0
0FFFE0
0FFFE0
0FFFE0
0FFFE0
0FFFE0
ENDCHAR
STARTCHAR F301
ENCODING 62209
SWIDTH 977 0
DWIDTH 19 0
BBX 19 19 0 0
BITMAP
004000
00E000
01F000
03F800
07FC00
0FFE00
1FFF00
3FFF80
7FFFC0
FDF7E0
F9F3E0
71F1C0
01F000
01F000
01F000
01F000
01F000
01F000
01F000
ENDCHAR
STARTCHAR F302
ENCODING 62210
SWIDTH 977 0
DWIDTH 19 0
BBX 19 19 0 0
BITMAP
FFFE00
FFFE00
FFFE00
FFFE00
FFFE00
FF8000
FFC000
FFE000
FFF000
FBF800
F9FC00
F8FE00
F87F00
F83F80
F81FC0
000FE0
0007E0
0003C0
000180
ENDCHAR
STARTCHAR F303
ENCODING 62211
SWIDTH 977 0
DWIDTH 19 0
BBX 19 19 0 0
BITMAP
0FFFE0
0FFFE0
0FFFE0
0FFFE0
0FFFE0
003FE0
007FE0
00FFE0
01FFE0
03FBE0
07F3E0
0FE3E0
1FC3E0
3F83E0
7F03E0
FE0000
FC0000
780000
300000
ENDCHAR
STARTCHAR F304
ENCODING 62212
SWIDTH 977 0
DWIDTH 19 0
BBX 19 19 0 1
BITMAP
00C000
01E000
01F000
01F800
00FC00
007E00
003F00
FFFF80
FFFFC0
FFFFE0
FFFFC0
FFFF80
003F00
007E00
00FC00
01F800
01F000
01E000
00C000
ENDCHAR
STARTCHAR F305
ENCODING 62213
SWIDTH 977 0
DWIDTH 19 0
BBX 19 19 0 1
BITMAP
006000
00F000
01F000
03F000
07E000
0FC000
1F8000
3FFFE0
7FFFE0
FFFFE0
7FFFE0
3FFFE0
1F8000
0FC000
07E000
03F000
01F000
00F000
006000
ENDCHAR
STARTCHAR F306
ENCODING 62214
SWIDTH 977 0
DWIDTH 19 0
BBX 19 19 0 0
BITMAP
00E000
00E000
10E100
3BFB80
1FFF00
0E0E00
1C0700
180300
F803E0
F803E0
F803E0
180300
1C0700
0E0E00
1FFF00
3BFB80
10E100
00E000
00E000
ENDCHAR
STARTCHAR F307
ENCODING 62215
SWIDTH 977 0
DWIDTH 19 0
BBX 19 17 0 1
BITMAP
398000
1F8000
1F8000
1F8000
F9F000
F9F000
1F8000
1FB380
19B300
19BF00
003F00
01F3E0
01F3E0
003F00
003F00
003F00
003380
ENDCHAR
STARTCHAR F308
ENCODING 62216
SWIDTH 977 0
DWIDTH 19 0
BBX 19 19 0 1
BITMAP
240000
3C0000
F70000
620000
420000
E70000
3C2A00
243E00
00FF80
00FF80
03C1E0
01C1C0
03C1E0
01C1C0
03C1E0
00FF80
00FF80
003E00
002A00
ENDCHAR
STARTCHAR F309
ENCODING 62217
SWIDTH 977 0
DWIDTH 19 0
BBX 19 19 0 0
BITMAP
000F00
FFF9E0
FFF9E0
7FF9C0
000F00
000000
000000
01F000
7F1FC0
FF1FE0
7F1FC0
01F000
000000
000000
1E0000
73FFC0
F3FFE0
F3FFE0
1E0000
ENDCHAR
STARTCHAR F30A
ENCODING 62218
SWIDTH 977 0
DWIDTH 19 0
BBX 19 19 0 0
BITMAP
C00000
F80000
FE0000
FFC000
7FF800
1FFF00
07FFC0
00FFE0
001FE0
0007E0
001FE0
00FFE0
07FFC0
1FFF00
7FF800
FFC000
FF0000
F80000
C00000
ENDCHAR
STARTCHAR F30B
ENCODING 62219
SWIDTH 977 0
DWIDTH 19 0
BBX 19 19 0 0
BITMAP
000060
0003E0
000FE0
007FE0
03FFC0
1FFF00
7FFC00
FFE000
FF0000
FC0000
FF0000
FFE000
7FFC00
1FFF00
03FFC0
007FE0
001FE0
0003E0
000060
ENDCHAR
STARTCHAR F30C
ENCODING 62220
SWIDTH 977 0
DWIDTH 19 0
BBX 19 15 0 2
BITMAP
7FFFC0
FFFFE0
FFFFE0
FFFFE0
FFFFE0
000000
000000
000000
000000
000000
FFFFE0
FFFFE0
FFFFE0
FFFFE0
7FFFC0
ENDCHAR
STARTCHAR F30D
ENCODING 62221
SWIDTH 977 0
DWIDTH 19 0
BBX 19 19 0 0
BITMAP
03FFC0
07FFE0
0700E0
060060
060060
060060
000060
7FF860
FFFC60
F01DE0
C00DE0
C00DC0
C00C00
C00C00
C00C00
C00C00
E01C00
FFFC00
7FF800
ENDCHAR
STARTCHAR F30E
ENCODING 62222
SWIDTH 977 0
DWIDTH 19 0
BBX 19 19 0 0
BITMAP
03FFC0
07FFE0
0700E0
060060
060060
060060
060060
060060
060060
0701E0
07FFE0
03FFC0
000000
000000
000000
000000
000000
CFF800
CFF800
ENDCHAR
STARTCHAR F30F
ENCODING 62223
SWIDTH 977 0
DWIDTH 19 0
BBX 19 19 0 0
BITMAP
0003E0
0001E0
0001E0
0003E0
000720
000600
000000
7FF800
FFFC00
F01C00
C00C00
C00C00
C00C00
C00C00
C00C00
C00C00
E01C00
FFFC00
7FF800
ENDCHAR
STARTCHAR F310
ENCODING 62224
SWIDTH 977 0
DWIDTH 19 0
BBX 19 19 0 0
BITMAP
7FFF80
FFFF20
E00060
C000E0
C001E0
C003C0
C007A0
C60F60
C71E60
C7BC60
C3F860
C1F060
C0E060
C00060
C00060
C00060
E000E0
FFFFE0
7FFFC0
ENDCHAR
STARTCHAR F311
ENCODING 62225
SWIDTH 977 0
DWIDTH 19 0
BBX 19 19 0 0
BITMAP
7FFFC0
FFFFE0
E000E0
C00060
C00060
C60C60
C71C60
C3B860
C1F060
C0E060
C1F060
C3B860
C71C60
C60C60
C00060
C00060
E000E0
FFFFE0
7FFFC0
ENDCHAR
STARTCHAR F312
ENCODING 62226
SWIDTH 977 0
DWIDTH 19 0
BBX 19 19 0 0
BITMAP
7FFFC0
FFFFE0
E000E0
C00060
C00060
C00060
C0E060
C1F060
C3F860
C3F860
C3F860
C1F060
C0E060
C00060
C00060
C00060
E000E0
FFFFE0
7FFFC0
ENDCHAR
STARTCHAR F313
ENCODING 62227
SWIDTH 977 0
DWIDTH 19 0
BBX 19 19 0 1
BITMAP
03F800
0FFE00
1F1F00
3C0780
7C01C0
7E01C0
E700E0
E380E0
C1C060
C0E060
C07060
E038E0
E01CE0
700FC0
7007C0
3C0780
1F1F00
0FFE00
03F800
ENDCHAR
STARTCHAR F314
ENCODING 62228
SWIDTH 977 0
DWIDTH 19 0
BBX 19 19 0 0
BITMAP
01F000
0FFE00
1F1F00
3C0780
7C07C0
7E0FC0
E71CE0
E3B8E0
C1F060
C0E060
C1F060
E3B8E0
E71CE0
7E0FC0
7C07C0
3C0780
1F1F00
0FFE00
03F800
ENDCHAR
STARTCHAR F315
ENCODING 62229
SWIDTH 977 0
DWIDTH 19 0
BBX 19 19 0 0
BITMAP
03F800
0FFE00
1F9F00
3F0F80
7F0FC0
7F9FC0
FFFFE0
FE1FE0
FE3FE0
FE3FE0
FC3FE0
FC7FE0
FC7FE0
7C6FC0
7C0FC0
3C3F80
1E7F00
0FFE00
03F800
ENDCHAR
STARTCHAR F316
ENCODING 62230
SWIDTH 977 0
DWIDTH 19 0
BBX 19 17 0 1
BITMAP
004000
00E000
00E000
01F000
03F800
031800
071C00
071C00
0F1E00
1F1F00
1FBF00
3FFF80
3FBF80
7F1FC0
FFFFE0
FFFFE0
FFFFE0
ENDCHAR
STARTCHAR F317
ENCODING 62231
SWIDTH 977 0
DWIDTH 19 0
BBX 17 19 1 0
BITMAP
01C000
01E000
03E000
03E000
79E780
FDEF80
7FDF80
7FFF00
1FFE00
03F000
1FFE00
7FFF00
7FDF80
FDEF80
79E780
03E000
03E000
01E000
01C000
ENDCHAR
STARTCHAR F318
ENCODING 62232
SWIDTH 977 0
DWIDTH 19 0
BBX 19 11 0 4
BITMAP
060C00
0E0E00
1C0700
380380
7FFFC0
FFFFE0
7FFFC0
380380
1C0700
0E0E00
060C00
ENDCHAR
STARTCHAR F319
ENCODING 62233
SWIDTH 977 0
DWIDTH 19 0
BBX 11 19 4 0
BITMAP
0400
0E00
1F00
3F80
7FC0
EEE0
CE60
0E00
0E00
0E00
0E00
0E00
CE60
EEE0
7FC0
3F80
1F00
0E00
0400
ENDCHAR
STARTCHAR F31A
ENCODING 62234
SWIDTH 977 0
DWIDTH 19 0
BBX 19 19 0 0
BITMAP
0060C0
00E1E0
01E3E0
03C7C0
078F80
0F1F00
1E3E00
3C7C00
78F800
F0F000
78F800
3C7C00
1E3E00
0F1F00
078F80
03C7C0
01E3E0
00E1E0
0060C0
ENDCHAR
STARTCHAR F31B
ENCODING 62235
SWIDTH 977 0
DWIDTH 19 0
BBX 19 19 0 0
BITMAP
60C000
F0E000
F8F000
7C7800
3E3C00
1F1E00
0F8F00
07C780
03E3C0
01E1E0
03E3C0
07C780
0F8F00
1F1E00
3E3C00
7C7800
F8F000
F0E000
60C000
ENDCHAR
STARTCHAR F31C
ENCODING 62236
SWIDTH 977 0
DWIDTH 19 0
BBX 19 19 0 0
BITMAP
004000
00E000
01F000
03F800
07BC00
0F1E00
1E0F00
3C0780
78E3C0
F1F1E0
E3F8E0
07FC00
0FBE00
1F1F00
3E0F80
7C07C0
F803E0
F001E0
6000C0
ENDCHAR
STARTCHAR F31D
ENCODING 62237
SWIDTH 977 0
DWIDTH 19 0
BBX 19 19 0 0
BITMAP
6000C0
F001E0
F803E0
7C07C0
3E0F80
1F1F00
0FBE00
07FC00
E3F8E0
F1F1E0
78E3C0
3C0780
1E0F00
0F1E00
07BC00
03F800
01F000
00E000
004000
ENDCHAR
STARTCHAR F31E
ENCODING 62238
SWIDTH 977 0
DWIDTH 19 0
BBX 19 19 0 0
BITMAP
008000
03C000
07C000
0FC000
1FC000
7FFF80
FFFFC0
FFFFE0
7FFFE0
3FC7E0
0FC3E0
07C3E0
03C3E0
01C3E0
0003E0
0003E0
0003E0
0003E0
0003E0
ENDCHAR
STARTCHAR F31F
ENCODING 62239
SWIDTH 977 0
DWIDTH 19 0
BBX 19 19 0 0
BITMAP
002000
007800
007C00
007E00
007F00
3FFFC0
7FFFE0
FFFFE0
FFFFC0
FC7F80
F87E00
F87C00
F87800
F87000
F80000
F80000
F80000
F80000
F80000
ENDCHAR
STARTCHAR F320
ENCODING 62240
SWIDTH 977 0
DWIDTH 19 0
BBX 19 19 0 0
BITMAP
07E000
0FF800
3E3C00
380E00
700700
E18300
E1C300
C7F380
C7F380
C3C380
E1C300
618700
700600
381E00
1FFF00
0FF380
01C1C0
0000E0
000060
ENDCHAR
STARTCHAR F321
ENCODING 62241
SWIDTH 977 0
DWIDTH 19 0
BBX 19 19 0 0
BITMAP
07E000
0FF800
3E3C00
380E00
700700
E00300
E00300
C7F380
C7F380
C3E380
E00300
600700
700600
381E00
1FFF00
0FF380
01C1C0
0000E0
000060
ENDCHAR
STARTCHAR F322
ENCODING 62242
SWIDTH 977 0
DWIDTH 19 0
BBX 19 19 0 1
BITMAP
004000
00E000
01F000
03F800
03F800
00E000
18E300
38E380
7FFFC0
FFFFE0
7FFFC0
38E380
18E300
00E000
03F800
03F800
01F000
00E000
004000
ENDCHAR
STARTCHAR F323
ENCODING 62243
SWIDTH 977 0
DWIDTH 19 0
BBX 19 19 0 0
BITMAP
01FFC0
03FFE0
0380E0
030060
030060
080060
0C0060
FE0060
FF0060
FF0060
FF0060
FE0060
0C0060
080060
030060
030060
0380E0
03FFE0
01FFC0
ENDCHAR
STARTCHAR F324
ENCODING 62244
SWIDTH 977 0
DWIDTH 19 0
BBX 19 19 0 0
BITMAP
7FF000
FFF800
E03800
C01800
C01800
C00300
C00380
C01FC0
C01FE0
C01FE0
C01FE0
C01FC0
C00380
C00300
C01800
C01800
E03800
FFF800
7FF000
ENDCHAR
STARTCHAR F325
ENCODING 62245
SWIDTH 977 0
DWIDTH 19 0
BBX 19 19 0 0
BITMAP
FF8000
FF8000
FF0000
FE0000
FF0000
FF8000
FFC000
EFC000
C78000
031800
003C60
007EE0
007FE0
003FE0
001FE0
000FE0
001FE0
003FE0
003FE0
ENDCHAR
STARTCHAR F326
ENCODING 62246
SWIDTH 977 0
DWIDTH 19 0
BBX 19 19 0 1
BITMAP
308000
79C000
FFC000
FFC000
7FC000
3FC000
3FC000
7FC000
FF8000
001FC0
003FE0
007FC0
007F80
007F80
007FC0
007FE0
007FE0
0073C0
002180
ENDCHAR
STARTCHAR F327
ENCODING 62247
SWIDTH 977 0
DWIDTH 19 0
BBX 19 19 0 0
BITMAP
7E0FC0
FF1FE0
E318E0
C31860
C31860
C31860
C80260
CE0E60
CF1E60
CF1E60
CF1E60
CE0E60
C80260
C31860
C31860
C31860
E318E0
FF1FE0
7E0FC0
ENDCHAR
STARTCHAR F328
ENCODING 62248
SWIDTH 977 0
DWIDTH 19 0
BBX 19 15 0 2
BITMAP
3E0F80
FF1FE0
FF1FE0
FF1FE0
FF1FE0
FF1FE0
FF1FE0
FF1FE0
FE1FC0
F01C00
F01C00
F01C00
F81F00
7C0F80
380700
ENDCHAR
STARTCHAR F329
ENCODING 62249
SWIDTH 977 0
DWIDTH 19 0
BBX 19 15 0 2
BITMAP
1C0380
3E07C0
1F03E0
0701E0
0701E0
0701E0
7F0FE0
FF1FE0
FF1FE0
FF1FE0
FF1FE0
FF1FE0
FF1FE0
FF1FE0
3E0F80
ENDCHAR
STARTCHAR F32A
ENCODING 62250
SWIDTH 977 0
DWIDTH 19 0
BBX 19 19 0 1
BITMAP
83F800
CFFE00
FF1F00
FC0780
F801C0
FC01C0
FE00E0
0000E0
000060
000060
000060
0000E0
0000E0
0001C0
1001C0
3C0780
1F1F00
0FFE00
03F800
ENDCHAR
STARTCHAR F32B
ENCODING 62251
SWIDTH 977 0
DWIDTH 19 0
BBX 19 19 0 1
BITMAP
01F020
0FFE60
1F1FE0
3C07E0
7003E0
7007E0
E00FE0
E00000
C00000
C00000
C00000
E00000
E00000
700000
700100
3C0780
1F1F00
0FFE00
03F800
ENDCHAR
STARTCHAR F32C
ENCODING 62252
SWIDTH 977 0
DWIDTH 19 0
BBX 19 15 0 2
BITMAP
3FFF80
FFFFE0
FFFFE0
C00060
CF8060
CFC060
CFC060
CFC060
CFC060
CFC060
CF8060
C00060
FFFFE0
FFFFE0
3FFF80
ENDCHAR
STARTCHAR F32D
ENCODING 62253
SWIDTH 977 0
DWIDTH 19 0
BBX 19 15 0 2
BITMAP
3FFF80
FFFFE0
FFFFE0
C00060
C03E60
C07E60
C07E60
C07E60
C07E60
C07E60
C03E60
C00060
FFFFE0
FFFFE0
3FFF80
ENDCHAR
STARTCHAR F32E
ENCODING 62254
SWIDTH 977 0
DWIDTH 19 0
BBX 19 19 0 1
BITMAP
0FF400
0FF600
0FF700
0FF780
0FF7C0
0FF7E0
0FF000
0FFFE0
0CFFE0
3C7FE0
FC3FE0
801FE0
800FE0
800FE0
801FE0
FC3FE0
7C7FE0
0CFFE0
0FFFE0
ENDCHAR
STARTCHAR F32F
ENCODING 62255
SWIDTH 977 0
DWIDTH 19 0
BBX 19 19 0 0
BITMAP
0FF400
0FF600
0FF700
0FF780
0FF7C0
0FF7E0
0FF000
0FFFE0
09FFE0
11FFE0
21FFE0
400FE0
800FE0
800FE0
C00FE0
61FFE0
31FFE0
19FFE0
0FFFE0
ENDCHAR
STARTCHAR F330
ENCODING 62256
SWIDTH 977 0
DWIDTH 19 0
BBX 19 19 0 1
BITMAP
0FF400
0FF600
0FF700
0FF780
0FF7C0
0FF7E0
1FF000
31FFE0
4CFFE0
DF7FE0
BF7FE0
BF7FE0
9F7FE0
DE7FE0
603FE0
3F1FE0
0F8FE0
0FDFE0
0FFFE0
ENDCHAR
STARTCHAR F331
ENCODING 62257
SWIDTH 977 0
DWIDTH 19 0
BBX 17 19 1 0
BITMAP
FFD000
F7D800
F7DC00
F7DE00
801F00
F7DF80
F7C000
F7F780
F7F780
F7F780
F7F780
F7F780
F7F780
F7F780
800080
F7F780
F7F780
F7F780
FFFF80
ENDCHAR
STARTCHAR F332
ENCODING 62258
SWIDTH 977 0
DWIDTH 19 0
BBX 19 19 0 0
BITMAP
03FFC0
07FFE0
0700E0
060060
C70060
C7F060
C7E060
C7C460
C78C60
C71C60
C63C60
C67EE0
C7FFE0
C7FFC0
C00000
C00000
E00000
FFFE00
7FFE00
ENDCHAR
STARTCHAR F333
ENCODING 62259
SWIDTH 977 0
DWIDTH 19 0
BBX 19 19 0 0
BITMAP
1E0000
7F0000
738000
E00000
C00000
C1F000
E3F800
731C00
380E00
1C0700
0E0380
0719C0
03F8E0
01F060
000060
0000E0
0039C0
001FC0
000F00
ENDCHAR
STARTCHAR F334
ENCODING 62260
SWIDTH 977 0
DWIDTH 19 0
BBX 19 19 0 1
BITMAP
004000
00E000
01F000
03F800
03F800
00E000
00E000
00E000
00E000
03FC00
3FBF80
7F1FC0
E000E0
C00060
C00060
C00060
C00060
C00060
C00060
ENDCHAR
STARTCHAR F335
ENCODING 62261
SWIDTH 977 0
DWIDTH 19 0
BBX 19 19 0 0
BITMAP
180300
3C0380
7E07C0
FE0FE0
FE0FE0
380380
380380
380380
380380
1C0700
1FBF00
0FBE00
00E000
00E000
00E000
00E000
00E000
00E000
004000
ENDCHAR
STARTCHAR F336
ENCODING 62262
SWIDTH 977 0
DWIDTH 19 0
BBX 19 19 0 0
BITMAP
031800
0F1E00
1F1F00
3F1F80
7F1FC0
7E0FC0
FC07E0
F803E0
0003E0
0003E0
0003E0
F803E0
FC03E0
7E01C0
7FF8C0
3FFC00
1FFE00
0FFE00
03F800
ENDCHAR
STARTCHAR F337
ENCODING 62263
SWIDTH 977 0
DWIDTH 19 0
BBX 19 19 0 0
BITMAP
004000
00E000
01E000
03E000
0FE000
0DF000
01F000
01F000
01F000
03F800
03F800
03F800
03F800
07FC00
07FC00
07FC00
07FC00
FFFFE0
FFFFE0
ENDCHAR
STARTCHAR F338
ENCODING 62264
SWIDTH 977 0
DWIDTH 19 0
BBX 11 19 4 0
BITMAP
1F00
3F80
7FC0
FFE0
FFE0
FFE0
FFE0
FFE0
FFE0
7FC0
3F80
3F80
1F00
1F00
0000
1F00
1F00
0000
0E00
ENDCHAR
STARTCHAR F339
ENCODING 62265
SWIDTH 977 0
DWIDTH 19 0
BBX 19 19 0 0
BITMAP
004000
04E400
0EE200
06E000
27E080
7BE0C0
3FE080
0C0000
780040
F80060
7800C0
080000
380180
7803C0
260480
06EC00
0EEE00
04E400
004000
ENDCHAR
STARTCHAR F33A
ENCODING 62266
SWIDTH 977 0
DWIDTH 19 0
BBX 19 19 0 0
BITMAP
3C0780
7E0FC0
E71CE0
C31860
C31860
E318E0
7FFFC0
3FFF80
031800
031800
031800
3FFF80
7FFFC0
E318E0
C31860
C31860
E71CE0
7E0FC0
3C0780
ENDCHAR
STARTCHAR F33B
ENCODING 62267
SWIDTH 977 0
DWIDTH 19 0
BBX 15 19 2 0
BITMAP
7FFC
FFFE
7000
3800
3800
1C00
0E00
0700
0700
0380
0700
0700
0E00
1C00
3800
3800
7000
FFFE
7FFC
ENDCHAR
STARTCHAR F33C
ENCODING 62268
SWIDTH 977 0
DWIDTH 19 0
BBX 19 19 0 -1
BITMAP
003FE0
007FE0
007000
006000
00E000
00E000
00C000
C1C000
E18000
618000
638000
730000
330000
370000
3E0000
1E0000
1E0000
0C0000
0C0000
ENDCHAR
STARTCHAR F33D
ENCODING 62269
SWIDTH 977 0
DWIDTH 19 0
BBX 19 19 0 0
BITMAP
1E0000
7F1880
7F99C0
FF9080
FF8000
FF8000
FF80C0
7F81C0
3F0000
000F80
003FE0
703FE0
607060
007060
007060
217060
7370E0
233FE0
003FC0
ENDCHAR
STARTCHAR F33E
ENCODING 62270
SWIDTH 977 0
DWIDTH 19 0
BBX 19 19 0 0
BITMAP
1E0000
7F1880
7399C0
E19080
C18000
C18000
E380C0
7F81C0
3F0000
000F80
003FE0
703FE0
607FE0
007FE0
007FE0
217FE0
737FE0
233FE0
003FC0
ENDCHAR
STARTCHAR F33F
ENCODING 62271
SWIDTH 977 0
DWIDTH 19 0
BBX 19 15 0 2
BITMAP
1FFF00
3FFF80
6FFBC0
DC0E60
FC0060
7FF8C0
3FFC80
107D00
080E00
070C00
07FC00
031800
01B000
00E000
004000
ENDCHAR
STARTCHAR F340
ENCODING 62272
SWIDTH 977 0
DWIDTH 19 0
BBX 17 19 1 0
BITMAP
FFFF80
7FFF00
03E000
0FF800
1FFC00
3C1E00
380E00
300600
700700
700700
700700
300600
380E00
3C1E00
1FFC00
0FF800
03E000
7FFF00
FFFF80
ENDCHAR
STARTCHAR F341
ENCODING 62273
SWIDTH 977 0
DWIDTH 19 0
BBX 19 19 0 0
BITMAP
03F800
0E0E00
180300
300180
63B8C0
47BC40
CF1E60
8F1E20
880220
8C0620
8E0E20
8E0E20
CE4E60
45F440
63F8C0
300180
180300
0E0E00
03F800
ENDCHAR
STARTCHAR F342
ENCODING 62274
SWIDTH 977 0
DWIDTH 19 0
BBX 19 19 0 0
BITMAP
03F800
0FFE00
1F7F00
3CFF80
70F9C0
71D9C0
E1D8E0
E398E0
C39860
C71860
C71860
EE18E0
EFF8E0
7FF9C0
7C19C0
3C1F80
1F1F00
0FFE00
03F800
ENDCHAR
STARTCHAR F343
ENCODING 62275
SWIDTH 977 0
DWIDTH 19 0
BBX 16 19 1 0
BITMAP
07E0
1FF8
3FFC
7FFE
7FFE
FFFF
EFF7
EFF7
67C6
7FFE
3FFC
7DBC
7FFC
3FFC
0AD0
0AD0
0AD0
0AD0
0A50
ENDCHAR
STARTCHAR F344
ENCODING 62276
SWIDTH 977 0
DWIDTH 19 0
BBX 19 19 0 0
BITMAP
03F800
0EEE00
18E300
31F180
61F0C0
43F840
C3F860
81F020
80E020
80E020
A0E0A0
B1F1A0
D84360
40E040
61F0C0
33F980
19F300
0EEE00
03F800
ENDCHAR
STARTCHAR F345
ENCODING 62277
SWIDTH 977 0
DWIDTH 19 0
BBX 19 19 0 0
BITMAP
03F800
0FFE00
1FFF00
3FFF80
7E0FC0
7F1FC0
FFBFE0
F7FDE0
F3F9E0
F1F1E0
F3F9E0
F7FDE0
FFBFE0
7F1FC0
7E0FC0
3FFF80
1FFF00
0FFE00
03F800
ENDCHAR
STARTCHAR F346
ENCODING 62278
SWIDTH 977 0
DWIDTH 19 0
BBX 18 18 0 0
BITMAP
000200
240000
280900
280500
69C580
49E580
48C580
69C580
3FFF00
03F000
7FFF80
CBF5C0
8BE4C0
89E440
89E440
88C4C0
480880
440080
ENDCHAR
STARTCHAR F347
ENCODING 62279
SWIDTH 977 0
DWIDTH 19 0
BBX 16 19 1 0
BITMAP
0660
0E70
2C34
4002
366C
F25F
FA5F
B83F
9C33
C663
C243
4246
7C3E
7C3E
5A18
2004
1408
0660
0240
ENDCHAR
STARTCHAR F348
ENCODING 62280
SWIDTH 977 0
DWIDTH 19 0
BBX 16 19 1 0
BITMAP
8003
C3C3
DFFB
FFFF
FFFF
FFFF
FFFF
FFFF
E3C7
FFFF
FFFF
8FF3
8382
C002
4002
4002
600E
1C38
07E0
ENDCHAR
STARTCHAR F349
ENCODING 62281
SWIDTH 977 0
DWIDTH 19 0
BBX 16 19 1 0
BITMAP
0FF0
3BDC
63C6
03C2
8182
8003
8003
981B
9C3B
C003
C002
C002
4002
47E2
7C2E
6006
300C
1818
0FF0
ENDCHAR
STARTCHAR F34A
ENCODING 62282
SWIDTH 977 0
DWIDTH 19 0
BBX 19 19 0 1
BITMAP
00E000
06EC00
0EEE00
1EEF00
1EEF00
3EEF80
3C0780
31F180
24E480
0EEE00
0EEE00
2CE680
311180
7E4FC0
7EEFC0
7C07C0
FC07E0
C3F860
00E000
ENDCHAR
STARTCHAR F34B
ENCODING 62283
SWIDTH 977 0
DWIDTH 19 0
BBX 13 19 2 0
BITMAP
7E00
C300
C300
C300
C300
C300
FFF8
C308
C308
C308
C308
C308
FFF8
C300
C300
C300
C300
C300
7E00
ENDCHAR
STARTCHAR F34C
ENCODING 62284
SWIDTH 977 0
DWIDTH 19 0
BBX 13 19 2 0
BITMAP
01F8
0308
0308
0308
0308
0308
7FF8
C308
C308
C308
C308
C308
FFF8
C300
C300
C300
C300
C300
7E00
ENDCHAR
STARTCHAR F34D
ENCODING 62285
SWIDTH 977 0
DWIDTH 19 0
BBX 13 19 2 0
BITMAP
7E00
C300
C300
C300
C300
C300
FF00
C300
C300
C300
C300
C300
FFF8
C308
C308
C308
C308
C308
7FF8
ENDCHAR
STARTCHAR F34E
ENCODING 62286
SWIDTH 977 0
DWIDTH 19 0
BBX 19 11 0 4
BITMAP
F1E3E0
F9E3E0
79E7C0
7DEF80
3DFF00
3FFC00
1FFE00
0FFF80
0FEFC0
07E7E0
03E3E0
ENDCHAR
STARTCHAR F34F
ENCODING 62287
SWIDTH 977 0
DWIDTH 19 0
BBX 19 18 0 0
BITMAP
FE0FE0
823820
826020
82C020
FE8FE0
019800
011000
011000
011000
011000
011000
011000
011000
011000
011000
011000
011000
01F000
ENDCHAR
STARTCHAR F350
ENCODING 62288
SWIDTH 977 0
DWIDTH 19 0
BBX 19 19 0 0
BITMAP
07FC00
0C0600
1E0F00
3E0F80
7F1FC0
FF1FE0
BFBFA0
8FBE20
83F820
80E020
83F820
8FBE20
BFBFA0
FF1FE0
7F1FC0
3E0F80
1E0F00
0C0600
07FC00
ENDCHAR
STARTCHAR F351
ENCODING 62289
SWIDTH 977 0
DWIDTH 19 0
BBX 18 19 0 1
BITMAP
0F8000
3FE700
707F80
603FC0
CF9FC0
CFCF80
CCE700
CC7E00
CE3C00
671800
738000
39C000
1CE000
0E7000
073800
039C00
01DC00
00F800
007000
ENDCHAR
STARTCHAR F352
ENCODING 62290
SWIDTH 977 0
DWIDTH 19 0
BBX 19 15 0 2
BITMAP
380380
380380
040400
020800
0FFE00
0FFE00
79F3C0
79F3C0
79F3C0
FFFFE0
8FFE20
8FFE20
880220
071C00
071C00
ENDCHAR
STARTCHAR F353
ENCODING 62291
SWIDTH 977 0
DWIDTH 19 0
BBX 19 14 0 3
BITMAP
100100
180200
0E0E00
07BC00
03F800
01F000
01F000
03F800
07BC00
0E0E00
1C0700
300180
6000C0
800020
ENDCHAR
STARTCHAR F354
ENCODING 62292
SWIDTH 977 0
DWIDTH 19 0
BBX 19 19 0 0
BITMAP
03F800
0EDE00
1D6B00
356B80
6AD5C0
756A40
CAF5E0
B51A60
FE4FE0
FEEFE0
FE4FE0
811020
C0E060
400040
6000C0
300180
180300
0E0E00
03F800
ENDCHAR
STARTCHAR F355
ENCODING 62293
SWIDTH 977 0
DWIDTH 19 0
BBX 17 18 1 1
BITMAP
200200
400100
400100
800080
800080
C08180
C08180
61C300
71C700
3FFE00
1FFC00
07F000
01C000
01C000
01C000
01C000
008000
008000
ENDCHAR
STARTCHAR F356
ENCODING 62294
SWIDTH 977 0
DWIDTH 19 0
BBX 19 19 0 0
BITMAP
03E800
07EE00
11E700
3C7780
7F3700
7C0740
C00260
1802E0
F800E0
F001E0
E003E0
E80300
C80060
5C07C0
1D9FC0
3DC780
1CF100
0EFC00
02F800
ENDCHAR
STARTCHAR F357
ENCODING 62295
SWIDTH 977 0
DWIDTH 19 0
BBX 18 19 1 0
BITMAP
03F000
0FFC00
1FFE00
3FFF00
3FFF80
FFFFC0
FFFFC0
E000C0
FFFFC0
FFFFC0
7FFF80
200180
200100
300100
100300
180200
0DE400
07F800
01E000
ENDCHAR
STARTCHAR F358
ENCODING 62296
SWIDTH 977 0
DWIDTH 19 0
BBX 19 19 0 0
BITMAP
031800
CF1E60
FF1FE0
0FBE00
0FBE00
07BC00
231880
211080
020800
1B1B00
3FBF80
3F1F80
1FBF00
071C00
000000
0C0600
0FBE00
0FBE00
060C00
ENDCHAR
STARTCHAR F359
ENCODING 62297
SWIDTH 977 0
DWIDTH 19 0
BBX 19 19 0 0
BITMAP
1F0000
3F8000
7FC000
FFC000
FFE000
FFE000
FFE000
FFF000
7FF000
3FF000
0FF000
01E800
001C00
000F00
0007E0
0007E0
000300
000300
000300
ENDCHAR
STARTCHAR F35A
ENCODING 62298
SWIDTH 977 0
DWIDTH 19 0
BBX 19 15 0 2
BITMAP
002000
00F000
01C000
E23D80
F0F9C0
F3FBE0
7FFBE0
1FFBE0
7FFBE0
F3FBE0
F0F9C0
E03D80
01C000
01C000
018000
ENDCHAR
STARTCHAR F35B
ENCODING 62299
SWIDTH 977 0
DWIDTH 19 0
BBX 19 19 0 0
BITMAP
00E000
01F000
01F000
1DF700
3EEF80
7F1FC0
FFFFE0
FFFFE0
FFFFE0
7FFFC0
1FFF00
43F840
300180
36ED80
36ED80
36ED80
36ED80
16ED00
06EC00
ENDCHAR
STARTCHAR F35C
ENCODING 62300
SWIDTH 977 0
DWIDTH 19 0
BBX 19 19 0 0
BITMAP
003000
00F000
03F000
07F800
0FF800
1E7800
3E7C00
3FFC00
77E600
73E600
F7E600
FE7F00
1E7F00
07F980
00F980
003FC0
0007C0
0001C0
000020
ENDCHAR
ENDFONT
